<?xml version="1.0" encoding="utf-8"?>
<!-- Generator: Adobe Illustrator 25.4.1, SVG Export Plug-In . SVG Version: 6.00 Build 0)  -->
<svg version="1.1" id="Capa_1" xmlns="http://www.w3.org/2000/svg" xmlns:xlink="http://www.w3.org/1999/xlink" x="0px" y="0px"
	 viewBox="0 0 104.1 104" style="enable-background:new 0 0 104.1 104;" xml:space="preserve">
<style type="text/css">
	.st0{fill:#009CDE;}
</style>
<g>
	<g>
		<path class="st0" d="M52,104C23.3,104,0,80.7,0,52C0,23.3,23.3,0,52,0s52,23.3,52,52C104.1,80.7,80.7,104,52,104z M52,2.7
			C24.8,2.7,2.7,24.8,2.7,52c0,27.2,22.1,49.3,49.3,49.3s49.3-22.1,49.3-49.3C101.4,24.8,79.2,2.7,52,2.7z"/>
	</g>
	<g>
		<path class="st0" d="M79.8,25.2c-0.2-0.6-0.7-1-1.4-1c-12.8,0.9-31.3,3.2-44,13.5c-6.6,5.3-10.1,12.3-10.2,20.2
			c0,4.6,1.6,10,4.9,16c-0.6,1.4-1,2.8-1.4,4.1c-0.2,0.7,0.2,1.4,0.9,1.7c0.1,0,0.2,0.1,0.4,0.1c0.6,0,1.1-0.4,1.3-1
			c1.4-5,4.3-11,8.2-16.9h14.5c0.7,0,1.3-0.6,1.3-1.3c0-0.7-0.6-1.3-1.3-1.3H40.2c1.8-2.6,3.8-5.1,5.9-7.6h9.3
			c0.7,0,1.3-0.6,1.3-1.3c0-0.7-0.6-1.3-1.3-1.3h-6.9c3.9-4.1,8.2-7.7,12.7-10.3c0.6-0.4,0.9-1.2,0.5-1.8c-0.4-0.6-1.2-0.8-1.8-0.5
			c-5,2.9-9.7,7-14,11.6l-2-5.8c-0.2-0.7-1-1.1-1.7-0.8c-0.7,0.2-1.1,1-0.8,1.7l2.4,7.2c-2.1,2.4-4,4.9-5.8,7.4L35.4,49
			c-0.2-0.7-1-1.1-1.7-0.9c-0.7,0.2-1.1,1-0.9,1.7l3.3,10.7c-2.2,3.5-4.2,6.9-5.7,10.2c-2.4-4.8-3.6-9.1-3.5-12.8
			c0.1-7.1,3.2-13.4,9.2-18.2C47,31,62.7,28.3,74.7,27.2c-1.8,2.2-3.1,4.8-3.5,5.5C68.6,38,68.7,43.6,68.8,49
			c0.1,4.9,0.2,9.6-1.7,13.9c-4.2,9.5-17.6,14-26.7,11.6c-0.7-0.2-1.4,0.2-1.6,1c-0.2,0.7,0.2,1.4,1,1.6c1.8,0.5,3.8,0.7,5.9,0.7
			C55,77.9,65.6,73,69.6,64c2.2-4.9,2-10.1,1.9-15.1c-0.1-5.3-0.3-10.3,2.1-15c1-2,3.5-6.1,5.5-7.1C79.7,26.5,80,25.8,79.8,25.2z"/>
	</g>
</g>
</svg>
