<?xml version="1.0" encoding="utf-8"?>
<!-- Generator: Adobe Illustrator 25.4.1, SVG Export Plug-In . SVG Version: 6.00 Build 0)  -->
<svg version="1.1" id="Capa_1" xmlns="http://www.w3.org/2000/svg" xmlns:xlink="http://www.w3.org/1999/xlink" x="0px" y="0px"
	 viewBox="0 0 104.1 104" style="enable-background:new 0 0 104.1 104;" xml:space="preserve">
<style type="text/css">
	.st0{fill:#009CDE;}
</style>
<g>
	<g>
		<path class="st0" d="M52,104C23.3,104,0,80.7,0,52C0,23.3,23.3,0,52,0s52,23.3,52,52C104.1,80.7,80.7,104,52,104z M52,2.7
			C24.8,2.7,2.7,24.8,2.7,52c0,27.2,22.1,49.3,49.3,49.3s49.3-22.1,49.3-49.3C101.4,24.8,79.2,2.7,52,2.7z"/>
	</g>
	<g>
		<path class="st0" d="M77.9,48.6c-0.1-0.5-0.4-1-1-1.1c-3.1-0.9-4.9-2.1-5.5-3.6c-0.6-1.5-0.2-3.6,1.4-6.4c0.3-0.5,0.2-1-0.1-1.5
			c-1.4-1.8-2.9-3.3-4.7-4.7c-0.4-0.3-1-0.4-1.5-0.1c-2.8,1.6-4.9,2-6.4,1.4c-1.5-0.6-2.7-2.4-3.6-5.6c-0.1-0.5-0.6-0.9-1.1-1
			c-1.2-0.2-5.6-0.2-6.8,0c-0.5,0.1-1,0.4-1.1,1c-0.9,3.1-2.1,4.9-3.6,5.6c-1.5,0.6-3.6,0.2-6.4-1.4c-0.5-0.3-1-0.2-1.5,0.1
			c-1.8,1.4-3.3,2.9-4.7,4.7c-0.3,0.4-0.4,1-0.1,1.5c1.6,2.8,2,4.9,1.4,6.4c-0.6,1.5-2.4,2.7-5.5,3.6c-0.5,0.1-0.9,0.6-1,1.1
			c-0.2,1.2-0.2,5.6,0,6.8c0.1,0.5,0.4,1,1,1.1c3.1,0.9,4.9,2.1,5.5,3.6c0.6,1.5,0.2,3.6-1.4,6.4c-0.3,0.5-0.2,1,0.1,1.5
			c1.4,1.8,2.9,3.3,4.7,4.7c0.4,0.3,1,0.4,1.5,0.1c2.8-1.6,4.9-2,6.4-1.4c1.5,0.6,2.7,2.4,3.6,5.6c0.1,0.5,0.6,0.9,1.1,1
			c0.6,0.1,2,0.1,3.4,0.1c1.4,0,2.8,0,3.4-0.1c0.5-0.1,1-0.4,1.1-1c0.9-3.1,2.1-4.9,3.6-5.6c1.5-0.6,3.6-0.2,6.4,1.4
			c0.5,0.3,1,0.2,1.5-0.1c1.8-1.4,3.3-2.9,4.7-4.7c0.3-0.4,0.4-1,0.1-1.5c-1.6-2.8-2-4.9-1.4-6.4c0.6-1.5,2.4-2.7,5.5-3.6
			c0.5-0.1,0.9-0.6,1-1.1C78,54.2,78,49.8,77.9,48.6z M75.3,54.2c-3.5,1.1-5.5,2.7-6.4,4.8C68,61.2,68.4,63.7,70,67
			c-0.9,1.1-1.9,2.1-3,3c-3.2-1.6-5.8-2-7.9-1.1c-2.1,0.9-3.7,2.9-4.8,6.4c-1.2,0-3.2,0-4.4,0c-1.1-3.5-2.7-5.5-4.8-6.4
			c-2.1-0.9-4.7-0.5-7.9,1.1C36,69,35,68,34.1,67c1.6-3.2,2-5.8,1.1-7.9c-0.9-2.1-2.9-3.7-6.4-4.8c0-1.2,0-3.2,0-4.4
			c3.5-1.1,5.5-2.7,6.4-4.8c0.9-2.1,0.5-4.7-1.1-7.9c0.9-1.1,1.9-2.1,3-3c3.2,1.6,5.8,2,7.9,1.1c2.1-0.9,3.7-2.9,4.8-6.4
			c1.2,0,3.2,0,4.4,0c1.1,3.5,2.7,5.5,4.8,6.4c2.1,0.9,4.7,0.5,7.9-1.1c1.1,0.9,2.1,1.9,3,3c-1.6,3.2-2,5.8-1.1,7.9
			c0.9,2.1,2.9,3.7,6.4,4.8C75.3,51,75.3,53,75.3,54.2z"/>
		<path class="st0" d="M58.2,46.9L52,50.5l-4-2.2c-0.6-0.4-1.5-0.1-1.8,0.5c-0.4,0.6-0.1,1.5,0.5,1.8l4.7,2.6
			c0.2,0.1,0.4,0.2,0.7,0.2c0.2,0,0.5-0.1,0.7-0.2l6.8-4c0.6-0.4,0.9-1.2,0.5-1.8C59.6,46.7,58.8,46.5,58.2,46.9z"/>
		<path class="st0" d="M52,60.6c-0.7,0-1.3,0.6-1.3,1.3v1.6c0,0.7,0.6,1.3,1.3,1.3c0.7,0,1.3-0.6,1.3-1.3v-1.6
			C53.4,61.2,52.8,60.6,52,60.6z"/>
		<path class="st0" d="M52,43.5c0.7,0,1.3-0.6,1.3-1.3v-1.6c0-0.7-0.6-1.3-1.3-1.3c-0.7,0-1.3,0.6-1.3,1.3v1.6
			C50.7,42.9,51.3,43.5,52,43.5z"/>
		<path class="st0" d="M60.6,52c0,0.7,0.6,1.3,1.3,1.3h1.6c0.7,0,1.3-0.6,1.3-1.3c0-0.7-0.6-1.3-1.3-1.3H62
			C61.2,50.7,60.6,51.3,60.6,52z"/>
		<path class="st0" d="M42.2,50.7h-1.6c-0.7,0-1.3,0.6-1.3,1.3c0,0.7,0.6,1.3,1.3,1.3h1.6c0.7,0,1.3-0.6,1.3-1.3
			C43.5,51.3,42.9,50.7,42.2,50.7z"/>
		<path class="st0" d="M52,35.9C43.2,35.9,36,43.1,36,52c0,8.9,7.2,16.1,16.1,16.1c8.9,0,16.1-7.2,16.1-16.1
			C68.1,43.1,60.9,35.9,52,35.9z M52,65.4c-7.4,0-13.4-6-13.4-13.4c0-7.4,6-13.4,13.4-13.4c7.4,0,13.4,6,13.4,13.4
			C65.4,59.4,59.4,65.4,52,65.4z"/>
	</g>
</g>
</svg>
