<?xml version="1.0" encoding="utf-8"?>
<!-- Generator: Adobe Illustrator 25.4.1, SVG Export Plug-In . SVG Version: 6.00 Build 0)  -->
<svg version="1.1" id="Capa_1" xmlns="http://www.w3.org/2000/svg" xmlns:xlink="http://www.w3.org/1999/xlink" x="0px" y="0px"
	 viewBox="0 0 104.1 104" style="enable-background:new 0 0 104.1 104;" xml:space="preserve">
<style type="text/css">
	.st0{fill:#009CDE;}
</style>
<g>
	<g>
		<path class="st0" d="M52,104C23.3,104,0,80.7,0,52C0,23.3,23.3,0,52,0s52,23.3,52,52C104.1,80.7,80.7,104,52,104z M52,2.7
			C24.8,2.7,2.7,24.8,2.7,52c0,27.2,22.1,49.3,49.3,49.3c27.2,0,49.3-22.1,49.3-49.3C101.4,24.8,79.2,2.7,52,2.7z"/>
	</g>
	<g>
		<path class="st0" d="M34.9,40.5c0.7,0,1.3-0.6,1.3-1.3v-2c1.9,1.1,4.8,1.9,8.7,1.9c3.9,0,6.8-0.8,8.7-1.9v0.5
			c0,0.7,0.6,1.3,1.3,1.3c0.7,0,1.3-0.6,1.3-1.3v-4.3c0-2.8-3.9-5.6-11.3-5.6c-7.4,0-11.3,2.8-11.3,5.6v5.7
			C33.6,39.9,34.2,40.5,34.9,40.5z M44.9,30.5c5.6,0,8.7,1.9,8.7,2.9c0,1-3.1,2.9-8.7,2.9s-8.7-1.9-8.7-2.9
			C36.2,32.5,39.3,30.5,44.9,30.5z"/>
		<path class="st0" d="M45.8,46.2c2.5-0.1,4.9-0.6,6.7-1.4c0.7-0.3,1-1.1,0.7-1.8c-0.3-0.7-1.1-1-1.8-0.7c-1.5,0.7-3.6,1.1-5.8,1.2
			c-0.7,0-1.3,0.6-1.3,1.4C44.5,45.6,45.1,46.2,45.8,46.2C45.8,46.2,45.8,46.2,45.8,46.2z"/>
		<path class="st0" d="M83.1,42.6L70.3,25.5C70,25.2,69.6,25,69.2,25c-0.4,0-0.8,0.2-1.1,0.5L55.3,42.6C55,43,54.9,43.6,55.1,44
			c0.2,0.5,0.7,0.7,1.2,0.7h4.4v10.1c0,5.4-3.2,11.1-8.5,15c-5.2,3.8-11.2,5-16.7,3.3c-1.3-0.6-2.5-1.4-3.7-2.2
			c-0.6-0.4-1.4-0.3-1.9,0.3c-0.4,0.6-0.3,1.4,0.3,1.9c1.3,0.9,2.6,1.7,4.1,2.5c0,0,0.1,0,0.1,0.1c4.6,2.2,10,3.4,15.6,3.4
			c0,0,0,0,0,0c16.2,0,27.5-9.9,27.5-24.1c0,0,0-0.1,0-0.1V44.8H82c0.5,0,1-0.3,1.2-0.7C83.5,43.6,83.4,43,83.1,42.6z M76.3,42.1
			c-0.7,0-1.3,0.6-1.3,1.3v11.3c0,0,0,0.1,0,0.1c0,12.8-10,21.4-24.8,21.4c-1.7,0-3.4-0.1-5-0.3c3-0.7,5.9-2,8.6-4
			c5.9-4.3,9.6-10.9,9.6-17.1V43.4c0-0.7-0.6-1.3-1.3-1.3h-3l10.2-13.5l10.2,13.5H76.3z"/>
		<path class="st0" d="M43.4,62v-7.1v-7.1c0-2.8-3.9-5.6-11.3-5.6c-7.4,0-11.3,2.8-11.3,5.6v7.1V62c0,2.8,3.9,5.6,11.3,5.6
			C39.5,67.6,43.4,64.8,43.4,62z M23.4,51.4c1.9,1.1,4.8,1.9,8.7,1.9c3.9,0,6.8-0.8,8.7-1.9v3.4c0,1-3.1,2.9-8.7,2.9
			c-5.6,0-8.7-1.9-8.7-2.9V51.4z M32,44.8c5.6,0,8.7,1.9,8.7,2.9c0,1-3.1,2.9-8.7,2.9c-5.6,0-8.7-1.9-8.7-2.9
			C23.4,46.7,26.4,44.8,32,44.8z M23.4,62v-3.4c1.9,1.1,4.8,1.9,8.7,1.9c3.9,0,6.8-0.8,8.7-1.9V62c0,1-3.1,2.9-8.7,2.9
			C26.4,64.9,23.4,63,23.4,62z"/>
		<path class="st0" d="M46.2,57.7c-0.7,0-1.3,0.7-1.3,1.4c0,0.7,0.6,1.3,1.3,1.3c0,0,0.1,0,0.1,0c5.9-0.4,9.8-2.6,9.8-5.6v-7.1
			c0-0.7-0.6-1.3-1.3-1.3c-0.7,0-1.3,0.6-1.3,1.3c0,0.9-2.4,2.6-7.3,2.9c-0.7,0-1.3,0.7-1.3,1.4c0,0.7,0.6,1.3,1.3,1.3
			c0,0,0.1,0,0.1,0c3-0.2,5.4-0.8,7.1-1.8v3.4C53.6,55.7,51.1,57.4,46.2,57.7z"/>
	</g>
</g>
</svg>
