<?xml version="1.0" encoding="utf-8"?>
<!-- Generator: Adobe Illustrator 25.4.1, SVG Export Plug-In . SVG Version: 6.00 Build 0)  -->
<svg version="1.1" id="Capa_1" xmlns="http://www.w3.org/2000/svg" xmlns:xlink="http://www.w3.org/1999/xlink" x="0px" y="0px"
	 viewBox="0 0 104.1 104" style="enable-background:new 0 0 104.1 104;" xml:space="preserve">
<style type="text/css">
	.st0{fill:#009CDE;}
</style>
<g>
	<g>
		<path class="st0" d="M52,104C23.3,104,0,80.7,0,52C0,23.3,23.3,0,52,0s52,23.3,52,52C104.1,80.7,80.7,104,52,104z M52,2.7
			C24.8,2.7,2.7,24.8,2.7,52c0,27.2,22.1,49.3,49.3,49.3s49.3-22.1,49.3-49.3C101.4,24.8,79.3,2.7,52,2.7z"/>
	</g>
	<g>
		<path class="st0" d="M74.8,62.5l-13.3-19c-0.7-1-1.1-2.1-1.1-3.3v-8.1c2.2-0.4,3.9-2.3,3.9-4.6c0-2.6-2.1-4.7-4.7-4.7H44.4
			c-2.6,0-4.7,2.1-4.7,4.7c0,2.3,1.7,4.3,3.9,4.6v8.1c0,1.2-0.4,2.4-1.1,3.3l-13.3,19c-3.5,4.9-2.7,11.6,1.8,15.6c2.2,2,5,3,7.9,3
			h26.2c2.9,0,5.7-1.1,7.9-3C77.5,74.1,78.3,67.4,74.8,62.5z M71.3,76.2c-1.7,1.5-3.9,2.3-6.1,2.3H39c-2.3,0-4.4-0.8-6.1-2.3
			c-3.5-3.1-4.1-8.3-1.4-12.1l13.3-19c1-1.4,1.5-3.1,1.5-4.9v-8h1.5c0.7,0,1.3-0.6,1.3-1.3c0-0.7-0.6-1.3-1.3-1.3h-3.4
			c-1.1,0-2-0.9-2-2c0-1.1,0.9-2,2-2h15.3c1.1,0,2,0.9,2,2c0,1.1-0.9,2-2,2h-3.4c-0.7,0-1.3,0.6-1.3,1.3c0,0.7,0.6,1.3,1.3,1.3h1.5
			v8c0,1.8,0.5,3.4,1.5,4.9l13.3,19C75.3,67.8,74.7,73.1,71.3,76.2z"/>
		<path class="st0" d="M62,57.1c-0.4-0.6-1.3-0.8-1.9-0.3c-0.6,0.4-0.8,1.3-0.3,1.9l6.8,9.7c0.5,0.7,0.4,1.8-0.3,2.4
			c-0.3,0.3-0.8,0.5-1.2,0.5H39c-0.4,0-0.9-0.2-1.2-0.5c-0.7-0.6-0.8-1.6-0.3-2.4l6.4-9.1h10.8c0.7,0,1.3-0.6,1.3-1.3
			c0-0.7-0.6-1.3-1.3-1.3H43.2c-0.4,0-0.8,0.2-1.1,0.6l-6.8,9.7c-1.3,1.9-1,4.4,0.7,5.9c0.8,0.7,1.9,1.1,3,1.1h26.2
			c1.1,0,2.2-0.4,3-1.1c1.7-1.5,2-4.1,0.7-5.9L62,57.1z"/>
	</g>
</g>
</svg>
