<?xml version="1.0" encoding="utf-8"?>
<!-- Generator: Adobe Illustrator 25.4.1, SVG Export Plug-In . SVG Version: 6.00 Build 0)  -->
<svg version="1.1" id="Capa_1" xmlns="http://www.w3.org/2000/svg" xmlns:xlink="http://www.w3.org/1999/xlink" x="0px" y="0px"
	 viewBox="0 0 104.1 104" style="enable-background:new 0 0 104.1 104;" xml:space="preserve">
<style type="text/css">
	.st0{fill:#009CDE;}
</style>
<g>
	<g>
		<path class="st0" d="M52,104C23.3,104,0,80.7,0,52C0,23.3,23.3,0,52,0c28.7,0,52,23.3,52,52C104.1,80.7,80.7,104,52,104z M52,2.7
			C24.8,2.7,2.7,24.8,2.7,52c0,27.2,22.1,49.3,49.3,49.3s49.3-22.1,49.3-49.3C101.4,24.8,79.3,2.7,52,2.7z"/>
	</g>
	<g>
		<path class="st0" d="M65,61.1c0.6-0.4,0.7-1.3,0.3-1.9c-0.4-0.6-1.3-0.7-1.9-0.3c0,0-1.7,1.2-3.9,2.6C54,65,46.9,66,41.7,64
			c-3.7-1.4-7.2-3.9-10.7-6.3c-5.2-3.6-10.5-7.4-16.6-7.9c1.6-3.7,6.5-12.1,16.7-12.7c4.3-0.3,8.6,1.1,12.2,3.8c3.2,2.4,6.5,5,6.6,5
			c0.6,0.5,1.4,0.4,1.9-0.2c0.5-0.6,0.4-1.4-0.2-1.9c0,0-3.4-2.6-6.6-5c-4.1-3.1-9.1-4.6-14-4.3c-14.8,0.9-19.7,16.2-19.8,16.3
			c-0.1,0.4,0,0.9,0.2,1.2c0.3,0.3,0.7,0.5,1.1,0.5c6-0.3,11.3,3.5,17,7.4c3.6,2.5,7.3,5.1,11.3,6.6c2.1,0.8,4.5,1.2,6.9,1.2
			c4.5,0,9.2-1.3,13.3-3.9C63.3,62.4,64.9,61.2,65,61.1z"/>
		<path class="st0" d="M92.8,44.3c-0.3-0.7-1.1-1-1.7-0.7c-2.9,1.2-5.6,2.2-8.2,3.1c-2.4-4.6-11.4-9.5-20.2-11
			c-6.4-1-11.1-0.3-13.4,0.2c-0.7,0.2-1.2,0.9-1,1.6c0.2,0.7,0.9,1.2,1.6,1c2.1-0.5,6.4-1.1,12.4-0.1c8.5,1.4,15.9,6.1,18,9.2
			c-10.8,3.4-18.3,4-24.8,3.9c-7.9,0-12.6-1.9-16.8-3.5c-3.6-1.4-7-2.7-11.6-2.7c0,0,0,0,0,0c-0.7,0-1.3,0.6-1.3,1.3
			c0,0.7,0.6,1.3,1.3,1.3c0,0,0,0,0,0c4.2,0,7.2,1.2,10.7,2.5c4.4,1.7,9.3,3.6,17.7,3.7c0.2,0,0.4,0,0.6,0c6.5,0,14.1-0.6,24.8-4
			c-0.2,2.3-1.7,5.4-4,8.2c-4.4,5.5-10.4,8.6-16,8.5c-0.7,0-1.4,0.6-1.4,1.3c0,0.7,0.6,1.4,1.3,1.4c0.1,0,0.3,0,0.4,0
			c6.3,0,13-3.5,17.8-9.5c3-3.8,4.7-7.8,4.6-10.8c2.6-0.9,5.5-2,8.5-3.2C92.8,45.8,93.1,45,92.8,44.3z"/>
	</g>
</g>
</svg>
