<?xml version="1.0" encoding="utf-8"?>
<!-- Generator: Adobe Illustrator 25.4.1, SVG Export Plug-In . SVG Version: 6.00 Build 0)  -->
<svg version="1.1" id="Capa_1" xmlns="http://www.w3.org/2000/svg" xmlns:xlink="http://www.w3.org/1999/xlink" x="0px" y="0px"
	 viewBox="0 0 101.4 101.3" style="enable-background:new 0 0 101.4 101.3;" xml:space="preserve">
<style type="text/css">
	.st0{fill-rule:evenodd;clip-rule:evenodd;fill:#009CDE;}
	.st1{fill:#FFFFFF;}
</style>
<g>
	<path class="st0" d="M50.7,0c28,0,50.7,22.7,50.7,50.6c0,28-22.7,50.6-50.7,50.6S0,78.6,0,50.6C0,22.7,22.7,0,50.7,0z"/>
	<g>
		<path class="st1" d="M27.9,48.1V39c0-0.3-0.2-0.6-0.6-0.6c-0.3,0-0.6,0.3-0.6,0.6v9.1c0,0.3,0.2,0.6,0.6,0.6
			C27.7,48.7,27.9,48.4,27.9,48.1z"/>
		<path class="st1" d="M59.1,48.1V39c0-0.3-0.2-0.6-0.6-0.6S58,38.7,58,39v9.1c0,0.3,0.2,0.6,0.6,0.6S59.1,48.4,59.1,48.1z"/>
		<path class="st1" d="M44.7,55.2c0.3,0,0.6-0.3,0.6-0.6c0-0.3-0.2-0.6-0.6-0.6h0c-0.3,0-0.6,0.3-0.6,0.6
			C44.1,54.9,44.4,55.2,44.7,55.2z"/>
		<path class="st1" d="M51.2,40.7c-0.5,0-0.9,0.4-0.9,0.9v24.8h-5.4c0.2-0.1,0.4-0.3,0.4-0.5v-9.1c0-0.3-0.2-0.6-0.6-0.6
			c-0.3,0-0.6,0.3-0.6,0.6v9.1c0,0.2,0.2,0.4,0.4,0.5h-1V55c0-0.5-0.4-0.9-0.9-0.9h-8.9c-0.5,0-0.9,0.4-0.9,0.9v11.4h-6.8v-3.1
			c0-0.5-0.4-0.9-0.9-0.9S24,62.8,24,63.3v4c0,0.5,0.4,0.9,0.9,0.9h8.7c0.5,0,0.9-0.4,0.9-0.9V55.9h7.1v11.4c0,0.5,0.4,0.9,0.9,0.9
			h8.7c0.5,0,0.9-0.4,0.9-0.9V41.7C52.1,41.1,51.7,40.7,51.2,40.7z"/>
		<path class="st1" d="M51.2,33h-8.7c-0.5,0-0.9,0.4-0.9,0.9v11.4h-7.1V33.9c0-0.5-0.4-0.9-0.9-0.9h-8.7c-0.5,0-0.9,0.4-0.9,0.9
			v26.5c0,0.5,0.4,0.9,0.9,0.9s0.9-0.4,0.9-0.9V34.8h6.8v11.4c0,0.5,0.4,0.9,0.9,0.9h8.9c0.5,0,0.9-0.4,0.9-0.9V34.8h6.8v3.3
			c0,0.5,0.4,0.9,0.9,0.9c0.5,0,0.9-0.4,0.9-0.9v-4.2C52.1,33.4,51.7,33,51.2,33z"/>
		<path class="st1" d="M74.5,45.4H66v-1.8h1.4c0.5,0,0.9-0.4,0.9-0.9s-0.4-0.9-0.9-0.9H65c-0.5,0-0.9,0.4-0.9,0.9v3.7
			c0,0.5,0.4,0.9,0.9,0.9h8.6v6.8H65c-0.5,0-0.9,0.4-0.9,0.9v11.4h-6.8V64c0-0.5-0.4-0.9-0.9-0.9s-0.9,0.4-0.9,0.9v3.4
			c0,0.5,0.4,0.9,0.9,0.9H65c0.5,0,0.9-0.4,0.9-0.9V55.9h8.6c0.5,0,0.9-0.4,0.9-0.9v-8.7C75.5,45.8,75,45.4,74.5,45.4z"/>
		<path class="st1" d="M76.5,33H56.4c-0.5,0-0.9,0.4-0.9,0.9v27c0,0.5,0.4,0.9,0.9,0.9s0.9-0.4,0.9-0.9V34.8h18.3v6.8h-6.3
			c-0.5,0-0.9,0.4-0.9,0.9s0.4,0.9,0.9,0.9h7.2c0.5,0,0.9-0.4,0.9-0.9v-8.7C77.4,33.4,77,33,76.5,33z"/>
	</g>
</g>
</svg>
