<?xml version="1.0" encoding="utf-8"?>
<!-- Generator: Adobe Illustrator 25.4.1, SVG Export Plug-In . SVG Version: 6.00 Build 0)  -->
<svg version="1.1" id="Capa_1" xmlns="http://www.w3.org/2000/svg" xmlns:xlink="http://www.w3.org/1999/xlink" x="0px" y="0px"
	 viewBox="0 0 101.4 101.3" style="enable-background:new 0 0 101.4 101.3;" xml:space="preserve">
<style type="text/css">
	.st0{fill-rule:evenodd;clip-rule:evenodd;fill:#009CDE;}
	.st1{fill:#FFFFFF;}
</style>
<g>
	<path class="st0" d="M50.7,0c28,0,50.7,22.7,50.7,50.6c0,28-22.7,50.6-50.7,50.6S0,78.6,0,50.6C0,22.7,22.7,0,50.7,0z"/>
	<g>
		<path class="st1" d="M74.4,50.5c0.5,0.2,1,0,1.2-0.5c0.8-2,1.3-4.1,1.6-6.3c0-0.3,0-0.5-0.2-0.7c-0.2-0.2-0.4-0.3-0.7-0.3h-3.2
			c-0.5,0-0.8,0.3-0.9,0.8C70.6,54,61.4,62,50.7,62c-8.9,0-17.1-5.6-20.3-14c-0.2-0.5-0.7-0.7-1.2-0.5c-0.5,0.2-0.7,0.7-0.5,1.2
			c3.5,9.1,12.3,15.2,22,15.2c11.3,0,21.1-8.3,23.1-19.4h1.3c-0.3,1.7-0.7,3.3-1.3,4.8C73.6,49.8,73.9,50.3,74.4,50.5z"/>
		<path class="st1" d="M29.3,43.5c0-0.5-0.4-0.9-0.9-0.9h-3.2c-0.3,0-0.5,0.1-0.7,0.3c-0.2,0.2-0.3,0.5-0.2,0.7
			c0.8,6.1,3.5,11.6,7.9,15.9c5,4.9,11.6,7.5,18.5,7.5c6.9,0,13.5-2.7,18.5-7.5c1.3-1.2,2.4-2.6,3.4-4.1c0.3-0.4,0.2-1-0.2-1.3
			c-0.4-0.3-1-0.2-1.3,0.2c-0.9,1.4-2,2.6-3.2,3.8c-4.7,4.5-10.8,7-17.2,7c-6.5,0-12.6-2.5-17.2-7c-3.9-3.7-6.3-8.5-7.2-13.7h2.1
			C28.8,44.5,29.3,44.1,29.3,43.5z"/>
		<path class="st1" d="M40.4,69.7c0.4,0,0.7-0.2,0.9-0.6c0.2-0.5-0.1-1-0.6-1.2c-3.9-1.4-7.3-3.6-10.3-6.5
			c-5.5-5.3-8.6-12.4-8.9-20.1c0-0.4,0.1-0.7,0.4-1c0.2-0.3,0.6-0.4,0.9-0.4h5.4c0.5,0,0.9-0.4,0.9-0.9
			c0.6-11.6,10.1-20.7,21.7-20.7c10,0,18.6,6.8,21,16.5c0.1,0.5,0.6,0.8,1.1,0.7c0.5-0.1,0.8-0.6,0.7-1.1
			c-2.6-10.5-12-17.9-22.8-17.9c-12.2,0-22.4,9.4-23.4,21.6h-4.5c-0.9,0-1.7,0.4-2.3,1c-0.6,0.6-0.9,1.5-0.9,2.3
			c0.3,8.1,3.7,15.7,9.5,21.3c3.2,3.1,6.9,5.4,11,6.9C40.1,69.7,40.3,69.7,40.4,69.7z"/>
		<path class="st1" d="M35.7,33c-0.4-0.3-1-0.3-1.3,0.1c-0.6,0.7-1,1.6-0.9,2.5c0,0.9,0.4,1.8,1.1,2.4c0.6,0.6,1.5,0.9,2.4,0.9
			c1,0,1.9-0.4,2.6-1.1l8-8.7c0.6-0.7,1-1.6,0.9-2.5c0-0.9-0.4-1.8-1.1-2.4c-1.4-1.3-3.6-1.2-4.9,0.2l-5.7,6.2
			c-0.3,0.4-0.3,1,0.1,1.3c0.4,0.3,1,0.3,1.3-0.1l5.7-6.2c0.6-0.7,1.6-0.7,2.3-0.1c0.3,0.3,0.5,0.7,0.5,1.1c0,0.4-0.1,0.9-0.4,1.2
			l-8,8.7c-0.6,0.6-1.7,0.7-2.3,0.1c-0.3-0.3-0.5-0.7-0.5-1.1c0-0.4,0.1-0.9,0.4-1.2C36.1,33.9,36,33.3,35.7,33z"/>
		<path class="st1" d="M56.4,31.5c-0.3,0.4-0.3,1,0.1,1.3c0.4,0.3,1,0.3,1.3-0.1l0.7-0.8c0.6-0.7,1-1.6,0.9-2.5
			c0-0.9-0.4-1.8-1.1-2.4c-1.4-1.3-3.6-1.2-4.9,0.2l-15,16.4c-0.6,0.7-1,1.6-0.9,2.5c0,0.9,0.4,1.8,1.1,2.4c0.6,0.6,1.5,0.9,2.4,0.9
			c1,0,1.9-0.4,2.6-1.1l11.6-12.6c0.3-0.4,0.3-1-0.1-1.3c-0.4-0.3-1-0.3-1.3,0.1L42.1,47.1c-0.6,0.6-1.7,0.7-2.3,0.1
			c-0.3-0.3-0.5-0.7-0.5-1.1c0-0.4,0.1-0.9,0.4-1.2l15-16.4c0.6-0.7,1.6-0.7,2.3-0.1c0.3,0.3,0.5,0.7,0.5,1.1c0,0.4-0.1,0.9-0.4,1.2
			L56.4,31.5z"/>
		<path class="st1" d="M72.3,62.8c5.8-5.6,9.2-13.2,9.5-21.3c0-0.9-0.3-1.7-0.9-2.3c-0.6-0.6-1.4-1-2.3-1h-5.4
			c-0.5,0-0.9,0.4-0.9,0.9c0,0.5,0.4,0.9,0.9,0.9h5.4c0.4,0,0.7,0.1,0.9,0.4c0.2,0.3,0.4,0.6,0.4,1C79.7,49,76.5,56.1,71,61.4
			c-4.4,4.2-9.8,7-15.8,7.9c-0.5,0.1-0.8,0.5-0.8,0.9v9.1c0,0.5,0.4,0.9,0.9,0.9h7.2c0.7,0,1.3,0.6,1.3,1.3c0,0.7-0.6,1.3-1.3,1.3
			H38.8c-0.7,0-1.3-0.6-1.3-1.3c0-0.7,0.6-1.3,1.3-1.3H46c0.5,0,0.9-0.4,0.9-0.9v-9.1c0-0.5-0.4-0.9-0.9-0.9c-0.5,0-0.9,0.4-0.9,0.9
			v8.1h-6.2c-1.7,0-3.2,1.4-3.2,3.2c0,1.8,1.4,3.2,3.2,3.2h23.7c1.7,0,3.2-1.4,3.2-3.2c0-1.8-1.4-3.2-3.2-3.2h-6.2V71
			C62.4,69.9,67.9,67.1,72.3,62.8z"/>
	</g>
</g>
</svg>
