<?xml version="1.0" encoding="utf-8"?>
<!-- Generator: Adobe Illustrator 25.4.1, SVG Export Plug-In . SVG Version: 6.00 Build 0)  -->
<svg version="1.1" id="Capa_1" xmlns="http://www.w3.org/2000/svg" xmlns:xlink="http://www.w3.org/1999/xlink" x="0px" y="0px"
	 viewBox="0 0 101.4 101.3" style="enable-background:new 0 0 101.4 101.3;" xml:space="preserve">
<style type="text/css">
	.st0{fill-rule:evenodd;clip-rule:evenodd;fill:#009CDE;}
	.st1{fill:#FFFFFF;}
</style>
<g>
	<path class="st0" d="M50.7,0c28,0,50.7,22.7,50.7,50.6c0,28-22.7,50.6-50.7,50.6S0,78.6,0,50.6C0,22.7,22.7,0,50.7,0z"/>
	<g>
		<path class="st1" d="M41.3,48.3c1.3-3.6,2.6-6.9,3.6-9.3c0,0.1,0,0.1,0,0.2c0.1,0.5,0.5,0.9,1,0.8c0.5-0.1,0.9-0.5,0.8-1
			c-0.3-2.4-0.3-4.1-0.3-4.1c0-0.4-0.3-0.8-0.7-0.9c-0.4-0.1-0.9,0.1-1,0.6c0,0.1-2.2,5.3-4.6,11.6c-1.5-1.7-1.9-1.4-2.3-1.2
			c-0.3,0.2-0.6,0.7-0.4,1.2c0.8,2,0.5,3.5-0.3,5.2c-0.2,0.4-0.3,0.7-0.5,1.1c-0.8,1.7-1.7,3.6-1.7,6.2c0,0.7,0.2,1.5,0.4,2.3
			c-2.9-2.3-6.4-6-6.5-9c0-2.1,0.8-3.8,1.5-5.4c0.7-1.5,1.4-3,1.4-4.8c0.3,0.4,0.7,0.9,1.1,1.5c0.3,0.4,0.9,0.5,1.3,0.2
			c0.4-0.3,0.5-0.9,0.2-1.3c-3.2-4.7-4.1-4.2-4.5-4c-0.4,0.2-0.6,0.7-0.4,1.2c1,2.5,0.2,4.2-0.8,6.3c-0.8,1.7-1.7,3.6-1.7,6.2
			c0.1,5.8,9.4,12.1,9.8,12.4c0,0,0,0,0,0c0.4,0.3,0.8,0.5,1.2,0.8c0.1,0.1,0.3,0.1,0.5,0.1c0.3,0,0.5-0.1,0.7-0.3
			c0.3-0.3,0.3-0.9,0-1.2c-0.3-0.4-0.6-0.8-0.9-1.2c-1-1.5-1.6-2.8-1.6-3.9c0-2.1,0.8-3.8,1.5-5.4c0.2-0.4,0.4-0.8,0.5-1.2
			c0.5-1.1,0.9-2.2,0.9-3.6c0.2,0.3,0.5,0.4,0.9,0.3C40.9,48.9,41.2,48.6,41.3,48.3z"/>
		<path class="st1" d="M53.8,35.8c-0.1-0.5-0.6-0.8-1.1-0.7c-0.5,0.1-0.8,0.6-0.7,1.1c1.3,6.5,0.1,10.4,0.1,10.6
			c-0.1,0.3,0,0.7,0.2,1c0.3,0.3,0.8,0.4,1.2,0.1c0.1,0,0.1-0.1,0.2-0.2l0,0c4.2-5.7,4.8-12.8,4.8-16.4c3.4,3.5,4.4,6.7,5.6,10.5
			l0.3,0.9c0.1,0.3,0.4,0.6,0.8,0.6c0.3,0.1,0.7-0.1,0.9-0.4c0.2-0.3,0.4-0.5,0.5-0.8c0.1,1.7,0.8,3.2,1.4,4.6
			c0.8,1.6,1.5,3.2,1.5,5.4c0,4-5.9,9.1-8.2,10.8c0,0-0.1,0.1-0.1,0.1c-0.5,0.4-1,0.7-1.4,1c-0.4,0.3-0.6,0.8-0.3,1.3
			c0.2,0.3,0.5,0.4,0.8,0.4c0.2,0,0.3,0,0.5-0.1c0.5-0.3,1-0.6,1.5-1.1c0,0,0,0,0,0c0.4-0.3,9-6.5,9.1-12.4c0-2.6-0.9-4.5-1.7-6.2
			c-1-2.1-1.8-3.8-0.8-6.3c0.2-0.6-0.1-1.1-0.4-1.2c-0.4-0.2-0.9-0.5-2.8,2c-1.3-4.1-2.7-7.8-7.5-12c-0.3-0.3-0.7-0.3-1-0.1
			c-0.3,0.2-0.5,0.5-0.5,0.9c0,0.1,0.6,7-2.2,13.4C54.4,40.6,54.3,38.4,53.8,35.8z"/>
		<path class="st1" d="M51.7,32.4c0.1,0,0.2,0,0.3,0c0.1,0,0.9-0.3,0.6-1.3c0,0,0,0,0-0.1c-0.3-1-1-0.8-1.2-0.8
			c-0.1,0-0.9,0.3-0.6,1.3C50.9,32.2,51.4,32.4,51.7,32.4z"/>
		<path class="st1" d="M51.4,60.1c0.3,0.2,0.8,0.1,1-0.2c4.2-4.1,6.4-9.8,7.2-12.5c1.1,1.3,1.9,2.9,2.5,4.7c0.7,2.3,0.4,5-0.9,8
			c-0.2,0.5,0,1,0.5,1.2c0.1,0,0.2,0.1,0.4,0.1c0.4,0,0.7-0.2,0.9-0.6c1.4-3.4,1.7-6.5,1-9.2c-0.8-2.8-2.2-5-4.1-6.7
			c-0.2-0.2-0.6-0.3-0.9-0.2c-0.3,0.1-0.5,0.4-0.6,0.7c0,0.1-1.5,6.8-5.8,11.8c-0.3-1.5-1.1-3.9-2.7-7c-1.1-2.1-1.9-4.8-2.5-8.1
			c-0.1-0.5-0.6-0.8-1.1-0.8c-0.5,0.1-0.8,0.6-0.8,1.1c0.6,3.5,1.5,6.4,2.7,8.6c2.8,5.4,2.8,8.2,2.8,8.2C50.8,59.6,51,60,51.4,60.1z
			"/>
		<path class="st1" d="M34.4,40.1c0.1,0,0.2,0,0.3,0c0.4,0,0.8-0.2,0.9-0.6C39.2,28.3,46.4,22,50.5,19.1c-0.6,1.7-1.1,4-0.8,6.9
			c0,0.5,0.5,0.9,1,0.9c0.5,0,0.9-0.5,0.9-1c-0.5-5.8,2.1-8.8,2.2-8.8c0.3-0.3,0.3-0.8,0.1-1.2c-0.3-0.4-0.7-0.5-1.1-0.3
			c-0.5,0.3-13.4,6.6-18.7,23.2C33.7,39.4,33.9,39.9,34.4,40.1z"/>
		<path class="st1" d="M27.8,71.5h1.9c0.1,0,0.2,0,0.2-0.1c0.6-0.3,1.1-1.1,1.1-1.8c0-0.8-0.6-1.7-2.2-1.7c-0.4,0-0.8,0-1.1,0
			c-0.3,0-0.5,0.3-0.5,0.6V71C27.3,71.3,27.5,71.5,27.8,71.5z M28.4,69.1c0.1,0,0.3,0,0.5,0c0.4,0,1.1,0.1,1.1,0.6
			c0,0.3-0.2,0.6-0.4,0.7h-1.2V69.1z"/>
		<path class="st1" d="M29.3,72.3h-1.5c-0.3,0-0.6,0.2-0.6,0.6v2.4c0,0.3,0.2,0.5,0.5,0.6c0.5,0.1,1.1,0.1,1.4,0.1
			c2.3,0,2.6-1.3,2.6-1.8C31.7,73.6,31.5,72.3,29.3,72.3z M29.1,74.7c-0.1,0-0.4,0-0.8,0v-1.3h0.9c0.6,0,1.3,0.1,1.3,0.6
			C30.6,74.5,30.1,74.7,29.1,74.7z"/>
		<path class="st1" d="M32.5,71.3c0.5-0.6,0.8-1.2,0.8-2c0-1.6-1.3-3.3-4.8-3.3c-0.5,0-1.3,0-2.5,0.2c-0.6,0.1-1,0.5-1,1.1v9.4
			c0,0.6,0.4,1.1,1,1.1c1.1,0.1,2,0.1,2.9,0.1c3.2,0,5-1.4,5-3.8C34,72.8,33.5,71.9,32.5,71.3z M29,76.7c-0.8,0-1.7,0-2.8-0.1
			c0,0,0,0,0,0l0-9.4c1.1-0.1,1.8-0.2,2.3-0.2c2.3,0,3.7,0.8,3.7,2.2c0,0.5-0.1,1.1-1,1.7c-0.2,0.1-0.3,0.3-0.2,0.5
			c0,0.2,0.2,0.4,0.4,0.4c1,0.4,1.5,1,1.5,2.1C32.9,76.3,30.7,76.7,29,76.7z"/>
		<path class="st1" d="M39.1,71.1h-3.8c-0.6,0-1.1,0.4-1.1,1.1v0.7c0,0.6,0.4,1.1,1.1,1.1h3.8c0.6,0,1.1-0.4,1.1-1.1v-0.7
			C40.2,71.5,39.8,71.1,39.1,71.1z M39.1,72.8l-3.8,0l0-0.7l3.8,0V72.8z"/>
		<path class="st1" d="M47.4,71.8c0-0.3,0.1-1,0.1-1.5c0-0.5-0.2-0.9-0.7-1.1c-0.7-0.3-1.5-0.5-2.5-0.5c-2.4,0-4,1.2-4,3
			c0,2.1,2,2.7,3.1,3c0.1,0,0.1,0,0.2,0.1c-0.5,0-1-0.1-1.5-0.4c-0.6-0.3-1.2,0-1.4,0.6l-0.3,0.7c-0.2,0.6-0.1,1.1,0.4,1.4
			c0.8,0.4,1.9,0.7,2.9,0.7c2.2,0,3.7-1.1,3.7-2.9c0-1.1-0.6-1.8-1.4-2.2h0.1C46.9,72.7,47.3,72.4,47.4,71.8z M44.2,70.6
			c-1.5,0-1.7,0.7-1.7,1.2c0,0.8,0.9,1.1,1.7,1.4c1.3,0.4,2.2,0.8,2.2,1.8c0,1.1-1,1.8-2.6,1.8c-0.8,0-1.8-0.2-2.4-0.6l0.3-0.6
			c0,0,0,0,0,0c0.7,0.3,1.4,0.4,2.1,0.4c1.4,0,1.5-0.7,1.5-1c0-0.7-0.8-1-1.6-1.2c-1.3-0.4-2.3-0.8-2.3-2c0-1.2,1.1-1.9,2.9-1.9
			c0.8,0,1.5,0.1,2,0.4c0,0,0.1,0.1,0.1,0.1c0,0.3,0,0.8-0.1,1.3l-0.6,0c0-0.2-0.1-0.3-0.1-0.5c0-0.2-0.2-0.3-0.4-0.4
			C45,70.6,44.7,70.6,44.2,70.6z M44.7,72.1c0,0-0.1,0-0.1,0c-0.3-0.1-0.7-0.2-0.9-0.3c0.1,0,0.3-0.1,0.5-0.1c0.1,0,0.3,0,0.4,0
			c0,0,0,0,0,0C44.6,71.9,44.7,72,44.7,72.1z"/>
		<path class="st1" d="M51.3,66.1h-1.1c0,0-0.1,0-0.1,0l-2.4,0.3c-0.6,0.1-1,0.5-1,1.1V68c0,0.6,0.4,1.1,1.1,1.1h1.3v7.5
			c0,0.6,0.4,1.1,1.1,1.1h1.1c0.6,0,1.1-0.4,1.1-1.1v-9.4C52.4,66.6,52,66.1,51.3,66.1z M51.3,76.6l-1,0v-8c0-0.3-0.2-0.6-0.6-0.6
			l-1.9,0l0-0.4l2.4-0.3l1,0V76.6z"/>
		<path class="st1" d="M55,74l-1,0.2c-0.6,0.1-1,0.6-0.9,1.2c0.1,0.8,0,1.8-0.3,2.3c-0.2,0.5-0.2,1,0.2,1.4l0.3,0.2
			c0.2,0.2,0.5,0.4,0.8,0.4c0.2,0,0.5-0.1,0.7-0.3c1.6-1.3,1.8-2.8,1.8-3.4c0-0.7-0.2-1.2-0.5-1.7C55.9,74,55.5,73.9,55,74z
			 M54.1,78.6l-0.3-0.2c0,0,0,0,0-0.1c0.4-0.8,0.5-1.9,0.4-3l1-0.1c0,0,0.1,0,0.1,0c0.2,0.2,0.2,0.6,0.2,1
			C55.5,76.5,55.4,77.6,54.1,78.6z"/>
		<path class="st1" d="M65.2,74.6c0-0.1,0-0.3,0-0.5v-7.8c0-0.4-0.2-0.7-0.3-0.8c-0.2-0.1-0.4-0.3-0.9-0.2l-1.1,0.2
			c-0.6,0.1-1,0.5-1,1.1v2.3c-0.4-0.1-0.8-0.2-1.3-0.2c-2.5,0-4.2,1.8-4.2,4.7c0,3.1,1.9,4.4,3.8,4.4c0.8,0,1.6-0.2,2.3-0.7
			c0.4,0.4,0.9,0.7,1.6,0.7c0.5,0,1-0.1,1.4-0.3c0.3-0.1,0.7-0.4,0.7-1.1v-0.7C66.1,75,65.8,74.6,65.2,74.6z M65,76.4
			c0,0.1,0,0.1,0,0.1c-0.2,0.1-0.6,0.2-0.9,0.2c-0.6,0-0.8-0.3-0.9-0.6c-0.1-0.2-0.2-0.3-0.4-0.3c0,0-0.1,0-0.1,0
			c-0.1,0-0.3,0.1-0.4,0.1c-0.5,0.5-1.3,0.8-2,0.8c-1.6,0-2.7-1.3-2.7-3.3c0-2.2,1.1-3.6,3-3.6c0.6,0,1.1,0.2,1.5,0.5
			c0.2,0.1,0.4,0.2,0.6,0.1c0.2-0.1,0.3-0.3,0.3-0.5l0-3.3l1-0.1v7.7c0,0.5,0,0.8,0.1,1.1c0.1,0.2,0.2,0.4,0.5,0.4
			c0.1,0,0.2,0,0.3,0l0.1,0V76.4z"/>
		<path class="st1" d="M62.6,70.9c-0.5-0.2-1-0.2-1.7-0.2c-0.6,0-1.2,0.2-1.6,0.5c0,0-0.1,0.1-0.1,0.1c-0.3,0.5-0.5,1.2-0.5,2
			c0,1.7,0.9,2.6,2.4,2.6c0.6,0,1.1-0.2,1.6-0.3c0.2-0.1,0.4-0.3,0.4-0.5v-3.6C63,71.2,62.9,71,62.6,70.9z M61.9,74.6
			c-0.3,0.1-0.6,0.1-0.8,0.1c-0.6,0-1.3-0.2-1.3-1.5c0-0.6,0.1-1,0.3-1.3c0.2-0.1,0.5-0.2,0.9-0.2s0.7,0,0.9,0.1V74.6z"/>
		<path class="st1" d="M71.4,66c-3.1,0-5,2.2-5,5.9c0,3.7,1.9,5.9,5,5.9c3.1,0,5-2.2,5-5.9C76.3,68.2,74.5,66,71.4,66z M71.4,76.7
			c-3.4,0-3.9-3-3.9-4.8c0-1.8,0.5-4.8,3.9-4.8c3.4,0,3.9,3,3.9,4.8C75.2,73.7,74.7,76.7,71.4,76.7z"/>
		<path class="st1" d="M71.4,67.9c-1,0-2.8,0.5-2.8,4c0,3.5,1.7,4,2.8,4c1,0,2.8-0.5,2.8-4C74.1,68.6,72.6,67.9,71.4,67.9z
			 M71.4,74.8c-0.4,0-1.7,0-1.7-2.9c0-2.9,1.3-2.9,1.7-2.9c0.5,0,1.6,0,1.6,2.9C73,74.8,71.8,74.8,71.4,74.8z"/>
	</g>
</g>
</svg>
