<?xml version="1.0" encoding="utf-8"?>
<!-- Generator: Adobe Illustrator 25.4.1, SVG Export Plug-In . SVG Version: 6.00 Build 0)  -->
<svg version="1.1" id="Capa_1" xmlns="http://www.w3.org/2000/svg" xmlns:xlink="http://www.w3.org/1999/xlink" x="0px" y="0px"
	 viewBox="0 0 102.9 102.8" style="enable-background:new 0 0 102.9 102.8;" xml:space="preserve">
<style type="text/css">
	.st0{fill:#009CDE;}
</style>
<g>
	<g>
		<path class="st0" d="M51.4,102.8C23.1,102.8,0,79.7,0,51.4S23.1,0,51.4,0s51.4,23.1,51.4,51.4S79.8,102.8,51.4,102.8z M51.4,1.5
			C23.9,1.5,1.5,23.9,1.5,51.4s22.4,49.9,49.9,49.9s49.9-22.4,49.9-49.9S79,1.5,51.4,1.5z"/>
	</g>
	<g>
		<path class="st0" d="M46.7,49.2c0.1,0.3,0.4,0.5,0.7,0.5c0,0,0.1,0,0.1,0c0.3,0,0.5-0.1,0.7-0.3l3.6-4.5c0.2-0.2,0.2-0.6,0.1-0.9
			c-0.1-0.3-0.4-0.5-0.7-0.5l-5.6-0.9c-0.3,0-0.6,0.1-0.8,0.3c-0.2,0.2-0.2,0.6-0.1,0.9l0.9,2.2c-1.2,1.3-1.8,3-1.8,4.9
			c0,2.1,0.9,4.1,2.4,5.5c0.2,0.2,0.4,0.2,0.6,0.2c0.2,0,0.5-0.1,0.6-0.3c0.3-0.4,0.3-0.9-0.1-1.2c-1.2-1.1-1.8-2.6-1.8-4.2
			c0-1.1,0.3-2.1,0.8-3L46.7,49.2z M49.5,45l-1.7,2.1l-1-2.6L49.5,45z"/>
		<path class="st0" d="M52,58.3l5.7,0.1c0,0,0,0,0,0c0.3,0,0.6-0.2,0.7-0.4c0.2-0.3,0.2-0.6,0-0.9l-1.2-2.1c0.8-1.2,1.2-2.6,1.2-4
			c0-1.5-0.4-2.9-1.3-4.1c-0.3-0.4-0.8-0.5-1.2-0.2c-0.4,0.3-0.5,0.8-0.2,1.2c0.6,0.9,1,2,1,3.2c0,0.8-0.2,1.5-0.5,2.2L55.6,52
			c-0.2-0.3-0.4-0.4-0.7-0.4c0,0,0,0,0,0c-0.3,0-0.6,0.2-0.7,0.4L51.2,57c-0.2,0.3-0.2,0.6,0,0.9C51.4,58.1,51.7,58.3,52,58.3z
			 M54.9,54.2l1.3,2.4l-2.7,0L54.9,54.2z"/>
		<path class="st0" d="M71.8,50.5c0,0.5,0.4,0.8,0.9,0.8c0,0,0,0,0,0c0.5,0,0.9-0.4,0.8-0.9c-0.1-7.8-4.2-14.9-10.9-19
			c-0.4-0.2-0.9-0.1-1.2,0.3c-0.2,0.4-0.1,0.9,0.3,1.2C67.8,36.7,71.6,43.3,71.8,50.5z"/>
		<path class="st0" d="M29.7,54.7c0,0,0.1,0,0.1,0c0.5-0.1,0.8-0.5,0.7-1c-0.1-0.9-0.2-1.9-0.2-2.8c0-7.6,4.1-14.6,10.7-18.3
			c0.4-0.2,0.6-0.8,0.3-1.2c-0.2-0.4-0.8-0.6-1.2-0.3c-7.2,4-11.6,11.6-11.6,19.8c0,1,0.1,2,0.2,3C28.9,54.4,29.3,54.7,29.7,54.7z"
			/>
		<path class="st0" d="M44.3,36.4c0.3,0.4,0.8,0.4,1.2,0.1c0.4-0.3,0.4-0.8,0.1-1.2c-1-1.3-1.5-2.8-1.5-4.4c0-3.9,3.1-7,7-7
			c3.8,0,7,3.1,7,7c0,3.9-3.1,7-7,7c-1.2,0-2.4-0.3-3.4-0.9c-0.4-0.2-0.9-0.1-1.2,0.3c-0.2,0.4-0.1,0.9,0.3,1.2
			c1.3,0.8,2.8,1.1,4.3,1.1c4.8,0,8.7-3.9,8.7-8.7c0-4.8-3.9-8.7-8.7-8.7c-4.8,0-8.7,3.9-8.7,8.7C42.4,32.9,43.1,34.8,44.3,36.4z"/>
		<path class="st0" d="M79,67c0.5,0,0.9-0.4,0.9-0.9v-13c0-0.5-0.4-0.9-0.9-0.9H62.9c-0.5,0-0.9,0.4-0.9,0.9v16.4
			c0,0.5,0.4,0.9,0.9,0.9H79c0.5,0,0.9-0.4,0.9-0.9c0-0.5-0.4-0.9-0.9-0.9H63.8V54h14.4v12.1C78.1,66.6,78.5,67,79,67z"/>
		<path class="st0" d="M60.2,69.6c-2.9,1.4-5.9,2.1-9.1,2.1c-3.4,0-6.8-0.9-9.8-2.5c-0.4-0.2-0.9-0.1-1.2,0.3
			c-0.2,0.4-0.1,0.9,0.3,1.2c3.2,1.8,6.9,2.7,10.6,2.7c3.5,0,6.8-0.8,9.9-2.3c0.4-0.2,0.6-0.7,0.4-1.2
			C61.1,69.6,60.6,69.4,60.2,69.6z"/>
		<path class="st0" d="M27.3,67.1h-1.9l7.4-13l7.4,13h-9.9c-0.5,0-0.9,0.4-0.9,0.9c0,0.5,0.4,0.9,0.9,0.9h11.4
			c0.3,0,0.6-0.2,0.7-0.4c0.2-0.3,0.2-0.6,0-0.9L33.6,52c-0.3-0.5-1.2-0.5-1.5,0l-8.9,15.6c-0.2,0.3-0.2,0.6,0,0.9
			c0.2,0.3,0.4,0.4,0.7,0.4h3.4c0.5,0,0.9-0.4,0.9-0.9C28.2,67.5,27.8,67.1,27.3,67.1z"/>
		<path class="st0" d="M32.7,28.7H36v2c0,0.3,0.2,0.6,0.4,0.7c0.1,0.1,0.3,0.1,0.4,0.1s0.3,0,0.4-0.1l4.9-2.9
			c0.3-0.2,0.4-0.4,0.4-0.7c0-0.3-0.2-0.6-0.4-0.7l-4.9-2.9c-0.3-0.2-0.6-0.2-0.9,0C36.1,24.4,36,24.7,36,25v2h-3.2
			c-0.5,0-0.9,0.4-0.9,0.9C31.9,28.4,32.3,28.7,32.7,28.7z M37.7,26.5l2.4,1.4l-2.4,1.4V26.5z"/>
		<path class="st0" d="M75.1,44.6c0.2,0.3,0.4,0.4,0.7,0.4c0.3,0,0.6-0.2,0.7-0.4l2.9-5c0.2-0.3,0.2-0.6,0-0.9
			c-0.2-0.3-0.4-0.4-0.7-0.4h-2v-3.3c0-0.5-0.4-0.9-0.9-0.9c-0.5,0-0.9,0.4-0.9,0.9v3.3h-2c-0.3,0-0.6,0.2-0.7,0.4
			c-0.2,0.3-0.2,0.6,0,0.9L75.1,44.6z M77.2,40.1l-1.4,2.4l-1.4-2.4H77.2z"/>
		<path class="st0" d="M33.5,70.2c-0.3-0.5-1.2-0.5-1.5,0l-2.9,5c-0.2,0.3-0.2,0.6,0,0.9c0.2,0.3,0.4,0.4,0.7,0.4h2v3.3
			c0,0.5,0.4,0.9,0.9,0.9c0.5,0,0.9-0.4,0.9-0.9v-3.3h2c0.3,0,0.6-0.2,0.7-0.4c0.2-0.3,0.2-0.6,0-0.9L33.5,70.2z M31.4,74.8l1.4-2.4
			l1.4,2.4H31.4z"/>
	</g>
</g>
</svg>
