<?xml version="1.0" encoding="utf-8"?>
<!-- Generator: Adobe Illustrator 25.4.1, SVG Export Plug-In . SVG Version: 6.00 Build 0)  -->
<svg version="1.1" id="Capa_1" xmlns="http://www.w3.org/2000/svg" xmlns:xlink="http://www.w3.org/1999/xlink" x="0px" y="0px"
	 viewBox="0 0 102.9 102.8" style="enable-background:new 0 0 102.9 102.8;" xml:space="preserve">
<style type="text/css">
	.st0{fill:#009CDE;}
</style>
<g>
	<g>
		<path class="st0" d="M51.4,102.8C23.1,102.8,0,79.7,0,51.4S23.1,0,51.4,0c28.4,0,51.4,23.1,51.4,51.4S79.8,102.8,51.4,102.8z
			 M51.4,1.5C23.9,1.5,1.5,23.9,1.5,51.4s22.4,49.9,49.9,49.9c27.5,0,49.9-22.4,49.9-49.9S79,1.5,51.4,1.5z"/>
	</g>
	<g>
		<path class="st0" d="M50.5,67.2c2.9-2.6,2.5-5.7,1.8-7c-0.2-0.4-0.7-0.6-1.2-0.4c-0.4,0.2-0.6,0.7-0.4,1.2c0,0,1.2,2.5-1.5,4.9
			c-3.2,2.9-3.8,5.5-1.8,8.1c0.2,0.2,0.4,0.3,0.7,0.3c0.2,0,0.4-0.1,0.5-0.2c0.4-0.3,0.5-0.8,0.2-1.2C48,71.7,47.3,70.1,50.5,67.2z"
			/>
		<path class="st0" d="M45.9,50c0.4-0.2,0.6-0.8,0.3-1.2c-1.8-3.4-1.8-7.4,0-10.8l9.9-18.5L66.1,38c3,5.5,0.9,12.4-4.6,15.4
			c-3.8,2.1-8.4,1.8-12-0.8c-0.4-0.3-0.9-0.2-1.2,0.2c-0.3,0.4-0.2,0.9,0.2,1.2c2.3,1.6,4.9,2.5,7.6,2.5c2.1,0,4.2-0.5,6.2-1.6
			c6.3-3.4,8.7-11.4,5.3-17.8L56.9,17.3c-0.2-0.3-0.4-0.5-0.8-0.5c-0.3,0-0.6,0.2-0.8,0.5L44.7,37.2c-2.1,3.9-2.1,8.6,0,12.5
			C44.9,50.1,45.5,50.2,45.9,50z"/>
		<path class="st0" d="M37.2,74.4c0.2,0,0.4-0.1,0.6-0.2c0.3-0.3,0.3-0.9,0-1.2c-1.1-1.1-1.6-2.3-1.5-3.5c0.1-1.8,1.5-3.7,4-5.8
			c2.4-1.9,3.7-3.9,3.9-5.7c0.1-1.7-0.7-2.6-0.8-2.7c-0.3-0.4-0.8-0.4-1.2-0.1c-0.4,0.3-0.4,0.8-0.1,1.2c0,0,0.4,0.6,0.3,1.5
			c-0.1,0.9-0.7,2.5-3.2,4.5c-3,2.4-4.5,4.7-4.7,7c-0.1,1.7,0.6,3.3,2,4.8C36.8,74.3,37,74.4,37.2,74.4z"/>
		<path class="st0" d="M32.1,77.8c0.6,0.3,2.8,1.8,4.6,3.2c0.3,0.2,0.8,0.2,1.1-0.1l3.5-3.2h3.1l4.2,3.2c0.3,0.2,0.8,0.2,1.1,0
			l4-3.4c0.4-0.3,0.4-0.8,0.1-1.2C53.5,76,53,76,52.6,76.3l-3.5,3l-3.9-2.9c-0.1-0.1-0.3-0.2-0.5-0.2c0,0,0,0,0,0h-3.7
			c0,0,0,0-0.1,0c0,0,0,0,0,0h0c-0.1,0-0.2,0-0.3,0.1c0,0,0,0,0,0c-0.1,0-0.2,0.1-0.2,0.1c0,0,0,0,0,0c0,0,0,0,0,0c0,0,0,0,0,0
			l-3.2,2.9c-4.2-3.1-4.7-3.1-5-3.1h-11c-0.5,0-0.9,0.4-0.9,0.9v8.1c0,0.5,0.4,0.9,0.9,0.9H29c0.5,0,0.9-0.4,0.9-0.9
			c0-0.5-0.4-0.9-0.9-0.9h-6.9v-6.4H32.1z"/>
		<path class="st0" d="M81.6,76.1H57.2c-0.5,0-0.9,0.4-0.9,0.9c0,0.5,0.4,0.9,0.9,0.9h23.6v6.4H34.4c-0.5,0-0.9,0.4-0.9,0.9
			c0,0.5,0.4,0.9,0.9,0.9h47.2c0.5,0,0.9-0.4,0.9-0.9v-8.1C82.5,76.5,82.1,76.1,81.6,76.1z"/>
		<path class="st0" d="M63.8,42c0.1,0,0.2,0,0.3-0.1c0.4-0.2,0.6-0.7,0.4-1.1l-6-13.8c-0.2-0.4-0.7-0.6-1.1-0.4
			c-0.4,0.2-0.6,0.7-0.4,1.1l6,13.8C63.1,41.8,63.4,42,63.8,42z"/>
	</g>
</g>
</svg>
