<?xml version="1.0" encoding="utf-8"?>
<!-- Generator: Adobe Illustrator 25.4.1, SVG Export Plug-In . SVG Version: 6.00 Build 0)  -->
<svg version="1.1" id="Capa_1" xmlns="http://www.w3.org/2000/svg" xmlns:xlink="http://www.w3.org/1999/xlink" x="0px" y="0px"
	 viewBox="0 0 102.9 102.8" style="enable-background:new 0 0 102.9 102.8;" xml:space="preserve">
<style type="text/css">
	.st0{fill:#009CDE;}
	.st1{fill:#FFFFFF;}
</style>
<g>
	<ellipse class="st0" cx="51.4" cy="51.4" rx="51.4" ry="51.4"/>
	<ellipse class="st1" cx="51.4" cy="51.4" rx="49.9" ry="49.9"/>
	<g>
		<path class="st0" d="M49.8,34.4c0.1,0,0.2,0,0.3,0c1.5,0,2.8-1.5,3.2-3.6c0,0.6,0.1,1.1,0.3,1.6c0.2,0.5,0.7,0.7,1.1,0.5
			c0,0,0,0,0,0c0,0,0,0.1-0.1,0.1c-0.2,0.4,0,0.9,0.4,1.1c0.2,0.1,0.3,0.1,0.5,0.1c0.8,0.1,1.7-0.2,2.4-0.9c0.6-0.6,1-1.6,1.2-2.6
			c0.4-2.2-0.6-4.2-2.2-4.5c-1.6-0.3-3.2,1.2-3.6,3.5c0,0,0,0.1,0,0.1c0-1-0.3-1.9-0.8-2.6c-0.4-0.6-1-0.9-1.6-1
			c-0.9-0.1-1.8,0.3-2.5,1.1c-0.3,0.4-0.2,0.9,0.1,1.2c0.4,0.3,0.9,0.2,1.2-0.1c0.3-0.4,0.6-0.5,0.9-0.5c0.2,0,0.4,0.2,0.5,0.3
			c0.4,0.5,0.5,1.3,0.4,2.1c-0.2,1.3-1,2.2-1.5,2.1c-0.6-0.1-1.1-1.2-0.9-2.5c0.1-0.5-0.3-0.9-0.7-1c-0.5-0.1-0.9,0.3-1,0.7
			C47.1,32.3,48.2,34.2,49.8,34.4z M55.1,30.2c0.2-1.3,1-2.2,1.6-2.1c0.6,0.1,1,1.2,0.8,2.5c-0.1,0.7-0.4,1.3-0.8,1.7
			c-0.1,0.1-0.5,0.5-0.8,0.4c0,0-0.1,0-0.1,0c-0.1,0-0.2-0.1-0.3-0.1c-0.1,0-0.2,0-0.3,0.1c0.1-0.2,0.2-0.5,0.1-0.8
			C55,31.4,55,30.8,55.1,30.2z"/>
		<path class="st0" d="M73.7,29.9c-2-1.7-5.4-0.7-7.9,2.2c-1.3,1.6-2.1,3.5-2.2,5.1c0,0.5,0.4,0.9,0.8,0.9c0.5,0,0.9-0.4,0.9-0.8
			c0-1.3,0.7-2.8,1.8-4.1c1.8-2.1,4.3-3.1,5.5-2.1c0.7,0.6,0.7,1.7,0.6,2.3c-0.2,1.2-0.8,2.4-1.7,3.5c-0.9,1.1-2.1,1.9-3.2,2.3
			c-0.6,0.2-1.6,0.4-2.3-0.2c-0.4-0.3-0.9-0.3-1.2,0.1c-0.3,0.3-0.3,0.8,0,1.1c-1.2-1.1-2.8-2.1-4.8-3.1c-0.4-0.2-0.9,0-1.1,0.4
			c-0.2,0.4,0,0.9,0.4,1.2c3.1,1.5,6.6,3.9,6.1,6.8c-0.6,3.3-5.9,6.2-9.2,6.5c-1,0.1-2.2,0.2-3.4,0.2c-5.4,0.3-12.2,0.7-14.8,4.5
			c-2.9,4.3-3.9,6.5-3.6,7.8c0.1,0.5,0.4,0.9,0.8,1.1c0.1,0.1,0.3,0.1,0.4,0.1c0.3,0,0.6-0.2,0.8-0.5c0.2-0.4,0.1-0.9-0.3-1.2
			C36,64.1,36,63,39.4,57.9c2.1-3.1,8.4-3.5,13.5-3.8c1.3-0.1,2.4-0.1,3.5-0.3c3.3-0.3,9.9-3.4,10.7-8c0.3-1.9-0.4-3.7-2.1-5.4
			c1,0.8,2.4,1,3.9,0.5c1.4-0.5,2.8-1.4,4-2.8c1.1-1.3,1.9-2.9,2.1-4.4C75.1,32.1,74.7,30.7,73.7,29.9z"/>
		<path class="st0" d="M30.2,65.4c0.2,0,0.5-0.1,0.7-0.3c2.2-2.6,4.2-6.3,5.2-8.9l0.1-0.2c1.8-4.7,1.9-5,2.8-10.6
			c0.4-2.5,2-5.9,5.4-7.8c3.5-2,8.1-1.8,13.3,0.4c0.4,0.2,0.9,0,1.1-0.5c0.2-0.4,0-0.9-0.5-1.1c-5.6-2.4-9.8-2.1-12.7-1.2
			c0.8-0.6,1.5-1.7,1.7-3.1c0,0,0,0,0,0c0.3-2.2-0.7-4.2-2.4-4.4c-1.6-0.2-3.2,1.3-3.5,3.6c-0.3,2.2,0.7,4.2,2.4,4.4
			c0.2,0,0.4,0,0.5,0c-0.3,0.1-0.6,0.3-0.8,0.4c-3.9,2.2-5.8,6.1-6.3,9c-0.9,5.4-0.9,5.6-2.7,10.2l-0.1,0.2c-0.9,2.5-2.8,6-4.9,8.4
			c-0.3,0.4-0.3,0.9,0.1,1.2C29.8,65.4,30,65.4,30.2,65.4z M44,34c-0.6-0.1-1.1-1.1-0.9-2.5c0.2-1.3,0.9-2.1,1.5-2.1c0,0,0,0,0.1,0
			c0.6,0.1,1.1,1.1,0.9,2.5C45.4,33.2,44.6,34.1,44,34z"/>
		<path class="st0" d="M60.1,34.2c0.5,0,0.8-0.4,0.8-0.9c0-0.7,0.2-1.7,0.5-2.6c0.8-1.9,2-2.7,2.4-2.5c0.2,0.1,0.3,0.4,0.4,1
			c0,0.7-0.2,1.7-0.5,2.6c-0.8,1.9-2,2.7-2.4,2.5c-0.4-0.2-0.9,0-1.1,0.5c-0.2,0.4,0,0.9,0.4,1.1c0.3,0.1,0.5,0.2,0.8,0.2
			c1.4,0,3-1.4,3.9-3.6C65.8,31.2,66,30,66,29c-0.1-1.2-0.6-2.1-1.4-2.5C63,25.9,61,27.4,59.9,30c-0.5,1.1-0.7,2.3-0.7,3.4
			C59.2,33.8,59.7,34.2,60.1,34.2z"/>
		<path class="st0" d="M41.6,62.9c-0.5-0.1-0.9,0.2-1,0.6c-0.1,0.5,0.2,0.9,0.6,1c2.8,0.7,2.7,3.2,2.6,4.2c-0.4,2.9-2.9,5.9-6.5,5.9
			c-0.1,0-0.1,0-0.2,0c-3.5-0.1-5.3-1.7-6.3-3c-1.1-1.5-1.5-3.4-1-4.9c0.1-0.5-0.1-0.9-0.6-1.1c-0.5-0.1-0.9,0.1-1.1,0.6
			c-0.6,2-0.1,4.5,1.3,6.4c1.6,2.3,4.3,3.6,7.6,3.7c0.1,0,0.2,0,0.2,0c4.5,0,7.7-3.7,8.2-7.4C45.9,66,44.4,63.6,41.6,62.9z"/>
		<path class="st0" d="M58.5,45.5L58,45.2c-0.1-0.1-0.1-0.1-0.3-0.2c-0.1-0.1-0.3-0.2-0.5-0.3c-0.2-0.1-0.4-0.2-0.7-0.3l-0.1,0
			c-0.1,0-0.2-0.1-0.4-0.1l-0.4-0.1c-0.3-0.1-0.7-0.1-1.1-0.2c-0.5,0-0.9,0.3-0.9,0.8c0,0.5,0.3,0.9,0.8,0.9c0.3,0,0.7,0.1,0.9,0.1
			l0.3,0.1c0,0,0.1,0,0.1,0c0.1,0,0.1,0,0.2,0.1l0.1,0c0.2,0.1,0.4,0.1,0.5,0.2c0.1,0.1,0.2,0.1,0.3,0.2c0,0,0.1,0,0.1,0.1
			c0,0,0.1,0,0.1,0.1c0,0,0.1,0.1,0.1,0.1l0.4,0.3c1.4,1,3.3,0.9,4.5-0.3c0.7-0.7,1.1-1.5,1.1-2.5c0-1-0.3-1.9-1-2.6l-0.2-0.2
			c-0.1-0.1-0.3-0.4-0.6-0.5c-0.3-0.2-0.6-0.5-1-0.8c-0.4-0.3-0.9-0.6-1.4-0.8c-0.2-0.1-0.5-0.2-0.7-0.3l-0.8-0.3
			c-0.5-0.2-1.1-0.3-1.8-0.5c-1.2-0.3-2.5-0.4-3.8-0.4c0,0,0,0,0,0c-0.6,0-1.2,0-1.9,0.1c-0.5,0-1.1,0.1-1.9,0.3
			c-0.5,0.1-1.1,0.2-1.7,0.4c-0.5,0.1-1,0.3-1.6,0.6c-0.5,0.2-1,0.5-1.4,0.7l-0.1,0.1c-0.2,0.1-0.4,0.2-0.5,0.3l-0.2,0.2
			c0,0-0.1,0-0.1,0l-0.2,0.1c0,0-0.1,0-0.1,0c-0.2,0.2-0.4,0.3-0.5,0.4l-0.3,0.3c-0.1,0.1-0.2,0.2-0.3,0.3c-1.6,1.8-1.5,4.6,0.3,6.3
			c0.8,0.8,1.9,1.1,3,1.1c1.2,0,2.4-0.5,3.2-1.4c0,0,0,0,0-0.1l0.2-0.2c0,0,0,0,0.1-0.1c0,0,0,0,0,0l0.1-0.1
			c0.1-0.1,0.3-0.2,0.4-0.3c0.2-0.1,0.4-0.2,0.7-0.4c0.2-0.1,0.5-0.2,0.9-0.3c0.3-0.1,0.7-0.2,1.1-0.3c0.2,0,0.4-0.1,0.6-0.1
			c0.5-0.1,0.8-0.5,0.7-1c-0.1-0.5-0.5-0.8-1-0.7c-0.2,0-0.4,0.1-0.6,0.1c-0.4,0.1-0.8,0.2-1.2,0.3c-0.4,0.1-0.8,0.3-1.1,0.4
			c-0.3,0.1-0.6,0.3-0.9,0.4c-0.3,0.2-0.5,0.3-0.7,0.5c0,0-0.1,0.1-0.2,0.2c0,0,0,0-0.1,0c-0.1,0.1-0.1,0.1-0.2,0.2l-0.2,0.2
			c-1,1.1-2.7,1.2-3.8,0.2c-1.1-1-1.2-2.7-0.2-3.8c0.1-0.1,0.1-0.1,0.2-0.2l0.3-0.3c0.1-0.1,0.3-0.2,0.5-0.4l0.4-0.3
			c0.1-0.1,0.3-0.2,0.4-0.3l0.1,0c0.3-0.2,0.7-0.4,1.2-0.6c0.5-0.2,1-0.4,1.4-0.5c0.5-0.2,1.1-0.3,1.6-0.4c0.7-0.1,1.2-0.2,1.7-0.2
			c0.6-0.1,1.1-0.1,1.7-0.1c0,0,0.1,0,0.1,0c1.2,0,2.3,0.1,3.4,0.3c0.6,0.1,1.1,0.3,1.6,0.4l0.7,0.3c0.2,0.1,0.4,0.2,0.7,0.3
			c0.4,0.2,0.8,0.4,1.1,0.7c0.4,0.3,0.6,0.5,0.9,0.7c0.2,0.2,0.3,0.3,0.5,0.5l0.2,0.2c0.3,0.4,0.5,0.8,0.5,1.3
			c0,0.5-0.2,0.9-0.6,1.3C60.1,46,59.2,46,58.5,45.5z"/>
		<path class="st0" d="M52.8,61.1c0.3,0,0.6,0,0.8,0.1c0,0.2,0,0.5,0,0.8c0,0.6,0.4,1,1,1h0.7c0.6,0,0.9-0.3,1.1-0.7
			c0.2-0.4,0.3-0.9,0.3-1.2c0-1.8-1.6-3-4-3c-3.1,0-5.1,2.2-5.1,5.7c0,3.6,2,5.8,5.2,5.8c1.2,0,2.5-0.3,3.4-0.9
			c0.5-0.3,0.6-0.8,0.4-1.4l-0.4-0.7c-0.3-0.5-0.8-0.7-1.3-0.5c-0.6,0.2-1.2,0.4-1.8,0.4c-0.6,0-2.2,0-2.2-2.8
			c0-0.9,0.3-1.8,0.6-2.2C51.8,61.2,52.4,61.1,52.8,61.1z M53.1,67.5c0.7,0,1.5-0.2,2.2-0.4c0,0,0,0,0,0l0.4,0.7
			c-0.8,0.5-1.8,0.7-2.9,0.7c-2.6,0-4.1-1.7-4.1-4.7c0-2.9,1.5-4.7,4.1-4.7c1.9,0,3,0.7,3,2c0,0.3-0.1,0.6-0.2,0.9c0,0,0,0-0.1,0
			l-0.7,0c0-0.6-0.1-1-0.1-1.2c0-0.2-0.2-0.3-0.4-0.4c-0.4-0.1-0.9-0.2-1.4-0.2c-0.3,0-1.2,0-1.9,0.4c-0.1,0-0.1,0.1-0.2,0.1
			c-0.4,0.5-0.8,1.6-0.8,3C49.8,66.1,51,67.5,53.1,67.5z"/>
		<path class="st0" d="M62.4,60.1c-0.6,0-1.4,0.2-1.8,0.5c-0.1,0-0.1,0.1-0.2,0.2c-0.5,0.8-0.9,1.9-0.9,3c0,2.4,1.1,3.7,3.2,3.7
			c0.8,0,1.4-0.3,1.8-0.5c0.1,0,0.1-0.1,0.2-0.1c0.5-0.7,0.9-1.9,0.9-3.1C65.6,61.3,64.5,60.1,62.4,60.1z M64,66.1
			c-0.3,0.1-0.7,0.3-1.2,0.3c-0.9,0-2.1-0.3-2.1-2.7c0-1,0.3-1.8,0.6-2.4c0.3-0.2,0.8-0.3,1.2-0.3c1.5,0,2.1,0.8,2.1,2.7
			C64.6,64.8,64.3,65.7,64,66.1z"/>
		<path class="st0" d="M62.6,58c-3.2,0-5.2,2.2-5.2,5.7c0,3.6,2,5.8,5.2,5.8c3.2,0,5.2-2.2,5.2-5.8C67.8,60.2,65.8,58,62.6,58z
			 M62.6,68.5c-2.6,0-4.1-1.7-4.1-4.8c0-3,1.5-4.6,4.1-4.6c2.6,0,4.2,1.7,4.2,4.7C66.7,66.7,65.2,68.5,62.6,68.5z"/>
		<path class="st0" d="M74,66.9h-1.3c1-1,1.9-2.1,1.9-3.4c0-1.2-0.8-2.5-3-2.5c-1.8,0-3,0.9-3,2.4c0,0.3,0.1,0.6,0.2,0.9
			c0.1,0.2,0.3,0.6,0.9,0.6h0.5c0.5,0,0.9-0.4,0.9-0.9c0-0.2,0-0.3,0-0.5c0.1,0,0.2,0,0.3,0c0.6,0,0.6,0.2,0.6,0.3
			c0,0.5-0.8,1.3-1.6,2.1c-0.2,0.2-0.4,0.4-0.6,0.6l-1,1c-0.3,0.3-0.4,0.7-0.3,1l0.1,0.3c0.1,0.4,0.5,0.7,0.9,0.7H74
			c0.5,0,0.9-0.4,0.9-0.9v-0.7C74.9,67.3,74.5,66.9,74,66.9z M73.8,68.3h-4.1l-0.1-0.2l1-1c0.2-0.2,0.4-0.4,0.6-0.6
			c1.1-1.1,1.9-1.9,1.9-2.9c0-0.7-0.4-1.4-1.7-1.4c-0.4,0-0.7,0.1-1,0.1c-0.2,0.1-0.3,0.2-0.3,0.4c0,0.3-0.1,0.6-0.1,0.9l-0.3,0
			c0-0.1-0.1-0.3-0.1-0.4c0-1.2,1.4-1.3,2-1.3c1.3,0,1.9,0.5,1.9,1.4c0,1-1,2.1-1.9,3l-0.6,0.6c-0.1,0.1-0.2,0.4-0.1,0.6
			c0.1,0.2,0.3,0.3,0.5,0.3h2.4V68.3z M74,68.9v-0.5c0,0,0,0,0,0L74,68.9z"/>
	</g>
</g>
</svg>
