<?xml version="1.0" encoding="utf-8"?>
<!-- Generator: Adobe Illustrator 25.4.1, SVG Export Plug-In . SVG Version: 6.00 Build 0)  -->
<svg version="1.1" id="Capa_1" xmlns="http://www.w3.org/2000/svg" xmlns:xlink="http://www.w3.org/1999/xlink" x="0px" y="0px"
	 viewBox="0 0 102.9 102.8" style="enable-background:new 0 0 102.9 102.8;" xml:space="preserve">
<style type="text/css">
	.st0{fill:#009CDE;}
</style>
<g>
	<g>
		<path class="st0" d="M51.4,102.8C23.1,102.8,0,79.7,0,51.4S23.1,0,51.4,0c28.4,0,51.4,23.1,51.4,51.4S79.8,102.8,51.4,102.8z
			 M51.4,1.5C23.9,1.5,1.5,23.9,1.5,51.4s22.4,49.9,49.9,49.9c27.5,0,49.9-22.4,49.9-49.9S79,1.5,51.4,1.5z"/>
	</g>
	<g>
		<path class="st0" d="M69.5,67.1c-3.7,2.3-8.2,4.3-13.2,6l-8.8-7.8c-0.3-0.3-0.7-0.3-1-0.1c-0.3,0.2-0.5,0.6-0.4,1l1.8,6.7
			c-4-1-15.4-4.9-17.3-15.8c-0.1-0.5-0.5-0.8-1-0.7c-0.5,0.1-0.8,0.5-0.7,1C31.5,71.8,48.8,74.9,49,74.9c0.3,0,0.6-0.1,0.8-0.3
			c0.2-0.2,0.3-0.5,0.2-0.8l-1.5-5.3l7.1,6.2c0.2,0.1,0.4,0.2,0.6,0.2c0.1,0,0.2,0,0.3,0c5.3-1.8,10-3.9,14-6.3
			c0.4-0.2,0.5-0.8,0.3-1.2C70.4,67,69.9,66.9,69.5,67.1z"/>
		<path class="st0" d="M84.8,28.3c-0.2-0.3-0.5-0.5-0.9-0.5c-0.4,0-0.7,0.3-0.8,0.6c-6,22-30.4,21.8-36.6,21.4l2.6-3.8
			c0.2-0.3,0.2-0.7,0-1c-0.2-0.3-0.6-0.4-1-0.3L41,47.1l2.7-3.3c0.2-0.3,0.3-0.7,0.1-1c-0.2-0.3-0.6-0.5-0.9-0.4
			c-3.4,0.7-6.3,1.8-8.7,3.2c-0.4,0.2-0.5,0.8-0.3,1.2c0.2,0.4,0.8,0.5,1.2,0.3c1.6-1,3.5-1.8,5.6-2.4l-3,3.6
			c-0.2,0.3-0.3,0.7-0.1,1c0.2,0.3,0.6,0.5,1,0.3l7.6-2.5l-2,2.9c-0.2,0.2-0.2,0.6-0.1,0.8c0.1,0.3,0.4,0.5,0.7,0.5
			c0.3,0,30.7,3.8,39.2-20.1c1.9,5.8,5,21.5-11.4,33.6c-0.4,0.3-0.5,0.8-0.2,1.2c0.2,0.2,0.4,0.4,0.7,0.4c0.2,0,0.4-0.1,0.5-0.2
			C94.8,50.7,84.9,28.5,84.8,28.3z"/>
		<path class="st0" d="M50.4,61.2C50.4,61.2,50.4,61.2,50.4,61.2c0.5,0,0.9-0.4,0.9-0.8c0-0.5-0.3-0.9-0.8-0.9
			c-8-0.4-14.8-3.6-20.1-7.3c0.1-0.3,0.5-1.3,1.7-2.5c0.3-0.3,0.3-0.9,0-1.2c-0.3-0.3-0.9-0.3-1.2,0c-1,1.1-1.6,2.1-1.8,2.7
			c-7.4-5.5-11.6-11.8-11.7-12c-0.2-0.4-0.7-0.5-1.1-0.3c-0.4,0.2-0.6,0.7-0.4,1.1c0.1,0.4,3.5,8.8,11.3,14c0.4,0.3,0.9,0.2,1.2-0.2
			c0.2-0.3,0.2-0.8-0.1-1.1C33.8,57,41.4,60.7,50.4,61.2z M24.6,49.9c1,0.9,2.1,1.7,3.2,2.6C26.6,51.7,25.5,50.8,24.6,49.9z"/>
		<path class="st0" d="M54,61.2C75.3,60.4,82.1,44,82.2,43.9c0.2-0.4,0-0.9-0.5-1.1c-0.4-0.2-0.9,0-1.1,0.5
			c-0.1,0.2-6.4,15.4-26.6,16.3c-0.5,0-0.8,0.4-0.8,0.9C53.2,60.8,53.5,61.2,54,61.2C54,61.2,54,61.2,54,61.2z"/>
	</g>
</g>
</svg>
