<?xml version="1.0" encoding="utf-8"?>
<!-- Generator: Adobe Illustrator 25.4.1, SVG Export Plug-In . SVG Version: 6.00 Build 0)  -->
<svg version="1.1" id="Capa_1" xmlns="http://www.w3.org/2000/svg" xmlns:xlink="http://www.w3.org/1999/xlink" x="0px" y="0px"
	 viewBox="0 0 102.9 102.8" style="enable-background:new 0 0 102.9 102.8;" xml:space="preserve">
<style type="text/css">
	.st0{fill:#009CDE;}
</style>
<g>
	<g>
		<path class="st0" d="M51.4,102.8C23.1,102.8,0,79.7,0,51.4S23.1,0,51.4,0s51.4,23.1,51.4,51.4S79.8,102.8,51.4,102.8z M51.4,1.5
			C23.9,1.5,1.5,23.9,1.5,51.4s22.4,49.9,49.9,49.9s49.9-22.4,49.9-49.9S79,1.5,51.4,1.5z"/>
	</g>
	<path class="st0" d="M59.8,72.3c-2.9,0-5.8-0.6-8.4-1.8c-2.6,1.1-5.4,1.8-8.4,1.8c-11.5,0-20.8-9.4-20.8-20.9
		c0-9.3,6.2-17.6,15.2-20.2c0.5-0.1,0.9,0.1,1.1,0.6c0.1,0.5-0.1,0.9-0.6,1.1c-8.2,2.3-13.9,9.9-13.9,18.5
		c0,10.6,8.6,19.2,19.1,19.2c2.2,0,4.4-0.4,6.3-1.1c-0.8-0.4-1.5-0.9-2.2-1.5c-0.4-0.3-0.4-0.8-0.2-1.2c0.3-0.4,0.8-0.5,1.2-0.2
		c1,0.8,2.1,1.4,3.2,2c5.1-2.5,8.9-7.2,10.2-12.9l-13,9.3c-0.4,0.3-0.9,0.2-1.2-0.2c-0.3-0.4-0.2-0.9,0.2-1.2l14.4-10.3
		c0.1-0.6,0.1-1.3,0.1-1.9c0-3-0.7-5.9-1.9-8.5l-17,12.2c-0.4,0.3-0.9,0.2-1.2-0.2c-0.3-0.4-0.2-0.9,0.2-1.2l17.2-12.3
		c-0.9-1.4-1.9-2.7-3.1-3.9c-0.3-0.3-0.4-0.9,0-1.2c0.3-0.3,0.9-0.4,1.2,0c4.2,4,6.4,9.4,6.4,15.1c0,0.7,0,1.3-0.1,1.9
		c0.2,0.3,0.1,0.7-0.1,0.9c-0.9,6.5-4.8,12.1-10.2,15.3c2,0.7,4.2,1.1,6.4,1.1c1.4,0,2.8-0.1,4.1-0.4c0.5-0.1,0.9,0.2,1,0.7
		c0.1,0.5-0.2,0.9-0.7,1C62.8,72.2,61.3,72.3,59.8,72.3z M67.5,70.8c-0.3,0-0.7-0.2-0.8-0.5c-0.2-0.4,0-0.9,0.5-1.1
		c7.2-3,11.8-10,11.8-17.8c0-10.6-8.6-19.2-19.1-19.2c-2.2,0-4.4,0.4-6.3,1.1c0.7,0.4,1.5,0.9,2.2,1.5c0.4,0.3,0.5,0.8,0.2,1.2
		c-0.3,0.4-0.8,0.5-1.2,0.2c-1-0.8-2.1-1.4-3.2-2c-5.3,2.6-9.2,7.6-10.4,13.6l12.8-9.2c0.4-0.3,0.9-0.2,1.2,0.2
		c0.3,0.4,0.2,0.9-0.2,1.2L40.8,50c0,0.4,0,0.9,0,1.4c0,3.1,0.7,6.1,2.1,8.8L60,47.8c0.4-0.3,0.9-0.2,1.2,0.2
		c0.3,0.4,0.2,0.9-0.2,1.2L43.7,61.6c0.8,1.3,1.8,2.5,2.9,3.6c0.3,0.3,0.4,0.9,0,1.2c-0.3,0.3-0.9,0.4-1.2,0
		c-4.1-4-6.4-9.4-6.4-15.1c0-7.7,4.2-14.5,10.4-18.1c-2-0.7-4.2-1.1-6.4-1.1c-0.7,0-1.3,0-2,0.1c-0.5,0-0.9-0.3-0.9-0.8
		c0-0.5,0.3-0.9,0.8-0.9c0.7-0.1,1.4-0.1,2.1-0.1c2.9,0,5.8,0.6,8.4,1.8c2.6-1.1,5.4-1.8,8.4-1.8c11.5,0,20.8,9.4,20.8,20.9
		c0,8.5-5,16.1-12.9,19.3C67.7,70.8,67.6,70.8,67.5,70.8z"/>
</g>
</svg>
