<?xml version="1.0" encoding="utf-8"?>
<!-- Generator: Adobe Illustrator 25.4.1, SVG Export Plug-In . SVG Version: 6.00 Build 0)  -->
<svg version="1.1" id="Capa_1" xmlns="http://www.w3.org/2000/svg" xmlns:xlink="http://www.w3.org/1999/xlink" x="0px" y="0px"
	 viewBox="0 0 102.9 102.8" style="enable-background:new 0 0 102.9 102.8;" xml:space="preserve">
<style type="text/css">
	.st0{fill:#009CDE;}
</style>
<g>
	<g>
		<path class="st0" d="M51.4,102.8C23.1,102.8,0,79.7,0,51.4S23.1,0,51.4,0s51.4,23.1,51.4,51.4S79.8,102.8,51.4,102.8z M51.4,1.5
			C23.9,1.5,1.5,23.9,1.5,51.4s22.4,49.9,49.9,49.9s49.9-22.4,49.9-49.9S79,1.5,51.4,1.5z"/>
	</g>
	<g>
		<path class="st0" d="M68,39.8c-0.4-0.2-0.9,0.1-1.1,0.5c-0.2,0.4,0.1,0.9,0.5,1.1c9.1,3.5,14.8,10.4,14.8,18c0,4.6-2.1,9-6,12.6
			c-0.4,0.3-0.4,0.9-0.1,1.2c0.2,0.2,0.4,0.3,0.6,0.3c0.2,0,0.4-0.1,0.6-0.2c4.2-3.9,6.6-8.9,6.6-13.9C83.9,51.1,77.8,43.6,68,39.8z
			"/>
		<path class="st0" d="M21.7,65.1l-1-8.8l7.7-3.8c0.4-0.2,0.6-0.7,0.4-1.2c-0.2-0.4-0.7-0.6-1.2-0.4L19.4,55
			c-0.3,0.2-0.5,0.5-0.5,0.9l1.1,10.3c0,0.2,0.2,0.5,0.4,0.6c0.2,0.1,0.5,0.2,0.7,0.1c0,0,4.4-1,9.2,4.7c0.2,0.2,0.4,0.3,0.7,0.3
			c0.2,0,0.4-0.1,0.6-0.2c0.4-0.3,0.4-0.9,0.1-1.2C27.5,65.6,23.5,65.1,21.7,65.1z"/>
		<path class="st0" d="M38,51.2c0-0.5-0.4-0.9-0.9-0.9H33c-0.8-0.4-5-2.5-5-5.7c0-2.7,2.1-3.7,2.9-3.9l5.7,2.6
			c0.3,0.2,0.7,0.3,1,0.1c2.6-1.5,5.4-2.6,8.5-3.3c2.1,2.5,5.3,4.1,8.9,4.1c6.4,0,11.7-5.3,11.7-11.8c0-6.5-5.2-11.8-11.7-11.8
			c-2.5,0-4.8,0.8-6.8,2.2c-0.4,0.3-0.5,0.8-0.2,1.2c0.3,0.4,0.8,0.5,1.2,0.2c1.7-1.2,3.7-1.9,5.8-1.9c5.5,0,10,4.5,10,10
			c0,5.5-4.5,10-10,10c-5.5,0-10-4.5-10-10c0-1.9,0.5-3.8,1.6-5.4c0.3-0.4,0.1-0.9-0.3-1.2c-0.4-0.3-0.9-0.1-1.2,0.3
			c-1.2,1.9-1.8,4.1-1.8,6.3c0,2.2,0.6,4.3,1.7,6.1c-2.8,0.7-5.5,1.8-7.9,3.1L31.3,39c-0.2-0.1-0.4-0.1-0.5-0.1
			c-1.5,0.4-4.5,2-4.5,5.7c0,4.6,5.9,7.2,6.2,7.3c0.1,0,0.2,0.1,0.3,0.1h4.4C37.6,52.1,38,51.7,38,51.2z"/>
		<path class="st0" d="M50.1,75.4c-0.5,0-0.9,0.4-0.9,0.9v4.2h-9.1v-2.9c0.1-0.4-0.1-0.9-0.4-1.1c-2-0.9-3.8-2.1-5.4-3.4
			c-0.4-0.3-0.9-0.2-1.2,0.1c-0.3,0.4-0.2,0.9,0.1,1.2c1.6,1.3,3.3,2.4,5.2,3.3v3.5c0,0.5,0.4,0.9,0.9,0.9h10.9
			c0.5,0,0.9-0.4,0.9-0.9v-5C50.9,75.7,50.6,75.4,50.1,75.4z"/>
		<path class="st0" d="M75,76.4c-0.5,0-0.9,0.4-0.9,0.9v3.1H65v-0.8c0-0.2,0.1-0.3,0-0.5c-0.1-0.5-0.6-0.7-1-0.6c0,0-0.1,0-0.1,0
			c-3,0.8-6.1,1.2-9.3,1.2c-0.5,0-1,0-1.6,0c-0.5,0-0.9,0.4-0.9,0.8c0,0.5,0.4,0.9,0.8,0.9c3.5,0.1,7-0.2,10.3-0.9v0.8
			c0,0.5,0.4,0.9,0.9,0.9H75c0.5,0,0.9-0.4,0.9-0.9v-4C75.9,76.8,75.5,76.4,75,76.4z"/>
		<path class="st0" d="M35.1,58.3c1.2,0,2.3-1,2.3-2.3c0-1.3-1-2.3-2.3-2.3c-1.2,0-2.3,1-2.3,2.3C32.8,57.3,33.9,58.3,35.1,58.3z
			 M35.1,55.5c0.3,0,0.5,0.2,0.5,0.5c0,0.3-0.2,0.5-0.5,0.5c-0.3,0-0.5-0.2-0.5-0.5C34.6,55.8,34.8,55.5,35.1,55.5z"/>
		<path class="st0" d="M63.5,43.2c-2.4,1.9-5.3,2.9-8.4,2.9c-3.4,0-6.7-1.3-9.2-3.6c-0.4-0.3-0.9-0.3-1.2,0.1
			c-0.3,0.4-0.3,0.9,0.1,1.2c2.8,2.6,6.5,4,10.3,4c3.5,0,6.7-1.1,9.5-3.3c0.4-0.3,0.4-0.8,0.1-1.2C64.4,43,63.8,42.9,63.5,43.2z"/>
		<path class="st0" d="M56.6,25c-0.3-0.3-0.7-0.4-1.1-0.3l-1.1,0.2c-0.7,0.1-1.2,0.7-1.2,1.4v0c-2,0.7-2.8,2.3-2.8,3.7
			c0,2.8,2.4,3.6,4,4.2c0.4,0.1,0.9,0.3,1.2,0.5c-0.1,0-0.3,0-0.7,0c-0.6,0-1.2-0.1-1.9-0.4c-0.7-0.3-1.4-0.1-1.8,0.6l-0.5,0.8
			c-0.4,0.7-0.2,1.5,0.5,1.9c0.5,0.3,1.2,0.6,1.9,0.8v0c0,0.8,0.6,1.4,1.4,1.4h1.1c0.8,0,1.4-0.6,1.4-1.4v-0.1
			c1.7-0.6,2.7-1.9,2.7-3.6c0-2.9-2.4-3.7-4-4.2c-0.4-0.1-1.1-0.4-1.3-0.5c0.1,0,0.4-0.1,0.8-0.1c0.6,0,1.2,0.1,1.9,0.3
			c0.8,0.2,1.4-0.1,1.7-0.8l0.3-0.8c0.3-0.7,0-1.4-0.6-1.8c-0.4-0.2-1-0.4-1.5-0.6V26C57,25.6,56.8,25.2,56.6,25z M57.5,28.1
			l-0.1,0.3c-0.8-0.2-1.5-0.3-2.1-0.3c-2.4,0-2.6,1.3-2.6,1.8c0,1.4,1.3,1.8,2.5,2.2c1.7,0.6,2.8,1.1,2.8,2.6c0,1.1-0.7,1.9-2,2.1
			c-0.4,0.1-0.7,0.4-0.7,0.9v0.5h-0.4v-0.4c0-0.4-0.3-0.8-0.8-0.9c-0.6-0.1-1.2-0.2-1.7-0.5l0.2-0.3c0.8,0.3,1.6,0.4,2.3,0.4
			c2.2,0,2.5-1.1,2.5-1.7c0-1.3-1.3-1.8-2.5-2.2c-1.7-0.6-2.8-1.1-2.8-2.6c0-0.7,0.3-1.9,2.1-2.2c0.4-0.1,0.7-0.4,0.7-0.9v-0.4
			l0.4-0.1v0.4c0,0.4,0.3,0.8,0.8,0.9C56.6,27.8,57.1,27.9,57.5,28.1z"/>
		<path class="st0" d="M79.5,62.8c0.4-1.3,0.7-2.7,0.7-4.1c0-4.7-2.6-9.3-7.3-12.4c-0.4-0.3-0.9-0.2-1.2,0.2
			c-0.3,0.4-0.2,0.9,0.2,1.2c4.1,2.9,6.5,6.9,6.5,11c0,1.2-0.2,2.4-0.6,3.5c-0.1,0.5,0.1,0.9,0.5,1.1c0.1,0,0.2,0,0.3,0
			C79,63.4,79.3,63.2,79.5,62.8z"/>
		<path class="st0" d="M78.4,63.6c-0.2-0.1-0.7-0.4-1.3,0.4c0,0,0,0.1-0.1,0.1c-0.4,0.8,0.1,1.2,0.3,1.3c0.1,0,0.2,0.1,0.4,0.1
			c0.3,0,0.6-0.1,0.8-0.6C79.1,64.1,78.6,63.7,78.4,63.6z"/>
	</g>
</g>
</svg>
