<?xml version="1.0" encoding="utf-8"?>
<!-- Generator: Adobe Illustrator 25.4.1, SVG Export Plug-In . SVG Version: 6.00 Build 0)  -->
<svg version="1.1" id="Capa_1" xmlns="http://www.w3.org/2000/svg" xmlns:xlink="http://www.w3.org/1999/xlink" x="0px" y="0px"
	 viewBox="0 0 102.9 102.8" style="enable-background:new 0 0 102.9 102.8;" xml:space="preserve">
<style type="text/css">
	.st0{fill:#009CDE;}
</style>
<g>
	<g>
		<path class="st0" d="M51.4,102.8C23.1,102.8,0,79.7,0,51.4S23.1,0,51.4,0s51.4,23.1,51.4,51.4S79.8,102.8,51.4,102.8z M51.4,1.5
			C23.9,1.5,1.5,23.9,1.5,51.4s22.4,49.9,49.9,49.9s49.9-22.4,49.9-49.9S79,1.5,51.4,1.5z"/>
	</g>
	<g>
		<path class="st0" d="M77.4,27.4c0-0.1-0.1-0.2-0.1-0.3c-0.1-0.1-0.1-0.2-0.2-0.3c-0.1-0.1-0.2-0.1-0.3-0.1c-0.1,0-0.2,0-0.3,0
			c-0.1,0-0.2,0.1-0.3,0.1c-0.1,0.1-0.2,0.1-0.3,0.2c0,0,0,0.1-0.1,0.1c-1.4,2.6-3.2,5-5.2,7v-4c0,0,0,0,0,0c0,0,0,0,0,0v0
			c0-0.1,0-0.2-0.1-0.3c0-0.1-0.1-0.2-0.2-0.3c0,0-0.1-0.1-0.1-0.1c0,0,0,0,0,0c-0.1,0-0.1-0.1-0.2-0.1c0,0,0,0,0,0
			c-0.1,0-0.1,0-0.2,0h0c0,0,0,0,0,0c0,0-0.1,0-0.1,0c-0.1,0-0.2,0-0.3,0.1c-0.1,0-0.2,0.1-0.3,0.2c0,0,0,0,0,0
			c-4.4,5.1-10.8,8-17.5,8c-6.7,0-13.1-2.9-17.5-8c0,0,0,0,0,0c-0.1-0.1-0.2-0.2-0.3-0.2c-0.1,0-0.2-0.1-0.3-0.1c0,0-0.1,0-0.1,0
			c0,0,0,0,0,0c-0.1,0-0.1,0-0.2,0.1c0,0,0,0,0,0c-0.1,0-0.1,0.1-0.2,0.1c0,0,0,0,0,0c0,0-0.1,0-0.1,0.1c-0.1,0.1-0.2,0.2-0.2,0.3
			c0,0.1-0.1,0.2-0.1,0.3c0,0,0,0,0,0v4c-2.1-2-3.8-4.3-5.2-7c0,0,0-0.1-0.1-0.1c-0.1-0.1-0.2-0.2-0.3-0.3c-0.1-0.1-0.2-0.1-0.3-0.1
			c-0.1,0-0.2,0-0.3,0c-0.1,0-0.2,0.1-0.3,0.1c-0.1,0.1-0.2,0.2-0.2,0.3c-0.1,0.1-0.1,0.2-0.1,0.3c0,0,0,0.1,0,0.1v19.1
			c0,0.5,0.4,0.9,0.9,0.9h10v27.8c0,0.5,0.4,0.9,0.9,0.9h28.4c0.5,0,0.9-0.4,0.9-0.9V47.5h10c0.5,0,0.9-0.4,0.9-0.9V27.5
			C77.4,27.5,77.4,27.4,77.4,27.4z M34.1,32.2c4.6,4.5,10.9,7,17.3,7c6.5,0,12.7-2.5,17.3-7v3.3c-4.8,3.9-10.9,6.2-17.3,6.2
			c-6.4,0-12.5-2.2-17.3-6.2V32.2z M64.8,74.4H38.1V47.5h26.7V74.4z M75.6,45.8H27.2V30.6c5.4,8,14.4,12.9,24.2,12.9
			c9.8,0,18.8-4.9,24.2-12.9V45.8z"/>
	</g>
</g>
</svg>
