<?xml version="1.0" encoding="utf-8"?>
<!-- Generator: Adobe Illustrator 25.4.1, SVG Export Plug-In . SVG Version: 6.00 Build 0)  -->
<svg version="1.1" id="Capa_1" xmlns="http://www.w3.org/2000/svg" xmlns:xlink="http://www.w3.org/1999/xlink" x="0px" y="0px"
	 viewBox="0 0 1443.7 518.8" style="enable-background:new 0 0 1443.7 518.8;" xml:space="preserve">
<style type="text/css">
	.st0{fill:#009CDE;}
	.st1{fill:#002554;}
	.st2{fill:none;stroke:#FFFFFF;stroke-width:0.9725;}
	.st3{fill:#FFFFFF;}
	.st4{fill:#DEDEDF;}
	.st5{fill:#A3A2A4;}
	.st6{fill:#6B696A;}
	.st7{fill:#36312F;}
</style>
<g>
	<path class="st0" d="M0,518.8h1443.7c-39.4-60.4-89.2-115.4-149-162.4c-168.1-132-379-171.8-572.1-127l0-0.2
		c-193.5,45.2-452.1,12.2-597.9-102.3C65.9,80.8,30.7,50.1,0,0V518.8z"/>
	<path class="st1" d="M0,518.8h1438c-31.7-37.3-68-71.8-108.7-102.5c-170.6-128.7-382.2-164.5-574.4-116l0-0.2
		c-192.6,48.9-451.7,20.8-599.8-90.9C79.4,151.9,42.1,119,2.8,39.2l0,0c-0.9-1.8-1.8-3.6-2.8-5.4V518.8z"/>
	<g>
		<g>
			<rect x="774.9" y="449.9" class="st2" width="105" height="15.2"/>
			<rect x="774.9" y="362.4" class="st2" width="105" height="85.2"/>
			<path class="st3" d="M794,432.6l-0.1,0.1c-0.2,0.3-0.7,1-1.8,1c-1.2,0-2.1-0.9-2.1-2.1c0-1.3,1.1-2.1,2.1-2.1
				c0.3,0,1.3,0.1,1.8,1.1l0.1,0.1h1.4l-0.1-0.4c-0.6-1.5-2-2-3.1-2c-1.9,0-3.4,1.5-3.4,3.3c0,1.8,1.5,3.3,3.4,3.3
				c1.4,0,2.4-0.7,3.1-2l0.2-0.4H794z"/>
			<path class="st3" d="M798.4,428.4c-0.5,0-1,0.1-1.4,0.5v-0.3h-1.3v6.3h1.3v-3.6c0-0.4,0.1-0.7,0.3-1c0.2-0.3,0.6-0.4,1.1-0.5
				l0.2,0v-1.3L798.4,428.4z"/>
			<path class="st3" d="M804,428.5v0.6c-0.7-0.6-1.6-0.7-2-0.7c-2.1,0-3.4,1.7-3.4,3.3c0,1.8,1.5,3.3,3.4,3.3c0.4,0,1.3-0.1,2-0.7
				v0.6h1.3v-6.3H804z M802,429.6c1.1,0,2.1,0.9,2.1,2.1c0,1.2-0.9,2.1-2.1,2.1c-1.2,0-2.1-0.9-2.1-2.1
				C799.9,430.3,800.9,429.6,802,429.6z"/>
			<path class="st3" d="M811,426.5v2.6c-0.8-0.7-1.7-0.7-2-0.7c-2.1,0-3.4,1.7-3.4,3.3c0,1.8,1.5,3.3,3.4,3.3c0.3,0,1.2-0.1,2-0.7
				v0.6h1.3v-8.3H811z M809,429.6c1.1,0,2,0.9,2,2.1c0,1.2-0.9,2.1-2,2.1c-1.2,0-2.1-0.9-2.1-2.1C807,430.3,808,429.6,809,429.6z"/>
			<rect x="813.1" y="426.5" class="st3" width="1.3" height="8.3"/>
			<polygon class="st3" points="824.5,428.5 824.5,426.5 823.3,426.5 823.3,428.5 822.1,428.5 822.1,429.7 823.3,429.7 823.3,434.8 
				824.5,434.8 824.5,429.7 825.9,429.7 825.9,428.5 			"/>
			<path class="st3" d="M828.9,428.4c-1.6,0-3.3,1.3-3.3,3.3c0,1.8,1.5,3.2,3.3,3.2c1.8,0,3.3-1.5,3.3-3.3
				C832.2,429.9,830.7,428.4,828.9,428.4z M828.9,433.8c-1.1,0-2-0.9-2-2.1c0-1.5,1.2-2.1,2-2.1c0.8,0,2,0.7,2,2.1
				C830.9,433,829.9,433.8,828.9,433.8z"/>
			<path class="st3" d="M838.2,432.6l-0.1,0.1c-0.1,0.2-0.6,1-1.8,1c-1.2,0-2.1-0.9-2.1-2.1c0-1.3,1.1-2.1,2.1-2.1
				c0.8,0,1.4,0.4,1.8,1.1l0.1,0.1h1.4l-0.1-0.4c-0.6-1.5-2-2-3.1-2c-1.9,0-3.4,1.5-3.4,3.3c0,1.8,1.5,3.3,3.4,3.3
				c1.4,0,2.4-0.7,3.1-2l0.2-0.4H838.2z"/>
			<path class="st3" d="M842.6,428.4c-0.5,0-1,0.1-1.4,0.5v-0.3H840v6.3h1.3v-3.6c0-0.4,0.1-0.7,0.3-1c0.2-0.3,0.6-0.4,1.1-0.5
				l0.2,0v-1.3L842.6,428.4z"/>
			<path class="st3" d="M848.1,428.5v0.6c-0.7-0.6-1.6-0.7-2-0.7c-2.1,0-3.4,1.7-3.4,3.3c0,1.9,1.4,3.3,3.4,3.3c0.4,0,1.3-0.1,2-0.7
				v0.6h1.3v-6.3H848.1z M846.2,429.6c1.1,0,2,0.9,2,2.1c0,1.2-0.9,2.1-2,2.1c-1.2,0-2.1-0.9-2.1-2.1
				C844.1,430.3,845.1,429.6,846.2,429.6z"/>
			<path class="st3" d="M855.2,426.5v2.6c-0.8-0.7-1.7-0.7-2-0.7c-2.1,0-3.4,1.7-3.4,3.3c0,1.8,1.5,3.3,3.4,3.3c0.3,0,1.2-0.1,2-0.7
				v0.6h1.3v-8.3H855.2z M853.2,429.6c1.1,0,2,0.9,2,2.1c0,1.2-0.9,2.1-2,2.1c-1.2,0-2.1-0.9-2.1-2.1
				C851.1,430.3,852.2,429.6,853.2,429.6z"/>
			<rect x="857.3" y="426.5" class="st3" width="1.3" height="8.3"/>
			<path class="st3" d="M819.7,433c-0.3,0.4-0.8,0.7-1.5,0.7c-0.9,0-1.7-0.7-1.9-1.6h5.2V432c0,0,0-0.1,0-0.1c0,0,0-0.1,0-0.1
				c0-0.6-0.2-1.2-0.5-1.7c-0.4-0.8-1.4-1.6-2.8-1.6c-1.8,0-3.3,1.5-3.3,3.3c0,1.8,1.5,3.3,3.3,3.3c1.3,0,2.4-0.8,3-1.9H819.7z
				 M818.2,429.6c0.7,0,1.6,0.5,1.9,1.4h-3.8C816.6,430,817.4,429.6,818.2,429.6z"/>
			<path class="st3" d="M864,432.9c-0.3,0.4-0.8,0.8-1.6,0.8c-0.9,0-1.7-0.7-1.9-1.6h5.2V432c0,0,0-0.1,0-0.1c0,0,0-0.1,0-0.1
				c0-0.6-0.2-1.2-0.5-1.7c-0.4-0.8-1.4-1.6-2.8-1.6c-1.8,0-3.3,1.5-3.3,3.3c0,1.8,1.5,3.3,3.3,3.3c1.3,0,2.5-0.8,3-2L864,432.9z
				 M862.4,429.6c0.7,0,1.6,0.5,1.9,1.4h-3.8C860.8,430,861.6,429.6,862.4,429.6z"/>
			<path class="st3" d="M812.6,401.4c-0.6,0.3-1.1,0.5-1.8,0.5c-1.7,0-2.6-1.2-2.6-2.4c0-1.2,1-2.4,2.7-2.4c0.6,0,1.2,0.1,1.6,0.4v1
				c-0.5-0.3-1-0.5-1.5-0.5c-1,0-1.6,0.6-1.6,1.4c0,0.8,0.7,1.4,1.6,1.4c0.6,0,1-0.2,1.6-0.5V401.4z"/>
			<path class="st3" d="M817.1,401.8h-3.3v-4.6h3.3v0.8h-2.1v1h2v0.8h-2v1.1h2.2V401.8z"/>
			<path class="st3" d="M820.1,397.2c0.9,0,1.5,0.6,1.5,1.3c0,0.5-0.3,0.9-0.8,1.1c0.5,0.2,0.6,0.8,1.2,2.2h-1.2
				c-0.5-1-0.7-1.9-1.3-1.9h-0.3v1.9h-1.1v-4.6H820.1z M819.3,399.1h0.6c0.3,0,0.6-0.1,0.6-0.5c0-0.3-0.2-0.5-0.6-0.5h-0.6V399.1z"
				/>
			<path class="st3" d="M826.5,398.1h-1.6v3.8h-1.1v-3.8h-1.6v-0.8h4.4V398.1z"/>
			<path class="st3" d="M828.6,401.8h-1.1v-4.6h1.1V401.8z"/>
			<path class="st3" d="M832.9,398.1h-2v1h2v0.8h-2v1.9h-1.1v-4.6h3.1V398.1z"/>
			<path class="st3" d="M835.2,401.8h-1.1v-4.6h1.1V401.8z"/>
			<path class="st3" d="M839.8,401.8h-3.3v-4.6h3.3v0.8h-2.1v1h2v0.8h-2v1.1h2.2V401.8z"/>
			<path class="st3" d="M842.8,397.2c1.6,0,2.5,1,2.5,2.3c0,1.3-0.8,2.3-2.6,2.3h-1.9v-4.6H842.8z M842,401h0.7
				c1.1,0,1.5-0.8,1.5-1.5c0-0.8-0.4-1.5-1.5-1.5H842V401z"/>
			<path class="st3" d="M810.5,375.8c-13,0-23.6,10.6-23.6,23.6c0,13,10.6,23.6,23.6,23.6c4.9,0,9.5-1.5,13.2-4.1
				c-3.3-3.4-5.7-7.6-7-12.2c-1.7,1.4-3.8,2.3-6.2,2.3c-5.3,0-9.6-4.3-9.6-9.6c0-5.3,4.3-9.6,9.6-9.6c3.6,0,6.7,2,8.4,4.9h14.7
				C831.4,384,821.9,375.8,810.5,375.8z"/>
			<path class="st3" d="M843.7,375.8c-4.9,0-9.4,1.5-13.2,4.1c3.3,3.4,5.7,7.6,7,12.2c1.7-1.4,3.8-2.3,6.2-2.3
				c5.3,0,9.6,4.3,9.6,9.6c0,5.3-4.3,9.6-9.6,9.6c-3.6,0-6.7-2-8.4-5h-14.7c2.2,10.8,11.7,18.9,23.1,18.9c13,0,23.6-10.6,23.6-23.6
				C867.2,386.4,856.6,375.8,843.7,375.8z"/>
			<g>
				<path class="st3" d="M813.9,452.6c1.1,0,2.3,0.3,3.4,0.8v1.6c-1.1-0.6-2.2-0.9-3.3-0.9c-0.7,0-1.3,0.1-1.8,0.4
					c-0.5,0.3-0.9,0.7-1.2,1.2c-0.3,0.5-0.4,1.1-0.4,1.7c0,0.9,0.3,1.7,0.9,2.3c0.6,0.6,1.5,0.9,2.5,0.9c0.3,0,0.6,0,0.8-0.1
					c0.3,0,0.6-0.1,0.9-0.3v-1.5h-1.5v-1.4h3.3v3.8c-0.5,0.3-1,0.6-1.6,0.7c-0.6,0.2-1.3,0.3-2,0.3c-1,0-1.9-0.2-2.7-0.6
					c-0.8-0.4-1.4-1-1.9-1.7c-0.4-0.7-0.7-1.5-0.7-2.4c0-0.9,0.2-1.7,0.7-2.5c0.4-0.7,1.1-1.3,1.9-1.7
					C812.1,452.8,812.9,452.6,813.9,452.6z"/>
				<path class="st3" d="M824.2,452.6c1,0,1.8,0.2,2.6,0.6c0.8,0.4,1.4,1,1.8,1.7c0.5,0.7,0.7,1.6,0.7,2.5c0,0.9-0.2,1.7-0.7,2.4
					c-0.4,0.7-1.1,1.3-1.8,1.7c-0.8,0.4-1.7,0.6-2.6,0.6c-1,0-1.8-0.2-2.6-0.6c-0.8-0.4-1.4-1-1.8-1.7c-0.4-0.7-0.7-1.5-0.7-2.4
					c0-0.9,0.2-1.7,0.7-2.4c0.4-0.7,1-1.3,1.8-1.7C822.3,452.8,823.2,452.6,824.2,452.6z M820.9,457.4c0,0.6,0.1,1.2,0.4,1.7
					c0.3,0.5,0.7,0.9,1.2,1.1c0.5,0.3,1.1,0.4,1.7,0.4c1,0,1.7-0.3,2.4-0.9c0.6-0.6,0.9-1.4,0.9-2.3c0-0.6-0.1-1.2-0.4-1.7
					c-0.3-0.5-0.7-0.9-1.2-1.1c-0.5-0.3-1.1-0.4-1.7-0.4c-0.6,0-1.2,0.1-1.7,0.4c-0.5,0.3-0.9,0.7-1.2,1.1
					C821.1,456.2,820.9,456.8,820.9,457.4z"/>
				<path class="st3" d="M832.8,452.7v7.9h4.5v1.4H831v-9.3H832.8z"/>
				<path class="st3" d="M842.4,452.7c1,0,1.8,0.2,2.6,0.6c0.8,0.4,1.3,0.9,1.8,1.7c0.4,0.7,0.6,1.5,0.6,2.4c0,0.9-0.2,1.7-0.6,2.4
					c-0.4,0.7-1,1.2-1.8,1.6c-0.8,0.4-1.7,0.6-2.7,0.6h-3.8v-9.3H842.4z M842.2,460.6c1,0,1.8-0.3,2.4-0.9c0.6-0.6,0.9-1.4,0.9-2.3
					c0-1-0.3-1.8-0.9-2.4c-0.6-0.6-1.4-0.9-2.4-0.9h-1.8v6.5H842.2z"/>
			</g>
			<g>
				<path class="st3" d="M862.4,375.9v0.6H861v3.4h-0.8v-3.4h-1.4v-0.6H862.4z"/>
				<path class="st3" d="M863.7,375.9l1.3,1.6l1.3-1.6h0.7v4h-0.8v-2.8h0l-1.2,1.4h-0.1l-1.2-1.4h0v2.8H863v-4H863.7z"/>
			</g>
		</g>
		<g>
			<g>
				<path class="st3" d="M936,377.2c3.4,0,6.7,0,10.1,0c0,1.2,0,2.4,0,3.5c-0.4,0-0.8,0-1.2,0c0-0.8,0-1.6,0-2.5c-1.9,0-3.7,0-5.6,0
					v4.1c0.9,0,1.8,0,2.7,0c0-0.5,0-1.1,0-1.6c0.4,0,0.8,0,1.2,0c0,1.5,0,3.1,0,4.6c-0.4,0-0.8,0-1.2,0c0-0.6,0-1.2,0-1.8
					c-0.9,0-1.8,0-2.7,0v4.2c1.9,0,3.7,0,5.6,0c0-0.8,0-1.6,0-2.5c0.4,0,0.8,0,1.2,0c0,1.2,0,2.5,0,3.7H936c0-0.4,0-0.8,0-1.2
					c0.5,0,1.1,0,1.6,0c0-3.2,0-6.3,0-9.5c-0.5,0-1.1,0-1.6,0V377.2z"/>
				<path class="st3" d="M948,377.2c1.3,0,2.6,0,4,0c1.2,1.8,2.2,3.8,3.4,5.6c0.8,1.4,1.4,2.8,2.3,4.1c0.1-2.9,0-5.7,0-8.6
					c-0.6,0-1.2,0-1.8,0v-1.1c1.6,0,3.3,0,4.9,0v1.1c-0.6,0-1.1,0-1.6,0c0,3.6,0,7.2,0,10.8c-0.8,0-1.5,0-2.3,0
					c-1.1-1.7-1.8-3.7-3-5.3c-0.9-1.5-1.7-3.2-2.7-4.7c-0.1,2.9,0,5.9,0,8.8c0.6,0,1.2,0,1.8,0c0,0.4,0,0.8,0,1.2
					c-1.6,0-3.3,0-4.9,0c0-0.4,0-0.8,0-1.2c0.5,0,1.1,0,1.6,0v-9.5c-0.5,0-1.1,0-1.6,0C948,377.9,948,377.6,948,377.2"/>
				<path class="st3" d="M967.1,378.4c-1.3,0.1-2.5,1.2-3,2.4c-0.4,1.5-0.5,3-0.1,4.5c0.4,0.8,0.8,1.7,1.6,2.2
					c1.8,1.3,4.6,0.7,5.9-1c1-1.5,0.8-3.4,0.6-5.1c-0.2-0.9-0.8-1.7-1.5-2.3C969.6,378.3,968.3,378.2,967.1,378.4 M966.6,377.2
					c1.7-0.2,3.5-0.1,5,0.9c1.2,0.7,1.9,2.1,2.2,3.4c0.1,1.3,0.2,2.7-0.1,4.1c-0.3,1.2-1.1,2.3-2,3c-1.8,1.2-4.1,1-6.2,0.5
					c-1-0.2-1.8-0.9-2.4-1.7c-1.2-1.7-1.3-3.8-1-5.8C962.5,379.3,964.3,377.4,966.6,377.2"/>
				<path class="st3" d="M978.5,378.3v4.4c1.1,0,2.1,0,3.2-0.1c0.8-0.2,1.6-0.9,1.7-1.7c0.1-0.6-0.1-1.4-0.6-1.8
					C981.5,378.2,979.9,378.4,978.5,378.3 M975.2,377.2c2.4,0,4.8,0,7.2,0.2c0.9,0.2,1.8,0.8,2.3,1.6c0.4,1.2,0.5,2.7-0.5,3.6
					c-0.4,0.6-1.2,0.6-1.8,0.8c0.3,0.2,0.7,0.4,1,0.6c0.8,1,1,2.2,1.4,3.4c0.2,0.7,1.1,0.4,1.6,0.6c0,0.4,0,0.8,0,1.1
					c-0.9,0-1.7,0-2.6,0c-0.4-1.7-0.8-3.5-2.1-4.8c-1.1-0.3-2.1-0.3-3.2-0.4c0,1.3,0,2.6,0,4c0.6,0,1.2,0,1.8,0c0,0.4,0,0.8,0,1.2
					c-1.7,0-3.4,0-5.1,0c0-0.4,0-0.8,0-1.2c0.6,0,1.1,0,1.6,0c0-3.2,0-6.3,0-9.5c-0.5,0-1.1,0-1.6,0V377.2z"/>
				<path class="st3" d="M928.7,378.9c-0.7,1.7-1.4,3.4-2.1,5.1c1.4,0,2.8,0,4.2,0C930,382.4,929.4,380.6,928.7,378.9 M927.8,377.2
					c0.6,0,1.2,0,1.7,0c1.1,2.9,2.6,5.8,3.7,8.7c0.3,0.6,0.4,1.3,0.9,1.8c0.3,0,1,0.1,1.3,0.2c0,0.4,0,0.8,0,1.1c-1.6,0-3.3,0-4.9,0
					c0-0.4,0-0.8,0-1.2c0.6,0,1.2,0,1.7,0c-0.3-0.9-0.5-1.8-0.9-2.6c-1.8,0-3.6,0-5.4,0c-0.4,0.8-0.6,1.7-1,2.6c0.5,0,1.1,0,1.6,0
					c0,0.4,0,0.8,0,1.2c-1.6,0-3.2,0-4.8,0c0-0.4,0-0.8,0-1.2c0.4,0,1.1,0,1.5,0c1-2.5,2.2-5,3.3-7.5
					C926.9,379.3,927.4,378.2,927.8,377.2"/>
				<path class="st3" d="M921.8,399.6c4.9,0,9.8,0,14.7,0c0.5,0.7,11.2,14.6,15.1,19.3c5.6,7.3,11.4,14.4,17,21.6
					c2.7,3.2,5.2,6.6,7.9,9.9c0.1-13.9,0-27.8,0-41.6c-10.6,0-21.3,0-31.9,0c2.1-3.1,4.2-6.1,6.3-9.1c11.9,0,23.8,0,35.7,0v65
					c-4.1,0-8.2,0.1-12.3,0c-0.4,0-0.6-0.5-0.8-0.8c-2.8-3.8-5.9-7.4-8.8-11.1c-1.5-1.8-6-7.4-4.5-5.6c12.8,16.7,8.7,11.6-10.5-13.3
					c-3.5-4.3-6.9-8.7-10.3-13c-2.5-3-4.8-6.2-7.4-9.2c-0.1,14.7,0,29.3,0,44c11.2,0,22.4,0,33.5,0c-0.8,0.8-1.4,1.8-2.1,2.6
					c-1.9,2-3.5,4.2-5.2,6.4c-12.1,0-24.3,0-36.4,0C921.8,442.9,921.8,421.3,921.8,399.6"/>
			</g>
		</g>
		<g>
			<g>
				<path class="st3" d="M280.9,458.7c0,2.2-1,2.5-2,2.5c-1,0-2-0.3-2-2.5v-6.2h-1.6v6.2c0,2.9,1.2,4.3,3.6,4.3
					c2.4,0,3.6-1.5,3.6-4.3v-6.2h-1.6V458.7z"/>
				<polygon class="st3" points="290.9,459.4 286.7,452.5 285.1,452.5 285.1,462.8 286.7,462.8 286.7,455.9 291,462.8 292.6,462.8 
					292.6,452.5 290.9,452.5 				"/>
				<polygon class="st3" points="296.6,458.4 300.5,458.4 300.5,456.6 296.6,456.6 296.6,454.3 300.6,454.3 300.6,452.5 
					295.1,452.5 295.1,462.8 300.7,462.8 300.7,461 296.6,461 				"/>
				<polygon class="st3" points="309.6,452.5 307.7,452.5 305.6,456 303.5,452.5 301.5,452.5 304.5,457.6 301.4,462.8 303.4,462.8 
					305.6,459.2 307.7,462.8 309.7,462.8 306.6,457.5 				"/>
				<path class="st3" d="M315.2,452.5h-4.2v10.3h1.6v-4h2.3c1.8,0,2.9-1.2,2.9-3.2C317.7,453.3,316.4,452.5,315.2,452.5z
					 M312.5,454.3h2.5c0.5,0,1,0.1,1,1.4c0,1.2-0.4,1.4-1.1,1.4h-2.4V454.3z"/>
				<path class="st3" d="M323.6,452.3c-2.2,0-4.4,1.7-4.4,5.4c0,3.7,2.2,5.4,4.4,5.4c2.2,0,4.4-1.7,4.4-5.4
					C328,453.9,325.8,452.3,323.6,452.3z M323.6,461.3c-1.3,0-2.7-0.9-2.7-3.6c0-2.6,1.4-3.6,2.7-3.6c1.3,0,2.7,0.9,2.7,3.6
					C326.3,460.3,324.9,461.3,323.6,461.3z"/>
				<path class="st3" d="M333,456.7c-1.8-0.4-2.2-0.7-2.2-1.5c0-0.9,0.8-1.2,1.5-1.2c1.2,0,1.7,0.5,1.8,1.6l0,0.4h1.6l0-0.5
					c0-2.1-1.3-3.4-3.4-3.4c-1.6,0-3.2,0.8-3.2,3.2c0,2.1,1.5,2.6,2.9,3l0.2,0.1c1.4,0.3,2,0.5,2,1.4c0,0.6-0.2,1.4-1.7,1.4
					c-1.2,0-1.9-0.3-2-2l0-0.4h-1.6l0,0.5c0.1,2.5,1.3,3.8,3.6,3.8c2.1,0,3.4-1.3,3.4-3.4C335.9,457.4,334.1,457,333,456.7z"/>
				<polygon class="st3" points="339,458.4 342.9,458.4 342.9,456.6 339,456.6 339,454.3 343,454.3 343,452.5 337.5,452.5 
					337.5,462.8 343.1,462.8 343.1,461 339,461 				"/>
				<path class="st3" d="M348.9,452.5h-4.3v10.3h4.4c2.3,0,3.8-2,3.8-5.2C352.8,454.4,351.4,452.5,348.9,452.5z M346.4,454.3h2.5
					c0.9,0,2.1,0.3,2.1,3.4c0,2.2-0.7,3.4-2.1,3.4h-2.5V454.3z"/>
				<path class="st3" d="M361.7,456.7c-1.8-0.4-2.2-0.7-2.2-1.5c0-0.9,0.8-1.2,1.5-1.2c1.2,0,1.7,0.5,1.8,1.6l0,0.4h1.6l0-0.5
					c0-2.1-1.3-3.4-3.4-3.4c-1.6,0-3.2,0.8-3.2,3.2c0,2.1,1.5,2.6,2.9,3l0.3,0.1c1.4,0.3,2,0.5,2,1.4c0,0.6-0.2,1.4-1.7,1.4
					c-1.2,0-1.9-0.3-2-2l0-0.4h-1.6l0,0.5c0.1,2.5,1.3,3.8,3.6,3.8c2.1,0,3.4-1.3,3.4-3.4C364.6,457.4,362.7,457,361.7,456.7z"/>
				<polygon class="st3" points="367.2,458.4 371.9,458.4 371.9,456.6 367.2,456.6 367.2,454.3 372.1,454.3 372.1,452.5 
					365.6,452.5 365.6,462.8 372.2,462.8 372.2,461 367.2,461 				"/>
				<path class="st3" d="M380.2,460.4c0-1.1-0.1-2.1-0.8-2.6c0.6-0.5,0.9-1.3,0.9-2.3c0-1.9-1-3-2.7-3h-4.3v10.3h1.6v-4.1h2.4
					c0.8,0,1.2,0.1,1.3,1.8c0,1.5,0.1,1.9,0.3,2.2l0.1,0.2l2,0l-0.6-0.7C380.3,462,380.3,461.5,380.2,460.4z M378.7,455.5
					c0,1.2-0.5,1.4-1.1,1.4H375v-2.6h2.7C378.2,454.3,378.7,454.4,378.7,455.5z"/>
				<polygon class="st3" points="385.1,459.8 382.5,452.5 380.5,452.5 384.3,462.8 385.9,462.8 389.7,452.5 387.8,452.5 				"/>
				<rect x="390.4" y="452.5" class="st3" width="2" height="10.3"/>
				<path class="st3" d="M399.8,458.7c-0.3,2.3-1.5,2.5-2.3,2.5c-2.3,0-2.5-2.5-2.5-3.6c0-2.3,0.9-3.6,2.5-3.6c0.6,0,2,0.2,2.3,2.1
					l0,0.4h1.6l0-0.5c-0.2-2.8-2.2-3.8-3.9-3.8c-2.9,0-4.2,2.8-4.2,5.4c0,3.3,1.6,5.4,4.2,5.4c2.1,0,3.7-1.7,3.9-4.2l0-0.5h-1.6
					L399.8,458.7z"/>
				<polygon class="st3" points="403.8,458.4 408.5,458.4 408.5,456.6 403.8,456.6 403.8,454.3 408.7,454.3 408.7,452.5 
					402.2,452.5 402.2,462.8 408.7,462.8 408.7,461 403.8,461 				"/>
				<path class="st3" d="M418.5,452.3c-2.2,0-4.4,1.7-4.4,5.4c0,3.7,2.2,5.4,4.4,5.4c2.2,0,4.4-1.7,4.4-5.4
					C422.8,453.9,420.6,452.3,418.5,452.3z M418.5,461.3c-1.3,0-2.7-0.9-2.7-3.6c0-2.6,1.4-3.6,2.7-3.6c1.3,0,2.7,0.9,2.7,3.6
					C421.1,460.3,419.7,461.3,418.5,461.3z"/>
				<polygon class="st3" points="431,459.4 426.2,452.5 424.5,452.5 424.5,462.8 426.3,462.8 426.3,455.9 431.1,462.8 432.8,462.8 
					432.8,452.5 431,452.5 				"/>
				<polygon class="st3" points="436.6,452.5 435,452.5 435,462.8 441.2,462.8 441.2,461 436.6,461 				"/>
				<polygon class="st3" points="445.6,452.5 443.2,456.5 440.8,452.5 438.8,452.5 442.3,458.5 442.3,462.8 444,462.8 444,458.5 
					447.6,452.5 				"/>
			</g>
			<g>
				<path class="st3" d="M360.3,335.6l-98.8,44l98.7,50.1l98.7-50.1L360.3,335.6z M271.4,379.9l88.9-39.6l88.7,39.6L360.2,425
					L271.4,379.9z"/>
				<g>
					<polygon class="st3" points="330,397.4 336.3,397.4 336.3,385.1 352.1,385.1 352.1,380 336.3,380 336.3,373.6 353,373.6 
						353,368.5 330,368.5 					"/>
					<polygon class="st3" points="381.6,368.5 373.7,389.7 365.8,368.8 365.7,368.5 358,368.5 358,397.4 363.4,397.4 363.2,375.5 
						371.3,397.4 375.9,397.4 384.1,375.5 383.9,397.4 389.2,397.4 389.2,368.5 					"/>
				</g>
			</g>
			<g>
				<g>
					<path class="st3" d="M318,447.3h0.4h3v-5.9h5c3.1,0,4.5-2.6,4.5-5.1c0-3.3-1.7-5.2-4.6-5.2H318v15.2V447.3z M321.4,434.3h4.3
						c1.2,0,1.9,0.7,1.9,2c0,1.5-0.5,2-2.1,2h-4.1V434.3z"/>
					<path class="st3" d="M340.8,431.2h-8.4v16.2h3.4v-5.9h5c3.1,0,4.5-2.6,4.5-5.1C345.3,433.1,343.7,431.2,340.8,431.2z
						 M335.8,434.3h4.3c1.2,0,1.9,0.7,1.9,2c0,1.5-0.5,2-2.1,2h-4.1V434.3z"/>
					<path class="st3" d="M358.9,443.7c0-1.7-0.2-3.5-1.5-4.2c1.1-0.7,1.7-2,1.7-3.7c0-3-1.6-4.5-4.7-4.5h-8.6v16.2h3.4v-6.1h4.3
						c1.7,0,2,1.1,2,3.4c0,1.1,0.1,2,0.4,2.5l0.1,0.2h3.7l-0.3-0.5C359.1,446.3,358.9,445.2,358.9,443.7z M349.2,434.3h4.4
						c1.4,0,2,0.6,2,1.9c0,1.4-0.5,1.9-2,1.9h-4.4V434.3z"/>
					<path class="st3" d="M368.2,430.7c-5,0-8,3.2-8,8.5c0,5.3,3,8.5,8,8.5c5,0,8-3.2,8-8.5C376.2,433.9,373.2,430.7,368.2,430.7z
						 M368.2,444.7c-2.8,0-4.5-2.1-4.5-5.4c0-3.3,1.7-5.4,4.5-5.4c2.8,0,4.5,2.1,4.5,5.4C372.7,442.6,371,444.7,368.2,444.7z"/>
					<polygon class="st3" points="391.9,432.5 386,447.3 382.5,447.3 376.1,431.2 380.1,431.2 384.4,442.9 388.5,431.2 391.9,431.2 
						392.4,431.2 					"/>
					<path class="st3" d="M414.4,431.2h-7.8v16.2h8.5c4.7,0,6.4-4.1,6.4-7.9C421.6,435.9,420.8,431.2,414.4,431.2z M410.2,434.3h3.6
						c1.9,0,4.2,0.6,4.2,5c0,4.4-2.1,4.9-4,4.9h-3.8V434.3z"/>
				</g>
				<polygon class="st3" points="396.5,444.2 396.5,440.6 404.1,440.6 404.1,437.5 396.5,437.5 396.5,434.3 404.5,434.3 
					404.5,431.2 393.3,431.2 393.3,447.3 404.6,447.3 404.6,444.2 				"/>
				<path class="st3" d="M309.9,431h-4l-6.8,16.2l-0.1,0.2h3.7l1.6-4h7l1.6,4h3.8L309.9,431z M310.3,440.6h-4.9l2.5-6.4L310.3,440.6
					z"/>
			</g>
		</g>
		<g>
			<g>
				<rect x="497.6" y="438" class="st4" width="22.8" height="11.5"/>
				<rect x="520.4" y="438" class="st5" width="22.8" height="11.5"/>
				<rect x="543.2" y="438" class="st6" width="22.8" height="11.5"/>
				<rect x="566" y="438" class="st7" width="22.8" height="11.5"/>
			</g>
			<g>
				<g>
					<path class="st3" d="M592.3,438.2h17.5v3.9h-13.2v6.3h12.7v3.9h-12.7v6.9H610v3.9h-17.7V438.2z"/>
					<path class="st3" d="M614.9,438.2h12.4c4.9,0,6.5,3.7,6.5,7.8c0,3.8-1.9,7.7-6.5,7.7h-8.2v9.5h-4.2V438.2z M619.1,449.8h6.8
						c2.4,0,3.7-0.8,3.7-3.8c0-3.1-1.7-3.8-3.4-3.8h-7.1V449.8z"/>
					<path class="st3" d="M638.5,438.2h10.3c7.5,0,9.4,5.6,9.4,12.7c0,5.4-1.9,12.2-8.4,12.2h-11.3V438.2z M642.5,459.3h5.7
						c2.9,0,6-1.2,6-8.5c0-8.1-3.9-8.6-6.2-8.6h-5.5V459.3z"/>
				</g>
				<g>
					<path class="st3" d="M669.7,438.3c3.6,0,6.6,3,6.6,6.6c0,3.6-3,6.6-6.6,6.6c-3.6,0-6.6-3-6.6-6.6
						C663.1,441.3,666,438.3,669.7,438.3z M669.7,450.7c3.2,0,5.7-2.6,5.7-5.8c0-3.2-2.5-5.8-5.7-5.8c-3.2,0-5.7,2.6-5.7,5.8
						C664,448.2,666.5,450.7,669.7,450.7z M669.3,445h-1.5v2.8h-0.8v-6.3h2.8c1.6,0,2.4,0.6,2.4,1.8c0,1.1-0.8,1.6-1.8,1.8l2.2,2.8
						h-1L669.3,445z M667.7,444.4h1.8c1,0,1.7-0.2,1.7-1.1c0-0.9-0.8-1.1-1.7-1.1h-1.8V444.4z"/>
				</g>
			</g>
			<g>
				<path class="st3" d="M687.3,444.3c0.4-0.4,0.5-0.8,0.5-1.4v-2.7c0-0.5-0.2-1-0.5-1.4c-0.4-0.4-0.8-0.6-1.4-0.6h-2.8v6.5h2.8
					C686.5,444.9,687,444.7,687.3,444.3z M686.8,442.9c0,0.3-0.1,0.5-0.3,0.7c-0.2,0.2-0.4,0.3-0.7,0.3h-1.7v-4.5h1.7
					c0.3,0,0.5,0.1,0.7,0.3c0.2,0.2,0.3,0.4,0.3,0.7V442.9z"/>
				<polygon class="st3" points="693.1,443.9 689.8,443.9 689.8,442.1 692.8,442.1 692.8,441.1 689.8,441.1 689.8,439.4 
					693.1,439.4 693.1,438.4 688.8,438.4 688.8,444.9 693.1,444.9 				"/>
				<path class="st3" d="M695.8,445h1.1c0.6,0,1.1-0.2,1.5-0.7l0.1-0.2l-0.6-0.6h-0.3l-0.1,0.1c-0.1,0.1-0.3,0.3-0.4,0.3
					c-0.1,0.1-0.3,0.1-0.4,0.1h-0.9c-0.3,0-0.5-0.1-0.6-0.3c-0.2-0.2-0.3-0.4-0.3-0.7v-2.6c0-0.3,0.1-0.5,0.3-0.7
					c0.2-0.2,0.4-0.3,0.6-0.3h0.8c0.2,0,0.3,0,0.4,0.1c0.1,0.1,0.2,0.2,0.4,0.3l0.1,0.1h0.3l0.6-0.6l-0.1-0.2
					c-0.4-0.5-0.9-0.7-1.5-0.7h-1c-0.5,0-1,0.2-1.3,0.6c-0.4,0.4-0.5,0.8-0.5,1.4v2.8c0,0.5,0.2,1,0.5,1.4
					C694.8,444.8,695.3,445,695.8,445z"/>
				<polygon class="st3" points="703,443.9 700,443.9 700,438.4 699,438.4 699,444.9 703,444.9 				"/>
				<path class="st3" d="M705.2,443.1h2.3l0.7,1.8h0.9v-0.4l-2.2-6.1h-1l-2.2,6l0,0.5h0.9L705.2,443.1z M705.6,442.1l0.8-2.2
					l0.8,2.2H705.6z"/>
				<path class="st3" d="M711.4,442.4h1l1.4,2.5h0.9v-0.5l-1.2-2.1c0.3-0.1,0.5-0.3,0.7-0.5c0.3-0.3,0.4-0.7,0.4-1.1v-0.6
					c0-0.5-0.2-0.9-0.5-1.3c-0.3-0.3-0.8-0.5-1.3-0.5h-2.5v6.5h1.1V442.4z M713.6,440.6c0,0.3-0.1,0.5-0.2,0.6
					c-0.1,0.1-0.3,0.2-0.6,0.2h-1.4v-2h1.4c0.3,0,0.5,0.1,0.6,0.2c0.1,0.1,0.2,0.3,0.2,0.6V440.6z"/>
				<path class="st3" d="M717.9,443.1h2.3l0.7,1.8h0.9v-0.4l-2.2-6.1h-1l-2.2,6l0,0.5h0.9L717.9,443.1z M718.2,442.1l0.8-2.2
					l0.8,2.2H718.2z"/>
				<path class="st3" d="M724,445h1.1c0.6,0,1.1-0.2,1.5-0.7l0.1-0.2l-0.6-0.6h-0.3l-0.1,0.1c-0.1,0.1-0.3,0.3-0.4,0.3
					c-0.1,0.1-0.3,0.1-0.4,0.1h-0.9c-0.3,0-0.5-0.1-0.6-0.3c-0.2-0.2-0.3-0.4-0.3-0.7v-2.6c0-0.3,0.1-0.5,0.3-0.7
					c0.2-0.2,0.4-0.3,0.6-0.3h0.8c0.2,0,0.3,0,0.4,0.1c0.1,0.1,0.2,0.2,0.4,0.3l0.1,0.1h0.3l0.6-0.6l-0.1-0.2
					c-0.4-0.5-0.9-0.7-1.5-0.7h-1c-0.5,0-1,0.2-1.3,0.6c-0.4,0.4-0.5,0.8-0.5,1.4v2.8c0,0.5,0.2,1,0.5,1.4
					C723,444.8,723.5,445,724,445z"/>
				<rect x="727.6" y="438.4" class="st3" width="1.1" height="6.5"/>
				<path class="st3" d="M732.8,438.3h-1.1c-0.5,0-1,0.2-1.3,0.6c-0.4,0.4-0.6,0.8-0.6,1.4v2.8c0,0.5,0.2,1,0.6,1.4
					c0.4,0.4,0.8,0.6,1.3,0.6h1.1c0.5,0,1-0.2,1.3-0.6c0.4-0.4,0.6-0.8,0.6-1.4v-2.8c0-0.5-0.2-1-0.6-1.4
					C733.7,438.5,733.3,438.3,732.8,438.3z M730.9,440.3c0-0.3,0.1-0.5,0.3-0.7c0.2-0.2,0.4-0.3,0.6-0.3h0.9c0.2,0,0.5,0.1,0.6,0.3
					c0.2,0.2,0.3,0.4,0.3,0.7v2.6c0,0.3-0.1,0.5-0.3,0.7c-0.2,0.2-0.4,0.3-0.6,0.3h-0.9c-0.2,0-0.4-0.1-0.6-0.3
					c-0.2-0.2-0.3-0.4-0.3-0.7V440.3z"/>
				<path class="st3" d="M739.5,438.4v2.8c0,0.6,0,1.2,0,1.7l-1.1-1.9l-1.6-2.7h-1v6.5h1.1v-2.8c0-0.6,0-1.2,0-1.7l1.1,1.9l1.6,2.7
					h1v-6.5H739.5z"/>
				<path class="st3" d="M685.1,448l-2.2,6l0,0.5h0.9l0.7-1.8h2.3l0.7,1.8h0.9v-0.4l-2.3-6.1H685.1z M684.9,451.8l0.8-2.3l0.8,2.3
					H684.9z"/>
				<path class="st3" d="M694.4,454.6h1.1V448h-1.1l-1,1.9c-0.2,0.5-0.5,1-0.7,1.4c-0.2-0.5-0.5-1-0.7-1.4l-1-1.9H690v6.5h1.1v-4.3
					c0.2,0.4,0.3,0.6,0.4,0.7l0.9,1.8h0.9l0.9-1.8c0.1-0.1,0.2-0.4,0.4-0.7V454.6z"/>
				<path class="st3" d="M702,453v-0.6c0-0.3-0.1-0.6-0.3-0.9c-0.1-0.1-0.2-0.2-0.3-0.3c0.1-0.1,0.2-0.2,0.2-0.3
					c0.2-0.2,0.2-0.5,0.2-0.8v-0.5c0-0.5-0.2-0.9-0.5-1.1c-0.3-0.3-0.7-0.4-1.3-0.4h-2.5v6.5h2.6c0.5,0,1-0.1,1.3-0.4
					C701.9,453.9,702,453.5,702,453z M700.9,450.1c0,0.2-0.1,0.4-0.2,0.5c-0.1,0.1-0.3,0.2-0.5,0.2h-1.5V449h1.4
					c0.3,0,0.5,0.1,0.6,0.2c0.1,0.1,0.2,0.3,0.2,0.5V450.1z M698.7,451.7h1.5c0.7,0,0.8,0.3,0.8,0.6v0.6c0,0.3-0.1,0.6-0.8,0.6h-1.5
					V451.7z"/>
				<rect x="702.9" y="448" class="st3" width="1.1" height="6.5"/>
				<polygon class="st3" points="709.8,449 709.8,448 705.4,448 705.4,454.6 709.8,454.6 709.8,453.6 706.4,453.6 706.4,451.7 
					709.4,451.7 709.4,450.7 706.4,450.7 706.4,449 				"/>
				<path class="st3" d="M713.1,451.9l1.6,2.7h1V448h-1.1v2.8c0,0.6,0,1.2,0,1.7l-1.1-1.9L712,448h-1v6.5h1.1v-2.8
					c0-0.6,0-1.2,0-1.7L713.1,451.9z"/>
				<polygon class="st3" points="719.7,454.6 719.7,449 721.6,449 721.6,448 716.8,448 716.8,449 718.7,449 718.7,454.6 				"/>
				<path class="st3" d="M723,452.7h2.3l0.7,1.8h0.9v-0.4l-2.2-6.1h-1l-2.2,6l0,0.5h0.9L723,452.7z M723.4,451.8l0.8-2.2l0.8,2.2
					H723.4z"/>
				<polygon class="st3" points="729.1,448 728,448 728,454.6 732.1,454.6 732.1,453.6 729.1,453.6 				"/>
				<path class="st3" d="M685.6,457.5h-2.4v6.5h1.1v-2.5h1.4c0.6,0,1-0.2,1.3-0.5c0.3-0.3,0.5-0.7,0.5-1.2v-0.6
					c0-0.5-0.2-0.9-0.5-1.2C686.6,457.7,686.2,457.5,685.6,457.5z M684.2,458.5h1.3c0.3,0,0.5,0.1,0.6,0.2c0.1,0.1,0.2,0.3,0.2,0.6
					v0.5c0,0.3-0.1,0.5-0.2,0.6c-0.1,0.1-0.4,0.2-0.6,0.2h-1.3V458.5z"/>
				<path class="st3" d="M692.6,461c0.3-0.3,0.4-0.7,0.4-1.1v-0.6c0-0.5-0.2-0.9-0.5-1.3c-0.3-0.3-0.8-0.5-1.3-0.5h-2.5v6.5h1.1
					v-2.5h1.1l1.4,2.5h1v-0.5l-1.2-2.1C692.1,461.3,692.4,461.2,692.6,461z M689.6,458.5h1.4c0.3,0,0.5,0.1,0.6,0.2
					c0.1,0.1,0.2,0.3,0.2,0.6v0.5c0,0.3-0.1,0.5-0.2,0.6c-0.1,0.1-0.4,0.2-0.6,0.2h-1.4V458.5z"/>
				<path class="st3" d="M697.1,457.5H696c-0.5,0-1,0.2-1.4,0.6c-0.4,0.4-0.6,0.8-0.6,1.4v2.8c0,0.5,0.2,1,0.6,1.4
					c0.4,0.4,0.8,0.6,1.4,0.6h1.1c0.5,0,1-0.2,1.4-0.6c0.4-0.4,0.6-0.8,0.6-1.4v-2.8c0-0.5-0.2-1-0.6-1.4
					C698.1,457.7,697.6,457.5,697.1,457.5z M695.2,459.5c0-0.3,0.1-0.5,0.3-0.7c0.2-0.2,0.4-0.3,0.6-0.3h0.9c0.3,0,0.5,0.1,0.6,0.3
					c0.2,0.2,0.3,0.4,0.3,0.7v2.6c0,0.3-0.1,0.5-0.3,0.7c-0.2,0.2-0.4,0.3-0.7,0.3h-0.9c-0.3,0-0.5-0.1-0.6-0.3
					c-0.2-0.2-0.3-0.4-0.3-0.7V459.5z"/>
				<path class="st3" d="M703.2,457.5h-2.9v6.5h2.9c0.6,0,1-0.2,1.4-0.6c0.4-0.4,0.6-0.8,0.6-1.4v-2.7c0-0.5-0.2-1-0.6-1.4
					C704.2,457.7,703.7,457.5,703.2,457.5z M701.4,458.5h1.7c0.3,0,0.5,0.1,0.7,0.3c0.2,0.2,0.3,0.4,0.3,0.7v2.5
					c0,0.3-0.1,0.5-0.3,0.7c-0.2,0.2-0.4,0.3-0.7,0.3h-1.7V458.5z"/>
				<path class="st3" d="M710.4,462.1c0,0.3-0.1,0.5-0.3,0.7c-0.2,0.2-0.4,0.3-0.7,0.3h-0.9c-0.3,0-0.5-0.1-0.6-0.3
					c-0.2-0.2-0.3-0.4-0.3-0.7v-4.6h-1.1v4.6c0,0.5,0.2,1,0.6,1.4c0.4,0.4,0.8,0.6,1.4,0.6h1c0.5,0,1-0.2,1.4-0.6
					c0.4-0.4,0.6-0.8,0.6-1.4v-4.6h-1.1V462.1z"/>
				<path class="st3" d="M716.1,462.7L716.1,462.7c-0.2,0.2-0.3,0.3-0.4,0.4c-0.1,0.1-0.3,0.1-0.4,0.1h-0.9c-0.3,0-0.5-0.1-0.7-0.3
					c-0.2-0.2-0.3-0.4-0.3-0.7v-2.6c0-0.3,0.1-0.5,0.3-0.7c0.2-0.2,0.4-0.3,0.6-0.3h0.8c0.2,0,0.3,0,0.4,0.1
					c0.1,0.1,0.2,0.2,0.4,0.3l0.1,0.1h0.3l0.6-0.6l-0.2-0.2c-0.4-0.5-0.9-0.7-1.5-0.7h-1c-0.5,0-1,0.2-1.4,0.6
					c-0.4,0.4-0.6,0.8-0.6,1.4v2.8c0,0.5,0.2,1,0.6,1.4c0.4,0.4,0.8,0.6,1.4,0.6h1.1c0.6,0,1.1-0.2,1.5-0.7l0.2-0.2l-0.6-0.6H716.1z
					"/>
				<polygon class="st3" points="717.4,458.5 719.3,458.5 719.3,464.1 720.4,464.1 720.4,458.5 722.3,458.5 722.3,457.5 
					717.4,457.5 				"/>
				<path class="st3" d="M725.5,457.5h-1.1c-0.5,0-1,0.2-1.4,0.6c-0.4,0.4-0.6,0.8-0.6,1.4v2.8c0,0.5,0.2,1,0.6,1.4
					c0.4,0.4,0.8,0.6,1.4,0.6h1.1c0.5,0,1-0.2,1.4-0.6c0.4-0.4,0.6-0.8,0.6-1.4v-2.8c0-0.5-0.2-1-0.6-1.4
					C726.5,457.7,726,457.5,725.5,457.5z M723.5,459.5c0-0.3,0.1-0.5,0.3-0.7c0.2-0.2,0.4-0.3,0.6-0.3h0.9c0.3,0,0.5,0.1,0.6,0.3
					c0.2,0.2,0.3,0.4,0.3,0.7v2.6c0,0.3-0.1,0.5-0.3,0.7c-0.2,0.2-0.4,0.3-0.7,0.3h-0.9c-0.3,0-0.5-0.1-0.6-0.3
					c-0.2-0.2-0.3-0.4-0.3-0.7V459.5z"/>
			</g>
			<polygon class="st3" points="731.5,437.4 732,438 733.3,437.2 732.8,436.5 			"/>
			<g>
				<path class="st3" d="M501.1,460c0,0.6,0,1.3,0,1.9l-1-1.9l-1.3-2.3h-0.7v5.6h0.7v-2.4c0-0.6,0-1.3,0-1.9l1,1.9l1.3,2.3h0.7v-5.6
					h-0.7V460z"/>
				<path class="st3" d="M504.3,457.6h-0.4c-0.3,0-0.5,0.1-0.7,0.3c-0.2,0.2-0.3,0.5-0.3,0.7v0.8c0,0.3,0.1,0.5,0.3,0.7
					c0.2,0.2,0.4,0.3,0.7,0.3h0.4c0.3,0,0.5-0.1,0.7-0.3c0.2-0.2,0.3-0.5,0.3-0.7v-0.8c0-0.3-0.1-0.5-0.3-0.7
					C504.8,457.7,504.5,457.6,504.3,457.6z M504.6,458.7v0.8c0,0.2,0,0.3-0.1,0.4c-0.1,0.1-0.2,0.1-0.3,0.1h-0.2
					c-0.1,0-0.2,0-0.3-0.1c-0.1-0.1-0.1-0.2-0.1-0.4v-0.8c0-0.2,0-0.3,0.1-0.4c0.1-0.1,0.2-0.1,0.3-0.1h0.2c0.1,0,0.2,0,0.3,0.1
					C504.5,458.4,504.6,458.5,504.6,458.7z"/>
				<path class="st3" d="M511.9,460.5c0.2-0.2,0.3-0.6,0.3-0.9V459c0-0.4-0.1-0.8-0.4-1c-0.3-0.3-0.6-0.4-1-0.4h-2v5.6h0.7V461h1
					l1.1,2.2h0.6v-0.3l-1-2C511.6,460.8,511.8,460.7,511.9,460.5z M509.6,458.3h1.2c0.2,0,0.4,0.1,0.6,0.2c0.1,0.1,0.2,0.3,0.2,0.6
					v0.4c0,0.3-0.1,0.5-0.2,0.6c-0.1,0.1-0.3,0.2-0.6,0.2h-1.2V458.3z"/>
				<path class="st3" d="M514.9,459.1h-0.6c-0.4,0-0.7,0.1-0.9,0.4c-0.2,0.3-0.4,0.6-0.4,1v1.3c0,0.4,0.1,0.8,0.4,1
					c0.2,0.3,0.6,0.4,0.9,0.4h0.7c0.4,0,0.8-0.2,1.1-0.5l0.1-0.1l-0.4-0.4h-0.2l0,0c-0.1,0.1-0.2,0.2-0.3,0.2
					c-0.1,0-0.2,0.1-0.3,0.1h-0.5c-0.2,0-0.3-0.1-0.5-0.2c-0.1-0.2-0.2-0.4-0.2-0.6v-0.3h2.5v-0.9c0-0.4-0.1-0.8-0.4-1
					C515.6,459.2,515.3,459.1,514.9,459.1z M513.8,460.7v-0.2c0-0.3,0.1-0.5,0.2-0.6c0.1-0.1,0.3-0.2,0.5-0.2h0.5
					c0.2,0,0.3,0.1,0.5,0.2c0.1,0.2,0.2,0.4,0.2,0.6v0.2H513.8z"/>
				<path class="st3" d="M519.1,462.4h-1c-0.1,0-0.2,0-0.2-0.1c0,0-0.1-0.1-0.1-0.1c0-0.1,0-0.2,0.3-0.2h0.6c0.3,0,0.6-0.1,0.8-0.4
					c0.2-0.2,0.3-0.5,0.3-0.9v-0.4c0-0.2-0.1-0.4-0.2-0.6h0.5v-0.7h-2.1c-0.3,0-0.6,0.1-0.8,0.4c-0.2,0.2-0.3,0.5-0.3,0.9v0.4
					c0,0.2,0.1,0.5,0.2,0.7c0.1,0.1,0.2,0.3,0.3,0.3c-0.2,0.1-0.2,0.3-0.2,0.6c0,0.3,0.1,0.5,0.3,0.6c0,0,0.3,0.2,0.8,0.2
					c0,0,0.1,0,0.1,0h0.6c0.2,0,0.3,0,0.4,0.1c0.1,0.1,0.1,0.2,0.1,0.4c0,0.2,0,0.3-0.1,0.4c-0.1,0.1-0.2,0.1-0.4,0.1H518
					c-0.2,0-0.3,0-0.4-0.1l-0.1-0.1l-0.5,0.5l0.1,0.1c0.2,0.2,0.5,0.3,0.8,0.3h1.2c0.4,0,0.6-0.1,0.9-0.3c0.2-0.2,0.3-0.5,0.3-0.9
					c0-0.4-0.1-0.7-0.3-0.9C519.8,462.5,519.5,462.4,519.1,462.4z M517.7,460.7v-0.3c0-0.2,0.1-0.3,0.2-0.5c0.1-0.1,0.2-0.2,0.4-0.2
					h0.5c0.1,0,0.3,0.1,0.4,0.2c0.1,0.1,0.2,0.3,0.2,0.5v0.3c0,0.2,0,0.3-0.2,0.5c-0.1,0.1-0.2,0.2-0.4,0.2h-0.5
					c-0.2,0-0.3-0.1-0.4-0.2C517.8,461,517.7,460.9,517.7,460.7z"/>
				<rect x="521.1" y="459.1" class="st3" width="0.7" height="4.1"/>
				<rect x="521.1" y="457.6" class="st3" width="0.7" height="0.9"/>
				<path class="st3" d="M524.8,460.9l-0.9-0.2c-0.3-0.1-0.4-0.2-0.4-0.5c0-0.2,0-0.3,0.1-0.4c0.1-0.1,0.2-0.1,0.4-0.1h0.5
					c0.1,0,0.3,0,0.4,0.1c0.1,0,0.2,0.1,0.3,0.2l0,0.1h0.2l0.4-0.4l-0.1-0.1c-0.3-0.3-0.7-0.5-1.1-0.5H524c-0.3,0-0.6,0.1-0.8,0.3
					c-0.2,0.2-0.3,0.5-0.3,0.8c0,0.3,0.1,0.5,0.2,0.7c0.2,0.2,0.4,0.3,0.7,0.4l0.9,0.2c0.3,0.1,0.4,0.2,0.4,0.5c0,0.2,0,0.3-0.1,0.4
					c-0.1,0.1-0.2,0.1-0.4,0.1H524c-0.1,0-0.3,0-0.4-0.1c-0.1,0-0.2-0.1-0.3-0.2l0-0.1h-0.2l-0.4,0.4l0.1,0.1
					c0.3,0.3,0.6,0.5,1.1,0.5h0.7c0.3,0,0.6-0.1,0.8-0.3c0.2-0.2,0.3-0.5,0.3-0.9C525.8,461.4,525.4,461,524.8,460.9z"/>
				<path class="st3" d="M528.4,462.5L528.4,462.5c-0.2,0.1-0.4,0.1-0.5,0c-0.1-0.1-0.1-0.2-0.1-0.3v-2.4h1v-0.7h-1v-1h-0.7v1h-0.8
					v0.7h0.8v2.4c0,0.3,0.1,0.5,0.2,0.7c0.2,0.2,0.4,0.3,0.7,0.3h0.1c0.2,0,0.4-0.1,0.6-0.2l0.1-0.1l-0.4-0.4H528.4z"/>
				<path class="st3" d="M531.3,459.1c-0.4,0-0.6,0.1-0.8,0.3v-0.3h-0.7v4.1h0.7v-2.5c0-0.3,0.1-0.6,0.2-0.7
					c0.1-0.2,0.3-0.2,0.5-0.2c0.2,0,0.4,0.1,0.6,0.3l0,0h0.2l0.4-0.4l-0.1-0.1C532.1,459.2,531.7,459.1,531.3,459.1z"/>
				<path class="st3" d="M534.9,459.1h-0.7c-0.4,0-0.7,0.1-0.9,0.4c-0.2,0.3-0.4,0.6-0.4,1v1.3c0,0.4,0.1,0.8,0.4,1
					c0.2,0.3,0.6,0.4,0.9,0.4h0.7c0.4,0,0.7-0.1,0.9-0.4c0.2-0.3,0.4-0.6,0.4-1v-1.3c0-0.4-0.1-0.8-0.4-1
					C535.5,459.2,535.2,459.1,534.9,459.1z M535.5,460.6v1.2c0,0.3-0.1,0.5-0.2,0.6c-0.1,0.2-0.3,0.2-0.5,0.2h-0.6
					c-0.2,0-0.3-0.1-0.5-0.2c-0.1-0.2-0.2-0.4-0.2-0.6v-1.2c0-0.3,0.1-0.5,0.2-0.6c0.1-0.1,0.3-0.2,0.5-0.2h0.6
					c0.2,0,0.3,0.1,0.5,0.2C535.4,460.1,535.5,460.3,535.5,460.6z"/>
				<rect x="537.2" y="462.3" class="st3" width="0.7" height="0.9"/>
				<rect x="537.2" y="459.1" class="st3" width="0.7" height="0.9"/>
				<path class="st3" d="M542.8,460.1l-0.9-0.2c-0.2-0.1-0.4-0.1-0.5-0.2c-0.1-0.1-0.1-0.2-0.1-0.4V459c0-0.5,0.2-0.7,0.7-0.7h0.6
					c0.2,0,0.3,0,0.4,0.1c0.1,0.1,0.2,0.1,0.3,0.3l0,0h0.2l0.4-0.4l-0.1-0.1c-0.3-0.4-0.7-0.6-1.1-0.6h-0.8c-0.4,0-0.8,0.1-1,0.4
					c-0.2,0.2-0.4,0.6-0.4,1v0.4c0,0.3,0.1,0.6,0.3,0.8c0.2,0.2,0.5,0.3,0.9,0.4l0.9,0.2c0.2,0,0.4,0.1,0.5,0.2
					c0.1,0.1,0.1,0.2,0.1,0.4v0.3c0,0.5-0.2,0.7-0.7,0.7h-0.8c-0.2,0-0.3,0-0.4-0.1c-0.1-0.1-0.2-0.1-0.3-0.3l0,0h-0.2l-0.4,0.4
					l0.1,0.1c0.3,0.4,0.7,0.6,1.1,0.6h0.9c0.4,0,0.7-0.1,1-0.4c0.2-0.2,0.4-0.6,0.4-1v-0.5c0-0.3-0.1-0.6-0.3-0.8
					C543.5,460.4,543.2,460.2,542.8,460.1z"/>
				<rect x="545.1" y="460.3" class="st3" width="2" height="0.7"/>
				<path class="st3" d="M549.9,457.6h-1.9v5.6h0.7V461h1.2c0.4,0,0.8-0.1,1-0.4c0.3-0.3,0.4-0.6,0.4-1V459c0-0.4-0.1-0.8-0.4-1
					C550.7,457.7,550.3,457.6,549.9,457.6z M548.8,458.3h1.1c0.3,0,0.4,0.1,0.6,0.2c0.1,0.1,0.2,0.3,0.2,0.6v0.4
					c0,0.3-0.1,0.5-0.2,0.6c-0.1,0.1-0.3,0.2-0.6,0.2h-1.1V458.3z"/>
				<rect x="552.2" y="460.3" class="st3" width="2" height="0.7"/>
				<path class="st3" d="M556.9,457.8h-0.5c-0.4,0-0.7,0.2-1,0.5c-0.3,0.3-0.4,0.7-0.4,1.1v2.2c0,0.4,0.1,0.8,0.4,1.1
					c0.3,0.3,0.6,0.5,1,0.5h0.5c0.4,0,0.7-0.2,1-0.5c0.3-0.3,0.4-0.7,0.4-1.1v-2.2c0-0.4-0.1-0.8-0.4-1.1
					C557.6,458,557.3,457.8,556.9,457.8z M557.6,459.5v2.1c0,0.3-0.1,0.5-0.2,0.7c-0.2,0.2-0.3,0.3-0.5,0.3h-0.4
					c-0.2,0-0.4-0.1-0.5-0.3c-0.2-0.2-0.2-0.4-0.2-0.7v-2.1c0-0.3,0.1-0.5,0.2-0.7c0.1-0.2,0.3-0.3,0.5-0.3h0.4
					c0.2,0,0.4,0.1,0.5,0.3C557.5,458.9,557.6,459.2,557.6,459.5z"/>
				<path class="st3" d="M561.1,457.8h-0.5c-0.4,0-0.7,0.2-1,0.5c-0.3,0.3-0.4,0.7-0.4,1.1v2.2c0,0.4,0.1,0.8,0.4,1.1
					c0.3,0.3,0.6,0.5,1,0.5h0.5c0.4,0,0.7-0.2,1-0.5c0.3-0.3,0.4-0.7,0.4-1.1v-2.2c0-0.4-0.1-0.8-0.4-1.1
					C561.9,458,561.5,457.8,561.1,457.8z M561.8,459.5v2.1c0,0.3-0.1,0.5-0.2,0.7c-0.2,0.2-0.3,0.3-0.5,0.3h-0.4
					c-0.2,0-0.4-0.1-0.5-0.3c-0.2-0.2-0.2-0.4-0.2-0.7v-2.1c0-0.3,0.1-0.5,0.2-0.7c0.1-0.2,0.3-0.3,0.5-0.3h0.4
					c0.2,0,0.4,0.1,0.5,0.3C561.8,458.9,561.8,459.2,561.8,459.5z"/>
				<path class="st3" d="M566.1,460.5c0.1-0.1,0.2-0.2,0.3-0.4c0.1-0.2,0.2-0.5,0.2-0.8c0-0.4-0.1-0.8-0.4-1.1
					c-0.3-0.3-0.6-0.4-1.1-0.4c-0.4,0-0.8,0.1-1.1,0.4c-0.3,0.3-0.4,0.6-0.4,1.1c0,0.3,0.1,0.5,0.2,0.8c0.1,0.2,0.2,0.3,0.3,0.4
					c-0.4,0.3-0.6,0.7-0.6,1.2c0,0.5,0.1,0.8,0.4,1.1c0.3,0.3,0.7,0.4,1.1,0.4c0.5,0,0.8-0.1,1.1-0.4c0.3-0.3,0.4-0.7,0.4-1.1
					C566.7,461.1,566.5,460.7,566.1,460.5z M565.1,462.5c-0.3,0-0.5-0.1-0.6-0.2c-0.2-0.2-0.2-0.4-0.2-0.6c0-0.3,0.1-0.5,0.2-0.6
					c0.2-0.2,0.4-0.2,0.6-0.2c0.3,0,0.5,0.1,0.6,0.2c0.2,0.2,0.2,0.4,0.2,0.6c0,0.3-0.1,0.5-0.2,0.6
					C565.6,462.5,565.4,462.5,565.1,462.5z M565.1,458.5c0.2,0,0.4,0.1,0.6,0.2c0.1,0.1,0.2,0.3,0.2,0.6c0,0.3-0.1,0.5-0.2,0.6
					c-0.1,0.1-0.3,0.2-0.6,0.2c-0.2,0-0.4-0.1-0.5-0.2c-0.1-0.2-0.2-0.4-0.2-0.6c0-0.3,0.1-0.5,0.2-0.6
					C564.7,458.6,564.9,458.5,565.1,458.5z"/>
				<path class="st3" d="M568.1,459.2l0.3,0.4h0.2l0,0c0.3-0.3,0.6-0.6,0.7-0.8v4.3h0.7v-5.3h-0.6L568.1,459.2z"/>
				<path class="st3" d="M572.8,457.8l-1.4,1.4l0.3,0.4h0.2l0,0c0.3-0.3,0.6-0.6,0.7-0.8v4.3h0.7v-5.3H572.8z"/>
			</g>
		</g>
	</g>
</g>
</svg>
