<?xml version="1.0" encoding="utf-8"?>
<!-- Generator: Adobe Illustrator 25.4.1, SVG Export Plug-In . SVG Version: 6.00 Build 0)  -->
<svg version="1.1" id="Capa_1" xmlns="http://www.w3.org/2000/svg" xmlns:xlink="http://www.w3.org/1999/xlink" x="0px" y="0px"
	 viewBox="0 0 421 182.9" style="enable-background:new 0 0 421 182.9;" xml:space="preserve">
<style type="text/css">
	.st0{fill-rule:evenodd;clip-rule:evenodd;fill:#009CDE;}
	.st1{fill:#002554;}
	.st2{fill:none;stroke:#FFFFFF;stroke-width:0.9725;}
	.st3{fill:#FFFFFF;}
	.st4{fill:#DEDEDF;}
	.st5{fill:#A3A2A4;}
	.st6{fill:#6B696A;}
	.st7{fill:#36312F;}
</style>
<g>
	<path class="st0" d="M211.3,23.5c-56.4,12.6-98.5,70.3-145.1,19.5C24.7-2.1,0,1,0,1v160.1c28.9,20.3,112.8,28,179.7-0.8
		c66.9-28.7,115.3,22.6,164.6,15.8C420.5,165.7,361.4-10.1,211.3,23.5z"/>
	<path class="st1" d="M345.4,37.3C278.5,8.7,194.1,21.3,147.5,64.5C129,81.4,95.7,86.4,69.3,75.1c-18.3-7.8-27.2-20.6-29.9-36
		c-0.7-4-3.5-19.2-21.4-30.8C12.6,4.7,6.5,1.9,0,0v118c11.9,15.3,29.5,28.5,51.7,38c52,22.2,115.6,17.3,159.9-8.6
		c19.5-11.2,47.3-13.2,70-3.5c9.5,4,16.9,9.6,22.1,16l0,0c5.2,6.7,12.9,12.5,22.7,16.7c29.8,12.7,68.2,5.5,85.7-16.2
		c4.9-6.1,7.8-12.7,8.5-19.3C424.5,100.2,397.2,59.4,345.4,37.3z"/>
</g>
<g>
	<g>
		<rect x="297.9" y="119.5" class="st2" width="35.8" height="5.2"/>
		<rect x="297.9" y="89.7" class="st2" width="35.8" height="29"/>
		<path class="st3" d="M304.4,113.6L304.4,113.6c-0.1,0.1-0.3,0.4-0.6,0.4c-0.4,0-0.7-0.3-0.7-0.7c0-0.4,0.4-0.7,0.7-0.7
			c0.1,0,0.4,0,0.6,0.4l0,0h0.5l0-0.1c-0.2-0.5-0.7-0.7-1.1-0.7c-0.6,0-1.2,0.5-1.2,1.1s0.5,1.1,1.2,1.1c0.5,0,0.8-0.2,1.1-0.7
			l0.1-0.1L304.4,113.6L304.4,113.6z"/>
		<path class="st3" d="M305.9,112.2c-0.2,0-0.3,0-0.5,0.2v-0.1H305v2.1h0.4v-1.2c0-0.1,0-0.2,0.1-0.3c0.1-0.1,0.2-0.1,0.4-0.2h0.1
			L305.9,112.2L305.9,112.2z"/>
		<path class="st3" d="M307.8,112.2v0.2c-0.2-0.2-0.5-0.2-0.7-0.2c-0.7,0-1.2,0.6-1.2,1.1c0,0.6,0.5,1.1,1.2,1.1
			c0.1,0,0.4,0,0.7-0.2v0.2h0.4v-2.1L307.8,112.2L307.8,112.2z M307.1,112.6c0.4,0,0.7,0.3,0.7,0.7s-0.3,0.7-0.7,0.7
			c-0.4,0-0.7-0.3-0.7-0.7C306.4,112.8,306.7,112.6,307.1,112.6z"/>
		<path class="st3" d="M310.2,111.5v0.9c-0.3-0.2-0.6-0.2-0.7-0.2c-0.7,0-1.2,0.6-1.2,1.1c0,0.6,0.5,1.1,1.2,1.1
			c0.1,0,0.4,0,0.7-0.2v0.2h0.4v-2.8L310.2,111.5L310.2,111.5z M309.5,112.6c0.4,0,0.7,0.3,0.7,0.7s-0.3,0.7-0.7,0.7
			c-0.4,0-0.7-0.3-0.7-0.7C308.8,112.8,309.2,112.6,309.5,112.6z"/>
		<rect x="310.9" y="111.5" class="st3" width="0.4" height="2.8"/>
		<polygon class="st3" points="314.8,112.2 314.8,111.5 314.4,111.5 314.4,112.2 314,112.2 314,112.6 314.4,112.6 314.4,114.3 
			314.8,114.3 314.8,112.6 315.3,112.6 315.3,112.2 		"/>
		<path class="st3" d="M316.3,112.2c-0.5,0-1.1,0.4-1.1,1.1c0,0.6,0.5,1.1,1.1,1.1s1.1-0.5,1.1-1.1
			C317.4,112.7,316.9,112.2,316.3,112.2z M316.3,114c-0.4,0-0.7-0.3-0.7-0.7c0-0.5,0.4-0.7,0.7-0.7c0.3,0,0.7,0.2,0.7,0.7
			C317,113.7,316.6,114,316.3,114z"/>
		<path class="st3" d="M319.4,113.6L319.4,113.6c-0.1,0.1-0.2,0.4-0.6,0.4c-0.4,0-0.7-0.3-0.7-0.7c0-0.4,0.4-0.7,0.7-0.7
			c0.3,0,0.5,0.1,0.6,0.4l0,0h0.5l0-0.1c-0.2-0.5-0.7-0.7-1.1-0.7c-0.6,0-1.2,0.5-1.2,1.1s0.5,1.1,1.2,1.1c0.5,0,0.8-0.2,1.1-0.7
			l0.1-0.1L319.4,113.6L319.4,113.6z"/>
		<path class="st3" d="M320.9,112.2c-0.2,0-0.3,0-0.5,0.2v-0.1h-0.4v2.1h0.4v-1.2c0-0.1,0-0.2,0.1-0.3s0.2-0.1,0.4-0.2h0.1v-0.4
			L320.9,112.2z"/>
		<path class="st3" d="M322.8,112.2v0.2c-0.2-0.2-0.5-0.2-0.7-0.2c-0.7,0-1.2,0.6-1.2,1.1c0,0.6,0.5,1.1,1.2,1.1
			c0.1,0,0.4,0,0.7-0.2v0.2h0.4v-2.1L322.8,112.2L322.8,112.2z M322.2,112.6c0.4,0,0.7,0.3,0.7,0.7s-0.3,0.7-0.7,0.7
			c-0.4,0-0.7-0.3-0.7-0.7C321.5,112.8,321.8,112.6,322.2,112.6z"/>
		<path class="st3" d="M325.2,111.5v0.9c-0.3-0.2-0.6-0.2-0.7-0.2c-0.7,0-1.2,0.6-1.2,1.1c0,0.6,0.5,1.1,1.2,1.1
			c0.1,0,0.4,0,0.7-0.2v0.2h0.4v-2.8L325.2,111.5L325.2,111.5z M324.6,112.6c0.4,0,0.7,0.3,0.7,0.7s-0.3,0.7-0.7,0.7
			c-0.4,0-0.7-0.3-0.7-0.7C323.8,112.8,324.2,112.6,324.6,112.6z"/>
		<rect x="326" y="111.5" class="st3" width="0.4" height="2.8"/>
		<path class="st3" d="M313.1,113.7c-0.1,0.1-0.3,0.2-0.5,0.2c-0.3,0-0.6-0.2-0.6-0.5h1.8v0v0v0c0-0.2-0.1-0.4-0.2-0.6
			c-0.1-0.3-0.5-0.5-1-0.5c-0.6,0-1.1,0.5-1.1,1.1s0.5,1.1,1.1,1.1c0.4,0,0.8-0.3,1-0.6L313.1,113.7L313.1,113.7z M312.6,112.6
			c0.2,0,0.5,0.2,0.6,0.5H312C312.1,112.7,312.4,112.6,312.6,112.6z"/>
		<path class="st3" d="M328.2,113.7c-0.1,0.1-0.3,0.3-0.5,0.3c-0.3,0-0.6-0.2-0.6-0.5h1.8v0v0v0c0-0.2-0.1-0.4-0.2-0.6
			c-0.1-0.3-0.5-0.5-1-0.5c-0.6,0-1.1,0.5-1.1,1.1s0.5,1.1,1.1,1.1c0.4,0,0.9-0.3,1-0.7L328.2,113.7z M327.7,112.6
			c0.2,0,0.5,0.2,0.6,0.5H327C327.1,112.7,327.4,112.6,327.7,112.6z"/>
		<path class="st3" d="M310.7,103c-0.2,0.1-0.4,0.2-0.6,0.2c-0.6,0-0.9-0.4-0.9-0.8c0-0.4,0.3-0.8,0.9-0.8c0.2,0,0.4,0,0.5,0.1v0.3
			c-0.2-0.1-0.3-0.2-0.5-0.2c-0.3,0-0.5,0.2-0.5,0.5c0,0.3,0.2,0.5,0.5,0.5c0.2,0,0.3-0.1,0.5-0.2V103z"/>
		<path class="st3" d="M312.3,103.1h-1.1v-1.6h1.1v0.3h-0.7v0.3h0.7v0.3h-0.7v0.4h0.7L312.3,103.1L312.3,103.1z"/>
		<path class="st3" d="M313.3,101.5c0.3,0,0.5,0.2,0.5,0.4c0,0.2-0.1,0.3-0.3,0.4c0.2,0.1,0.2,0.3,0.4,0.7h-0.4
			c-0.2-0.3-0.2-0.6-0.4-0.6H313v0.6h-0.4v-1.6H313.3z M313,102.2h0.2c0.1,0,0.2,0,0.2-0.2c0-0.1-0.1-0.2-0.2-0.2H313V102.2z"/>
		<path class="st3" d="M315.5,101.8h-0.5v1.3h-0.4v-1.3H314v-0.3h1.5L315.5,101.8L315.5,101.8z"/>
		<path class="st3" d="M316.2,103.1h-0.4v-1.6h0.4V103.1z"/>
		<path class="st3" d="M317.6,101.8H317v0.3h0.7v0.3H317v0.6h-0.4v-1.6h1.1V101.8z"/>
		<path class="st3" d="M318.4,103.1h-0.4v-1.6h0.4V103.1z"/>
		<path class="st3" d="M320,103.1h-1.1v-1.6h1.1v0.3h-0.7v0.3h0.7v0.3h-0.7v0.4h0.7L320,103.1L320,103.1z"/>
		<path class="st3" d="M321,101.5c0.5,0,0.9,0.3,0.9,0.8c0,0.4-0.3,0.8-0.9,0.8h-0.6v-1.6L321,101.5L321,101.5z M320.7,102.8h0.2
			c0.4,0,0.5-0.3,0.5-0.5c0-0.3-0.1-0.5-0.5-0.5h-0.2V102.8z"/>
		<path class="st3" d="M310,94.2c-4.4,0-8,3.6-8,8c0,4.4,3.6,8,8,8c1.7,0,3.2-0.5,4.5-1.4c-1.1-1.2-1.9-2.6-2.4-4.2
			c-0.6,0.5-1.3,0.8-2.1,0.8c-1.8,0-3.3-1.5-3.3-3.3c0-1.8,1.5-3.3,3.3-3.3c1.2,0,2.3,0.7,2.9,1.7h5C317.1,97,313.9,94.2,310,94.2z"
			/>
		<path class="st3" d="M321.3,94.2c-1.7,0-3.2,0.5-4.5,1.4c1.1,1.2,1.9,2.6,2.4,4.2c0.6-0.5,1.3-0.8,2.1-0.8c1.8,0,3.3,1.5,3.3,3.3
			c0,1.8-1.5,3.3-3.3,3.3c-1.2,0-2.3-0.7-2.9-1.7h-5c0.7,3.7,4,6.4,7.9,6.4c4.4,0,8-3.6,8-8C329.3,97.9,325.7,94.2,321.3,94.2z"/>
		<g>
			<path class="st3" d="M311.2,120.4c0.4,0,0.8,0.1,1.2,0.3v0.5c-0.4-0.2-0.7-0.3-1.1-0.3c-0.2,0-0.4,0-0.6,0.1s-0.3,0.2-0.4,0.4
				c-0.1,0.2-0.1,0.4-0.1,0.6c0,0.3,0.1,0.6,0.3,0.8c0.2,0.2,0.5,0.3,0.9,0.3c0.1,0,0.2,0,0.3,0c0.1,0,0.2,0,0.3-0.1v-0.5h-0.5V122
				h1.1v1.3c-0.2,0.1-0.3,0.2-0.5,0.2c-0.2,0.1-0.4,0.1-0.7,0.1c-0.3,0-0.6-0.1-0.9-0.2c-0.3-0.1-0.5-0.3-0.6-0.6
				c-0.1-0.2-0.2-0.5-0.2-0.8c0-0.3,0.1-0.6,0.2-0.9c0.1-0.2,0.4-0.4,0.6-0.6C310.6,120.5,310.8,120.4,311.2,120.4z"/>
			<path class="st3" d="M314.7,120.4c0.3,0,0.6,0.1,0.9,0.2c0.3,0.1,0.5,0.3,0.6,0.6c0.2,0.2,0.2,0.5,0.2,0.9c0,0.3-0.1,0.6-0.2,0.8
				c-0.1,0.2-0.4,0.4-0.6,0.6c-0.3,0.1-0.6,0.2-0.9,0.2c-0.3,0-0.6-0.1-0.9-0.2c-0.3-0.1-0.5-0.3-0.6-0.6s-0.2-0.5-0.2-0.8
				c0-0.3,0.1-0.6,0.2-0.8c0.1-0.2,0.3-0.4,0.6-0.6C314,120.5,314.3,120.4,314.7,120.4z M313.6,122c0,0.2,0,0.4,0.1,0.6
				c0.1,0.2,0.2,0.3,0.4,0.4c0.2,0.1,0.4,0.1,0.6,0.1c0.3,0,0.6-0.1,0.8-0.3c0.2-0.2,0.3-0.5,0.3-0.8c0-0.2,0-0.4-0.1-0.6
				s-0.2-0.3-0.4-0.4c-0.2-0.1-0.4-0.1-0.6-0.1c-0.2,0-0.4,0-0.6,0.1s-0.3,0.2-0.4,0.4C313.6,121.6,313.6,121.8,313.6,122z"/>
			<path class="st3" d="M317.6,120.4v2.7h1.5v0.5H317v-3.2H317.6z"/>
			<path class="st3" d="M320.9,120.4c0.3,0,0.6,0.1,0.9,0.2c0.3,0.1,0.4,0.3,0.6,0.6c0.1,0.2,0.2,0.5,0.2,0.8c0,0.3-0.1,0.6-0.2,0.8
				c-0.1,0.2-0.3,0.4-0.6,0.5c-0.3,0.1-0.6,0.2-0.9,0.2h-1.3v-3.2L320.9,120.4L320.9,120.4z M320.8,123.1c0.3,0,0.6-0.1,0.8-0.3
				c0.2-0.2,0.3-0.5,0.3-0.8c0-0.3-0.1-0.6-0.3-0.8c-0.2-0.2-0.5-0.3-0.8-0.3h-0.6v2.2L320.8,123.1L320.8,123.1z"/>
		</g>
		<g>
			<path class="st3" d="M327.7,94.3v0.2h-0.5v1.2h-0.3v-1.2h-0.5v-0.2H327.7z"/>
			<path class="st3" d="M328.1,94.3l0.4,0.5l0.4-0.5h0.2v1.4H329v-1l0,0l-0.4,0.5h0l-0.4-0.5l0,0v1h-0.2v-1.4H328.1z"/>
		</g>
	</g>
	<g>
		<g>
			<path class="st3" d="M352.8,94.7c1.2,0,2.3,0,3.4,0c0,0.4,0,0.8,0,1.2c-0.1,0-0.3,0-0.4,0c0-0.3,0-0.5,0-0.9c-0.6,0-1.3,0-1.9,0
				v1.4c0.3,0,0.6,0,0.9,0c0-0.2,0-0.4,0-0.5c0.1,0,0.3,0,0.4,0c0,0.5,0,1.1,0,1.6c-0.1,0-0.3,0-0.4,0c0-0.2,0-0.4,0-0.6
				c-0.3,0-0.6,0-0.9,0v1.4c0.6,0,1.3,0,1.9,0c0-0.3,0-0.5,0-0.9c0.1,0,0.3,0,0.4,0c0,0.4,0,0.9,0,1.3h-3.4c0-0.1,0-0.3,0-0.4
				c0.2,0,0.4,0,0.5,0c0-1.1,0-2.1,0-3.2c-0.2,0-0.4,0-0.5,0V94.7z"/>
			<path class="st3" d="M356.9,94.7c0.4,0,0.9,0,1.4,0c0.4,0.6,0.7,1.3,1.2,1.9c0.3,0.5,0.5,1,0.8,1.4c0-1,0-1.9,0-2.9
				c-0.2,0-0.4,0-0.6,0v-0.4c0.5,0,1.1,0,1.7,0v0.4c-0.2,0-0.4,0-0.5,0c0,1.2,0,2.5,0,3.7c-0.3,0-0.5,0-0.8,0
				c-0.4-0.6-0.6-1.3-1-1.8c-0.3-0.5-0.6-1.1-0.9-1.6c0,1,0,2,0,3c0.2,0,0.4,0,0.6,0c0,0.1,0,0.3,0,0.4c-0.5,0-1.1,0-1.7,0
				c0-0.1,0-0.3,0-0.4c0.2,0,0.4,0,0.5,0v-3.2c-0.2,0-0.4,0-0.5,0C356.9,95,356.9,94.9,356.9,94.7"/>
			<path class="st3" d="M363.4,95.1c-0.4,0-0.9,0.4-1,0.8c-0.1,0.5-0.2,1,0,1.5c0.1,0.3,0.3,0.6,0.5,0.7c0.6,0.4,1.6,0.2,2-0.3
				c0.3-0.5,0.3-1.2,0.2-1.7c-0.1-0.3-0.3-0.6-0.5-0.8C364.2,95.1,363.8,95.1,363.4,95.1 M363.2,94.7c0.6-0.1,1.2,0,1.7,0.3
				c0.4,0.2,0.6,0.7,0.7,1.2c0,0.4,0.1,0.9,0,1.4c-0.1,0.4-0.4,0.8-0.7,1c-0.6,0.4-1.4,0.3-2.1,0.2c-0.3-0.1-0.6-0.3-0.8-0.6
				c-0.4-0.6-0.4-1.3-0.3-2C361.8,95.4,362.4,94.8,363.2,94.7"/>
			<path class="st3" d="M367.2,95.1v1.5c0.4,0,0.7,0,1.1,0c0.3-0.1,0.5-0.3,0.6-0.6c0-0.2,0-0.5-0.2-0.6
				C368.3,95.1,367.7,95.1,367.2,95.1 M366.1,94.7c0.8,0,1.6,0,2.5,0.1c0.3,0.1,0.6,0.3,0.8,0.5c0.1,0.4,0.2,0.9-0.2,1.2
				c-0.1,0.2-0.4,0.2-0.6,0.3c0.1,0.1,0.2,0.1,0.3,0.2c0.3,0.3,0.3,0.7,0.5,1.2c0.1,0.2,0.4,0.1,0.5,0.2c0,0.1,0,0.3,0,0.4
				c-0.3,0-0.6,0-0.9,0c-0.1-0.6-0.3-1.2-0.7-1.6c-0.4-0.1-0.7-0.1-1.1-0.1c0,0.4,0,0.9,0,1.4c0.2,0,0.4,0,0.6,0c0,0.1,0,0.3,0,0.4
				c-0.6,0-1.2,0-1.7,0c0-0.1,0-0.3,0-0.4c0.2,0,0.4,0,0.5,0c0-1.1,0-2.1,0-3.2c-0.2,0-0.4,0-0.5,0V94.7L366.1,94.7z"/>
			<path class="st3" d="M350.3,95.3c-0.2,0.6-0.5,1.2-0.7,1.7c0.5,0,1,0,1.4,0C350.7,96.5,350.5,95.9,350.3,95.3 M350,94.7
				c0.2,0,0.4,0,0.6,0c0.4,1,0.9,2,1.3,3c0.1,0.2,0.1,0.4,0.3,0.6c0.1,0,0.3,0,0.4,0.1c0,0.1,0,0.3,0,0.4c-0.5,0-1.1,0-1.7,0
				c0-0.1,0-0.3,0-0.4c0.2,0,0.4,0,0.6,0c-0.1-0.3-0.2-0.6-0.3-0.9c-0.6,0-1.2,0-1.8,0c-0.1,0.3-0.2,0.6-0.3,0.9c0.2,0,0.4,0,0.5,0
				c0,0.1,0,0.3,0,0.4c-0.5,0-1.1,0-1.6,0c0-0.1,0-0.3,0-0.4c0.1,0,0.4,0,0.5,0c0.3-0.9,0.7-1.7,1.1-2.6
				C349.7,95.4,349.8,95.1,350,94.7"/>
			<path class="st3" d="M347.9,102.3c1.7,0,3.3,0,5,0c0.2,0.2,3.8,5,5.1,6.6c1.9,2.5,3.9,4.9,5.8,7.4c0.9,1.1,1.8,2.2,2.7,3.4
				c0-4.7,0-9.5,0-14.2c-3.6,0-7.3,0-10.9,0c0.7-1.1,1.4-2.1,2.1-3.1c4.1,0,8.1,0,12.2,0v22.1c-1.4,0-2.8,0-4.2,0
				c-0.1,0-0.2-0.2-0.3-0.3c-1-1.3-2-2.5-3-3.8c-0.5-0.6-2-2.5-1.5-1.9c4.4,5.7,3,4-3.6-4.5c-1.2-1.5-2.4-3-3.5-4.4
				c-0.9-1-1.6-2.1-2.5-3.1c0,5,0,10,0,15c3.8,0,7.6,0,11.4,0c-0.3,0.3-0.5,0.6-0.7,0.9c-0.6,0.7-1.2,1.4-1.8,2.2
				c-4.1,0-8.3,0-12.4,0C347.9,117.1,347.9,109.7,347.9,102.3"/>
		</g>
	</g>
	<g>
		<g>
			<path class="st3" d="M129.6,122.5c0,0.7-0.3,0.9-0.7,0.9c-0.3,0-0.7-0.1-0.7-0.9v-2.1h-0.5v2.1c0,1,0.4,1.5,1.2,1.5
				c0.8,0,1.2-0.5,1.2-1.5v-2.1h-0.5V122.5z"/>
			<polygon class="st3" points="133,122.7 131.6,120.4 131,120.4 131,123.9 131.6,123.9 131.6,121.5 133,123.9 133.6,123.9 
				133.6,120.4 133,120.4 			"/>
			<polygon class="st3" points="135,122.4 136.3,122.4 136.3,121.8 135,121.8 135,121 136.3,121 136.3,120.4 134.4,120.4 
				134.4,123.9 136.4,123.9 136.4,123.3 135,123.3 			"/>
			<polygon class="st3" points="139.4,120.4 138.7,120.4 138,121.6 137.3,120.4 136.6,120.4 137.6,122.1 136.6,123.9 137.3,123.9 
				138,122.7 138.7,123.9 139.4,123.9 138.4,122.1 			"/>
			<path class="st3" d="M141.3,120.4h-1.4v3.5h0.5v-1.4h0.8c0.6,0,1-0.4,1-1.1C142.1,120.6,141.7,120.4,141.3,120.4z M140.4,121h0.9
				c0.2,0,0.3,0,0.3,0.5c0,0.4-0.1,0.5-0.4,0.5h-0.8V121z"/>
			<path class="st3" d="M144.2,120.3c-0.7,0-1.5,0.6-1.5,1.8c0,1.3,0.7,1.8,1.5,1.8c0.7,0,1.5-0.6,1.5-1.8
				C145.7,120.8,144.9,120.3,144.2,120.3z M144.2,123.4c-0.4,0-0.9-0.3-0.9-1.2c0-0.9,0.5-1.2,0.9-1.2c0.4,0,0.9,0.3,0.9,1.2
				C145.1,123,144.6,123.4,144.2,123.4z"/>
			<path class="st3" d="M147.4,121.8c-0.6-0.1-0.7-0.2-0.7-0.5c0-0.3,0.3-0.4,0.5-0.4c0.4,0,0.6,0.2,0.6,0.5v0.1h0.5v-0.2
				c0-0.7-0.4-1.2-1.2-1.2c-0.5,0-1.1,0.3-1.1,1.1c0,0.7,0.5,0.9,1,1l0.1,0c0.5,0.1,0.7,0.2,0.7,0.5c0,0.2-0.1,0.5-0.6,0.5
				c-0.4,0-0.6-0.1-0.7-0.7v-0.1H146v0.2c0,0.9,0.4,1.3,1.2,1.3c0.7,0,1.2-0.4,1.2-1.2C148.3,122,147.7,121.9,147.4,121.8z"/>
			<polygon class="st3" points="149.4,122.4 150.7,122.4 150.7,121.8 149.4,121.8 149.4,121 150.8,121 150.8,120.4 148.9,120.4 
				148.9,123.9 150.8,123.9 150.8,123.3 149.4,123.3 			"/>
			<path class="st3" d="M152.8,120.4h-1.5v3.5h1.5c0.8,0,1.3-0.7,1.3-1.8C154.1,121,153.6,120.4,152.8,120.4z M151.9,121h0.9
				c0.3,0,0.7,0.1,0.7,1.2c0,0.7-0.2,1.2-0.7,1.2h-0.9V121z"/>
			<path class="st3" d="M157.1,121.8c-0.6-0.1-0.7-0.2-0.7-0.5c0-0.3,0.3-0.4,0.5-0.4c0.4,0,0.6,0.2,0.6,0.5v0.1h0.5v-0.2
				c0-0.7-0.4-1.2-1.2-1.2c-0.5,0-1.1,0.3-1.1,1.1c0,0.7,0.5,0.9,1,1l0.1,0c0.5,0.1,0.7,0.2,0.7,0.5c0,0.2-0.1,0.5-0.6,0.5
				c-0.4,0-0.6-0.1-0.7-0.7v-0.1h-0.5v0.2c0,0.9,0.4,1.3,1.2,1.3c0.7,0,1.2-0.4,1.2-1.2C158.1,122,157.5,121.9,157.1,121.8z"/>
			<polygon class="st3" points="159,122.4 160.6,122.4 160.6,121.8 159,121.8 159,121 160.7,121 160.7,120.4 158.5,120.4 
				158.5,123.9 160.7,123.9 160.7,123.3 159,123.3 			"/>
			<path class="st3" d="M163.4,123.1c0-0.4,0-0.7-0.3-0.9c0.2-0.2,0.3-0.4,0.3-0.8c0-0.6-0.3-1-0.9-1h-1.5v3.5h0.5v-1.4h0.8
				c0.3,0,0.4,0,0.4,0.6c0,0.5,0,0.6,0.1,0.7l0,0.1h0.7l-0.2-0.2C163.5,123.6,163.5,123.4,163.4,123.1z M162.9,121.4
				c0,0.4-0.2,0.5-0.4,0.5h-0.9V121h0.9C162.8,121,162.9,121,162.9,121.4z"/>
			<polygon class="st3" points="165.1,122.9 164.2,120.4 163.5,120.4 164.8,123.9 165.4,123.9 166.7,120.4 166,120.4 			"/>
			<rect x="166.9" y="120.4" class="st3" width="0.7" height="3.5"/>
			<path class="st3" d="M170.1,122.5c-0.1,0.8-0.5,0.9-0.8,0.9c-0.8,0-0.9-0.9-0.9-1.2c0-0.8,0.3-1.2,0.9-1.2c0.2,0,0.7,0.1,0.8,0.7
				v0.1h0.5v-0.2c-0.1-1-0.7-1.3-1.3-1.3c-1,0-1.4,1-1.4,1.8c0,1.1,0.5,1.8,1.4,1.8c0.7,0,1.3-0.6,1.3-1.4v-0.2h-0.5V122.5z"/>
			<polygon class="st3" points="171.5,122.4 173.1,122.4 173.1,121.8 171.5,121.8 171.5,121 173.1,121 173.1,120.4 170.9,120.4 
				170.9,123.9 173.1,123.9 173.1,123.3 171.5,123.3 			"/>
			<path class="st3" d="M176.5,120.3c-0.7,0-1.5,0.6-1.5,1.8c0,1.3,0.7,1.8,1.5,1.8c0.7,0,1.5-0.6,1.5-1.8
				C177.9,120.8,177.2,120.3,176.5,120.3z M176.5,123.4c-0.4,0-0.9-0.3-0.9-1.2c0-0.9,0.5-1.2,0.9-1.2s0.9,0.3,0.9,1.2
				C177.4,123,176.9,123.4,176.5,123.4z"/>
			<polygon class="st3" points="180.7,122.7 179.1,120.4 178.5,120.4 178.5,123.9 179.1,123.9 179.1,121.5 180.8,123.9 181.4,123.9 
				181.4,120.4 180.7,120.4 			"/>
			<polygon class="st3" points="182.6,120.4 182.1,120.4 182.1,123.9 184.2,123.9 184.2,123.3 182.6,123.3 			"/>
			<polygon class="st3" points="185.7,120.4 184.9,121.7 184.1,120.4 183.4,120.4 184.6,122.4 184.6,123.9 185.2,123.9 185.2,122.4 
				186.4,120.4 			"/>
		</g>
		<g>
			<path class="st3" d="M156.7,80.5l-33.7,15l33.6,17.1l33.6-17.1L156.7,80.5z M126.4,95.6l30.3-13.5l30.2,13.5L156.6,111
				L126.4,95.6z"/>
			<g>
				<polygon class="st3" points="146.3,101.6 148.5,101.6 148.5,97.4 153.9,97.4 153.9,95.7 148.5,95.7 148.5,93.5 154.2,93.5 
					154.2,91.8 146.3,91.8 				"/>
				<polygon class="st3" points="163.9,91.8 161.2,99 158.5,91.9 158.5,91.8 155.9,91.8 155.9,101.6 157.7,101.6 157.6,94.1 
					160.4,101.6 162,101.6 164.8,94.1 164.7,101.6 166.5,101.6 166.5,91.8 				"/>
			</g>
		</g>
		<g>
			<g>
				<path class="st3" d="M142.2,118.6h0.1h1v-2h1.7c1.1,0,1.5-0.9,1.5-1.7c0-1.1-0.6-1.8-1.6-1.8h-2.8v5.2V118.6z M143.4,114.2h1.5
					c0.4,0,0.6,0.2,0.6,0.7c0,0.5-0.2,0.7-0.7,0.7h-1.4L143.4,114.2L143.4,114.2z"/>
				<path class="st3" d="M150,113.1h-2.9v5.5h1.2v-2h1.7c1.1,0,1.5-0.9,1.5-1.7C151.5,113.8,151,113.1,150,113.1z M148.3,114.2h1.5
					c0.4,0,0.6,0.2,0.6,0.7c0,0.5-0.2,0.7-0.7,0.7h-1.4L148.3,114.2L148.3,114.2z"/>
				<path class="st3" d="M156.2,117.4c0-0.6-0.1-1.2-0.5-1.4c0.4-0.2,0.6-0.7,0.6-1.3c0-1-0.5-1.5-1.6-1.5h-2.9v5.5h1.2v-2.1h1.5
					c0.6,0,0.7,0.4,0.7,1.2c0,0.4,0,0.7,0.1,0.9l0,0.1h1.3l-0.1-0.2C156.2,118.3,156.2,117.9,156.2,117.4z M152.9,114.2h1.5
					c0.5,0,0.7,0.2,0.7,0.6c0,0.5-0.2,0.6-0.7,0.6h-1.5V114.2z"/>
				<path class="st3" d="M159.3,112.9c-1.7,0-2.7,1.1-2.7,2.9c0,1.8,1,2.9,2.7,2.9c1.7,0,2.7-1.1,2.7-2.9
					C162.1,114,161,112.9,159.3,112.9z M159.3,117.7c-1,0-1.5-0.7-1.5-1.8c0-1.1,0.6-1.8,1.5-1.8s1.5,0.7,1.5,1.8
					C160.9,117,160.3,117.7,159.3,117.7z"/>
				<polygon class="st3" points="167.4,113.6 165.4,118.6 164.2,118.6 162,113.1 163.4,113.1 164.9,117.1 166.3,113.1 167.4,113.1 
					167.6,113.1 				"/>
				<path class="st3" d="M175.1,113.1h-2.7v5.5h2.9c1.6,0,2.2-1.4,2.2-2.7C177.5,114.7,177.3,113.1,175.1,113.1z M173.7,114.2h1.2
					c0.6,0,1.4,0.2,1.4,1.7s-0.7,1.7-1.4,1.7h-1.3L173.7,114.2L173.7,114.2z"/>
			</g>
			<polygon class="st3" points="169,117.5 169,116.3 171.6,116.3 171.6,115.3 169,115.3 169,114.2 171.7,114.2 171.7,113.1 
				167.9,113.1 167.9,118.6 171.7,118.6 171.7,117.5 			"/>
			<path class="st3" d="M139.5,113h-1.4l-2.3,5.5l0,0.1h1.3l0.5-1.4h2.4l0.5,1.4h1.3L139.5,113z M139.6,116.3H138l0.9-2.2
				L139.6,116.3z"/>
		</g>
	</g>
	<g>
		<g>
			<rect x="203.4" y="115.4" class="st4" width="7.8" height="3.9"/>
			<rect x="211.2" y="115.4" class="st5" width="7.8" height="3.9"/>
			<rect x="219" y="115.4" class="st6" width="7.8" height="3.9"/>
			<rect x="226.7" y="115.4" class="st7" width="7.8" height="3.9"/>
		</g>
		<g>
			<g>
				<path class="st3" d="M235.7,115.5h6v1.3h-4.5v2.1h4.3v1.3h-4.3v2.4h4.6v1.3h-6V115.5z"/>
				<path class="st3" d="M243.4,115.5h4.2c1.7,0,2.2,1.3,2.2,2.7c0,1.3-0.6,2.6-2.2,2.6h-2.8v3.2h-1.4V115.5z M244.8,119.4h2.3
					c0.8,0,1.3-0.3,1.3-1.3c0-1.1-0.6-1.3-1.2-1.3h-2.4V119.4z"/>
				<path class="st3" d="M251.4,115.5h3.5c2.6,0,3.2,1.9,3.2,4.3c0,1.8-0.6,4.2-2.9,4.2h-3.8V115.5z M252.8,122.7h1.9
					c1,0,2-0.4,2-2.9c0-2.8-1.3-2.9-2.1-2.9h-1.9V122.7z"/>
			</g>
			<g>
				<path class="st3" d="M262.1,115.5c1.2,0,2.2,1,2.2,2.2s-1,2.2-2.2,2.2c-1.2,0-2.2-1-2.2-2.2
					C259.8,116.6,260.8,115.5,262.1,115.5z M262.1,119.8c1.1,0,1.9-0.9,1.9-2s-0.9-2-1.9-2s-1.9,0.9-1.9,2
					C260.1,118.9,261,119.8,262.1,119.8z M261.9,117.8h-0.5v1h-0.3v-2.1h1c0.5,0,0.8,0.2,0.8,0.6c0,0.4-0.3,0.5-0.6,0.6l0.7,1h-0.3
					L261.9,117.8z M261.4,117.6h0.6c0.3,0,0.6-0.1,0.6-0.4c0-0.3-0.3-0.4-0.6-0.4h-0.6V117.6z"/>
			</g>
		</g>
		<g>
			<path class="st3" d="M268,117.6c0.1-0.1,0.2-0.3,0.2-0.5v-0.9c0-0.2-0.1-0.3-0.2-0.5c-0.1-0.1-0.3-0.2-0.5-0.2h-1v2.2h1
				C267.8,117.8,267.9,117.7,268,117.6z M267.9,117.1c0,0.1,0,0.2-0.1,0.2c-0.1,0.1-0.1,0.1-0.2,0.1H267v-1.5h0.6
				c0.1,0,0.2,0,0.2,0.1c0.1,0.1,0.1,0.1,0.1,0.2V117.1z"/>
			<polygon class="st3" points="270,117.4 268.9,117.4 268.9,116.8 269.9,116.8 269.9,116.5 268.9,116.5 268.9,115.9 270,115.9 
				270,115.6 268.6,115.6 268.6,117.8 270,117.8 			"/>
			<path class="st3" d="M270.9,117.8h0.4c0.2,0,0.4-0.1,0.5-0.2l0-0.1l-0.2-0.2h-0.1l0,0c0,0-0.1,0.1-0.1,0.1c0,0-0.1,0-0.1,0h-0.3
				c-0.1,0-0.2,0-0.2-0.1c-0.1-0.1-0.1-0.1-0.1-0.2v-0.9c0-0.1,0-0.2,0.1-0.2c0.1-0.1,0.1-0.1,0.2-0.1h0.3c0.1,0,0.1,0,0.1,0
				s0.1,0.1,0.1,0.1l0,0h0.1l0.2-0.2l0-0.1c-0.1-0.2-0.3-0.2-0.5-0.2h-0.3c-0.2,0-0.3,0.1-0.4,0.2c-0.1,0.1-0.2,0.3-0.2,0.5v1
				c0,0.2,0.1,0.3,0.2,0.5C270.6,117.7,270.8,117.8,270.9,117.8z"/>
			<polygon class="st3" points="273.4,117.4 272.4,117.4 272.4,115.6 272,115.6 272,117.8 273.4,117.8 			"/>
			<path class="st3" d="M274.1,117.2h0.8l0.2,0.6h0.3v-0.1l-0.7-2.1h-0.3l-0.7,2v0.2h0.3L274.1,117.2z M274.3,116.8l0.3-0.7l0.3,0.7
				H274.3z"/>
			<path class="st3" d="M276.3,116.9h0.3l0.5,0.9h0.3v-0.2l-0.4-0.7c0.1,0,0.2-0.1,0.2-0.2c0.1-0.1,0.1-0.2,0.1-0.4v-0.2
				c0-0.2-0.1-0.3-0.2-0.4c-0.1-0.1-0.3-0.2-0.4-0.2h-0.9v2.2h0.4V116.9L276.3,116.9z M277,116.3c0,0.1,0,0.2-0.1,0.2
				c0,0-0.1,0.1-0.2,0.1h-0.5v-0.7h0.5c0.1,0,0.2,0,0.2,0.1c0,0,0.1,0.1,0.1,0.2V116.3z"/>
			<path class="st3" d="M278.5,117.2h0.8l0.2,0.6h0.3v-0.1l-0.7-2.1h-0.3l-0.7,2v0.2h0.3L278.5,117.2z M278.6,116.8l0.3-0.7l0.3,0.7
				H278.6z"/>
			<path class="st3" d="M280.5,117.8h0.4c0.2,0,0.4-0.1,0.5-0.2l0-0.1l-0.2-0.2h-0.1l0,0c0,0-0.1,0.1-0.1,0.1c0,0-0.1,0-0.1,0h-0.3
				c-0.1,0-0.2,0-0.2-0.1c-0.1-0.1-0.1-0.1-0.1-0.2v-0.9c0-0.1,0-0.2,0.1-0.2c0.1-0.1,0.1-0.1,0.2-0.1h0.3c0.1,0,0.1,0,0.1,0
				c0,0,0.1,0.1,0.1,0.1l0,0h0.1l0.2-0.2l0-0.1c-0.1-0.2-0.3-0.2-0.5-0.2h-0.3c-0.2,0-0.3,0.1-0.4,0.2c-0.1,0.1-0.2,0.3-0.2,0.5v1
				c0,0.2,0.1,0.3,0.2,0.5C280.2,117.7,280.4,117.8,280.5,117.8z"/>
			<rect x="281.8" y="115.6" class="st3" width="0.4" height="2.2"/>
			<path class="st3" d="M283.5,115.5h-0.4c-0.2,0-0.3,0.1-0.4,0.2c-0.1,0.1-0.2,0.3-0.2,0.5v1c0,0.2,0.1,0.3,0.2,0.5
				c0.1,0.1,0.3,0.2,0.4,0.2h0.4c0.2,0,0.3-0.1,0.4-0.2c0.1-0.1,0.2-0.3,0.2-0.5v-1c0-0.2-0.1-0.3-0.2-0.5
				C283.9,115.6,283.7,115.5,283.5,115.5z M282.9,116.2c0-0.1,0-0.2,0.1-0.2c0.1-0.1,0.1-0.1,0.2-0.1h0.3c0.1,0,0.2,0,0.2,0.1
				c0.1,0.1,0.1,0.1,0.1,0.2v0.9c0,0.1,0,0.2-0.1,0.2c-0.1,0.1-0.1,0.1-0.2,0.1h-0.3c-0.1,0-0.1,0-0.2-0.1c-0.1-0.1-0.1-0.1-0.1-0.2
				V116.2z"/>
			<path class="st3" d="M285.8,115.6v1c0,0.2,0,0.4,0,0.6l-0.4-0.6l-0.5-0.9h-0.3v2.2h0.4v-1c0-0.2,0-0.4,0-0.6l0.4,0.6l0.5,0.9h0.3
				v-2.2H285.8z"/>
			<path class="st3" d="M267.3,118.8l-0.7,2v0.2h0.3l0.2-0.6h0.8l0.2,0.6h0.3v-0.1l-0.8-2.1H267.3z M267.2,120.1l0.3-0.8l0.3,0.8
				H267.2z"/>
			<path class="st3" d="M270.5,121.1h0.4v-2.2h-0.4l-0.3,0.6c-0.1,0.2-0.2,0.3-0.2,0.5c-0.1-0.2-0.2-0.3-0.2-0.5l-0.3-0.6H269v2.2
				h0.4v-1.5c0.1,0.1,0.1,0.2,0.1,0.2l0.3,0.6h0.3l0.3-0.6c0,0,0.1-0.1,0.1-0.2L270.5,121.1L270.5,121.1z"/>
			<path class="st3" d="M273.1,120.5v-0.2c0-0.1,0-0.2-0.1-0.3c0,0-0.1-0.1-0.1-0.1c0,0,0.1-0.1,0.1-0.1c0.1-0.1,0.1-0.2,0.1-0.3
				v-0.2c0-0.2-0.1-0.3-0.2-0.4c-0.1-0.1-0.2-0.1-0.4-0.1h-0.9v2.2h0.9c0.2,0,0.3,0,0.4-0.1C273,120.8,273.1,120.7,273.1,120.5z
				 M272.7,119.6c0,0.1,0,0.1-0.1,0.2c0,0-0.1,0.1-0.2,0.1h-0.5v-0.6h0.5c0.1,0,0.2,0,0.2,0.1c0,0,0.1,0.1,0.1,0.2V119.6z
				 M271.9,120.1h0.5c0.2,0,0.3,0.1,0.3,0.2v0.2c0,0.1,0,0.2-0.3,0.2h-0.5V120.1z"/>
			<rect x="273.4" y="118.8" class="st3" width="0.4" height="2.2"/>
			<polygon class="st3" points="275.7,119.2 275.7,118.8 274.2,118.8 274.2,121.1 275.7,121.1 275.7,120.7 274.6,120.7 274.6,120.1 
				275.6,120.1 275.6,119.8 274.6,119.8 274.6,119.2 			"/>
			<path class="st3" d="M276.8,120.2l0.5,0.9h0.3v-2.2h-0.4v1c0,0.2,0,0.4,0,0.6l-0.4-0.6l-0.5-0.9h-0.3v2.2h0.4v-1
				c0-0.2,0-0.4,0-0.6L276.8,120.2z"/>
			<polygon class="st3" points="279.1,121.1 279.1,119.2 279.7,119.2 279.7,118.8 278.1,118.8 278.1,119.2 278.7,119.2 278.7,121.1 
							"/>
			<path class="st3" d="M280.2,120.4h0.8l0.2,0.6h0.3v-0.1l-0.7-2.1h-0.3l-0.7,2v0.2h0.3L280.2,120.4z M280.3,120.1l0.3-0.7l0.3,0.7
				H280.3z"/>
			<polygon class="st3" points="282.3,118.8 281.9,118.8 281.9,121.1 283.3,121.1 283.3,120.7 282.3,120.7 			"/>
			<path class="st3" d="M267.5,122.1h-0.8v2.2h0.4v-0.9h0.5c0.2,0,0.3-0.1,0.4-0.2c0.1-0.1,0.2-0.2,0.2-0.4v-0.2
				c0-0.2-0.1-0.3-0.2-0.4C267.8,122.1,267.7,122.1,267.5,122.1z M267,122.4h0.4c0.1,0,0.2,0,0.2,0.1s0.1,0.1,0.1,0.2v0.2
				c0,0.1,0,0.2-0.1,0.2c0,0-0.1,0.1-0.2,0.1H267V122.4z"/>
			<path class="st3" d="M269.9,123.3c0.1-0.1,0.1-0.2,0.1-0.4v-0.2c0-0.2-0.1-0.3-0.2-0.4c-0.1-0.1-0.3-0.2-0.4-0.2h-0.9v2.2h0.4
				v-0.9h0.4l0.5,0.9h0.3v-0.2l-0.4-0.7C269.7,123.4,269.8,123.3,269.9,123.3z M268.8,122.4h0.5c0.1,0,0.2,0,0.2,0.1
				s0.1,0.1,0.1,0.2v0.2c0,0.1,0,0.2-0.1,0.2c0,0-0.1,0.1-0.2,0.1h-0.5V122.4z"/>
			<path class="st3" d="M271.4,122.1H271c-0.2,0-0.3,0.1-0.5,0.2c-0.1,0.1-0.2,0.3-0.2,0.5v1c0,0.2,0.1,0.3,0.2,0.5
				c0.1,0.1,0.3,0.2,0.5,0.2h0.4c0.2,0,0.3-0.1,0.5-0.2c0.1-0.1,0.2-0.3,0.2-0.5v-1c0-0.2-0.1-0.3-0.2-0.5S271.6,122.1,271.4,122.1z
				 M270.7,122.8c0-0.1,0-0.2,0.1-0.2c0.1-0.1,0.1-0.1,0.2-0.1h0.3c0.1,0,0.2,0,0.2,0.1c0.1,0.1,0.1,0.1,0.1,0.2v0.9
				c0,0.1,0,0.2-0.1,0.2c-0.1,0.1-0.1,0.1-0.2,0.1H271c-0.1,0-0.2,0-0.2-0.1c-0.1-0.1-0.1-0.1-0.1-0.2L270.7,122.8L270.7,122.8z"/>
			<path class="st3" d="M273.5,122.1h-1v2.2h1c0.2,0,0.3-0.1,0.5-0.2c0.1-0.1,0.2-0.3,0.2-0.5v-0.9c0-0.2-0.1-0.3-0.2-0.5
				C273.8,122.1,273.6,122.1,273.5,122.1z M272.8,122.4h0.6c0.1,0,0.2,0,0.2,0.1c0.1,0.1,0.1,0.1,0.1,0.2v0.9c0,0.1,0,0.2-0.1,0.2
				c-0.1,0.1-0.1,0.1-0.2,0.1h-0.6V122.4z"/>
			<path class="st3" d="M275.9,123.6c0,0.1,0,0.2-0.1,0.2c-0.1,0.1-0.1,0.1-0.2,0.1h-0.3c-0.1,0-0.2,0-0.2-0.1
				c-0.1-0.1-0.1-0.1-0.1-0.2v-1.6h-0.4v1.6c0,0.2,0.1,0.3,0.2,0.5c0.1,0.1,0.3,0.2,0.5,0.2h0.3c0.2,0,0.3-0.1,0.5-0.2
				c0.1-0.1,0.2-0.3,0.2-0.5v-1.6h-0.4V123.6L275.9,123.6z"/>
			<path class="st3" d="M277.9,123.8L277.9,123.8c-0.1,0.1-0.1,0.1-0.1,0.1c0,0-0.1,0-0.1,0h-0.3c-0.1,0-0.2,0-0.2-0.1
				c-0.1-0.1-0.1-0.1-0.1-0.2v-0.9c0-0.1,0-0.2,0.1-0.2c0.1-0.1,0.1-0.1,0.2-0.1h0.3c0.1,0,0.1,0,0.1,0c0,0,0.1,0.1,0.1,0.1l0,0h0.1
				l0.2-0.2l-0.1-0.1c-0.1-0.2-0.3-0.2-0.5-0.2h-0.3c-0.2,0-0.3,0.1-0.5,0.2c-0.1,0.1-0.2,0.3-0.2,0.5v1c0,0.2,0.1,0.3,0.2,0.5
				c0.1,0.1,0.3,0.2,0.5,0.2h0.4c0.2,0,0.4-0.1,0.5-0.2l0.1-0.1l-0.2-0.2L277.9,123.8L277.9,123.8z"/>
			<polygon class="st3" points="278.3,122.4 278.9,122.4 278.9,124.3 279.3,124.3 279.3,122.4 280,122.4 280,122.1 278.3,122.1 			
				"/>
			<path class="st3" d="M281.1,122.1h-0.4c-0.2,0-0.3,0.1-0.5,0.2s-0.2,0.3-0.2,0.5v1c0,0.2,0.1,0.3,0.2,0.5
				c0.1,0.1,0.3,0.2,0.5,0.2h0.4c0.2,0,0.3-0.1,0.5-0.2c0.1-0.1,0.2-0.3,0.2-0.5v-1c0-0.2-0.1-0.3-0.2-0.5
				C281.4,122.1,281.2,122.1,281.1,122.1z M280.4,122.8c0-0.1,0-0.2,0.1-0.2c0.1-0.1,0.1-0.1,0.2-0.1h0.3c0.1,0,0.2,0,0.2,0.1
				c0.1,0.1,0.1,0.1,0.1,0.2v0.9c0,0.1,0,0.2-0.1,0.2c-0.1,0.1-0.1,0.1-0.2,0.1h-0.3c-0.1,0-0.2,0-0.2-0.1c-0.1-0.1-0.1-0.1-0.1-0.2
				L280.4,122.8L280.4,122.8z"/>
		</g>
		<polygon class="st3" points="283.1,115.2 283.3,115.4 283.7,115.2 283.5,114.9 		"/>
		<g>
			<path class="st3" d="M204.6,122.9c0,0.2,0,0.4,0,0.6l-0.3-0.6l-0.4-0.8h-0.2v1.9h0.2v-0.8c0-0.2,0-0.4,0-0.6l0.3,0.6l0.4,0.8h0.2
				v-1.9h-0.2V122.9z"/>
			<path class="st3" d="M205.7,122.1h-0.1c-0.1,0-0.2,0-0.2,0.1c-0.1,0.1-0.1,0.2-0.1,0.2v0.3c0,0.1,0,0.2,0.1,0.2
				c0.1,0.1,0.1,0.1,0.2,0.1h0.1c0.1,0,0.2,0,0.2-0.1c0.1-0.1,0.1-0.2,0.1-0.2v-0.3c0-0.1,0-0.2-0.1-0.2
				C205.9,122.1,205.8,122.1,205.7,122.1z M205.8,122.5v0.3c0,0.1,0,0.1,0,0.1c0,0-0.1,0-0.1,0h-0.1c0,0-0.1,0-0.1,0
				c0,0,0-0.1,0-0.1v-0.3c0-0.1,0-0.1,0-0.1s0.1,0,0.1,0h0.1c0,0,0.1,0,0.1,0C205.8,122.4,205.8,122.4,205.8,122.5z"/>
			<path class="st3" d="M208.3,123.1c0.1-0.1,0.1-0.2,0.1-0.3v-0.2c0-0.1,0-0.3-0.1-0.3c-0.1-0.1-0.2-0.1-0.3-0.1h-0.7v1.9h0.2v-0.7
				h0.3l0.4,0.7h0.2v-0.1l-0.3-0.7C208.2,123.2,208.3,123.2,208.3,123.1z M207.5,122.3h0.4c0.1,0,0.1,0,0.2,0.1c0,0,0.1,0.1,0.1,0.2
				v0.1c0,0.1,0,0.2-0.1,0.2c0,0-0.1,0.1-0.2,0.1h-0.4V122.3z"/>
			<path class="st3" d="M209.3,122.6h-0.2c-0.1,0-0.2,0-0.3,0.1c-0.1,0.1-0.1,0.2-0.1,0.3v0.4c0,0.1,0,0.3,0.1,0.3
				c0.1,0.1,0.2,0.1,0.3,0.1h0.2c0.1,0,0.3-0.1,0.4-0.2l0,0l-0.1-0.1h-0.1l0,0c0,0-0.1,0.1-0.1,0.1s-0.1,0-0.1,0h-0.2
				c-0.1,0-0.1,0-0.2-0.1c0-0.1-0.1-0.1-0.1-0.2v-0.1h0.9v-0.3c0-0.1,0-0.3-0.1-0.3C209.6,122.7,209.5,122.6,209.3,122.6z
				 M208.9,123.2L208.9,123.2c0-0.2,0-0.2,0.1-0.3c0,0,0.1-0.1,0.2-0.1h0.2c0.1,0,0.1,0,0.2,0.1c0,0.1,0.1,0.1,0.1,0.2v0.1H208.9z"
				/>
			<path class="st3" d="M210.7,123.7h-0.3c0,0-0.1,0-0.1,0l0,0c0,0,0-0.1,0.1-0.1h0.2c0.1,0,0.2,0,0.3-0.1c0.1-0.1,0.1-0.2,0.1-0.3
				V123c0-0.1,0-0.1-0.1-0.2h0.2v-0.2h-0.7c-0.1,0-0.2,0-0.3,0.1c-0.1,0.1-0.1,0.2-0.1,0.3v0.1c0,0.1,0,0.2,0.1,0.2
				c0,0,0.1,0.1,0.1,0.1c-0.1,0-0.1,0.1-0.1,0.2c0,0.1,0,0.2,0.1,0.2c0,0,0.1,0.1,0.3,0.1h0h0.2c0.1,0,0.1,0,0.1,0c0,0,0,0.1,0,0.1
				c0,0.1,0,0.1,0,0.1c0,0-0.1,0-0.1,0h-0.3c-0.1,0-0.1,0-0.1,0l0,0l-0.2,0.2l0,0c0.1,0.1,0.2,0.1,0.3,0.1h0.4c0.1,0,0.2,0,0.3-0.1
				c0.1-0.1,0.1-0.2,0.1-0.3c0-0.1,0-0.2-0.1-0.3S210.9,123.7,210.7,123.7z M210.3,123.2v-0.1c0-0.1,0-0.1,0.1-0.2
				c0,0,0.1-0.1,0.1-0.1h0.2c0,0,0.1,0,0.1,0.1c0,0,0.1,0.1,0.1,0.2v0.1c0,0.1,0,0.1-0.1,0.2c0,0-0.1,0.1-0.1,0.1h-0.2
				c-0.1,0-0.1,0-0.1-0.1C210.3,123.3,210.3,123.2,210.3,123.2z"/>
			<rect x="211.4" y="122.6" class="st3" width="0.2" height="1.4"/>
			<rect x="211.4" y="122.1" class="st3" width="0.2" height="0.3"/>
			<path class="st3" d="M212.7,123.2l-0.3-0.1c-0.1,0-0.1-0.1-0.1-0.2c0-0.1,0-0.1,0-0.1c0,0,0.1,0,0.1,0h0.2c0,0,0.1,0,0.1,0
				c0,0,0.1,0,0.1,0.1v0h0.1l0.1-0.1l0,0c-0.1-0.1-0.2-0.2-0.4-0.2h-0.2c-0.1,0-0.2,0-0.3,0.1c-0.1,0.1-0.1,0.2-0.1,0.3
				s0,0.2,0.1,0.2c0.1,0.1,0.1,0.1,0.2,0.1l0.3,0.1c0.1,0,0.1,0.1,0.1,0.2c0,0.1,0,0.1,0,0.1s-0.1,0-0.1,0h-0.2c0,0-0.1,0-0.1,0
				c0,0-0.1,0-0.1-0.1v0h-0.1l-0.1,0.1l0,0c0.1,0.1,0.2,0.2,0.4,0.2h0.2c0.1,0,0.2,0,0.3-0.1c0.1-0.1,0.1-0.2,0.1-0.3
				C213,123.4,212.9,123.3,212.7,123.2z"/>
			<path class="st3" d="M213.9,123.8L213.9,123.8c-0.1,0-0.1,0-0.2,0s0-0.1,0-0.1v-0.8h0.3v-0.2h-0.3v-0.3h-0.2v0.3h-0.3v0.2h0.3
				v0.8c0,0.1,0,0.2,0.1,0.2c0.1,0.1,0.1,0.1,0.2,0.1h0c0.1,0,0.1,0,0.2-0.1l0,0L213.9,123.8L213.9,123.8z"/>
			<path class="st3" d="M214.9,122.6c-0.1,0-0.2,0-0.3,0.1v-0.1h-0.2v1.4h0.2v-0.9c0-0.1,0-0.2,0.1-0.2c0-0.1,0.1-0.1,0.2-0.1
				s0.1,0,0.2,0.1l0,0h0.1l0.1-0.1l0,0C215.2,122.7,215,122.6,214.9,122.6z"/>
			<path class="st3" d="M216.1,122.6h-0.2c-0.1,0-0.2,0-0.3,0.1c-0.1,0.1-0.1,0.2-0.1,0.3v0.4c0,0.1,0,0.3,0.1,0.3
				c0.1,0.1,0.2,0.1,0.3,0.1h0.2c0.1,0,0.2,0,0.3-0.1s0.1-0.2,0.1-0.3v-0.4c0-0.1,0-0.3-0.1-0.3
				C216.3,122.7,216.2,122.6,216.1,122.6z M216.3,123.1v0.4c0,0.1,0,0.2-0.1,0.2c0,0.1-0.1,0.1-0.2,0.1h-0.2c-0.1,0-0.1,0-0.2-0.1
				c0-0.1-0.1-0.1-0.1-0.2v-0.4c0-0.1,0-0.2,0.1-0.2c0,0,0.1-0.1,0.2-0.1h0.2c0.1,0,0.1,0,0.2,0.1C216.3,123,216.3,123,216.3,123.1z
				"/>
			<rect x="216.9" y="123.7" class="st3" width="0.2" height="0.3"/>
			<rect x="216.9" y="122.6" class="st3" width="0.2" height="0.3"/>
			<path class="st3" d="M218.8,123l-0.3-0.1c-0.1,0-0.1,0-0.2-0.1c0,0,0-0.1,0-0.1v-0.1c0-0.2,0.1-0.2,0.2-0.2h0.2
				c0.1,0,0.1,0,0.1,0c0,0,0.1,0,0.1,0.1l0,0h0.1l0.1-0.1l0,0c-0.1-0.1-0.2-0.2-0.4-0.2h-0.3c-0.1,0-0.3,0-0.3,0.1
				c-0.1,0.1-0.1,0.2-0.1,0.3v0.1c0,0.1,0,0.2,0.1,0.3c0.1,0.1,0.2,0.1,0.3,0.1l0.3,0.1c0.1,0,0.1,0,0.2,0.1c0,0,0,0.1,0,0.1v0.1
				c0,0.2-0.1,0.2-0.2,0.2h-0.3c-0.1,0-0.1,0-0.1,0c0,0-0.1,0-0.1-0.1l0,0h-0.1l-0.1,0.1l0,0c0.1,0.1,0.2,0.2,0.4,0.2h0.3
				c0.1,0,0.2,0,0.3-0.1c0.1-0.1,0.1-0.2,0.1-0.3v-0.2c0-0.1,0-0.2-0.1-0.3C219.1,123.1,219,123,218.8,123z"/>
			<rect x="219.6" y="123" class="st3" width="0.7" height="0.2"/>
			<path class="st3" d="M221.2,122.1h-0.6v1.9h0.2v-0.7h0.4c0.1,0,0.3,0,0.3-0.1c0.1-0.1,0.1-0.2,0.1-0.3v-0.2c0-0.1,0-0.3-0.1-0.3
				C221.5,122.1,221.4,122.1,221.2,122.1z M220.9,122.3h0.4c0.1,0,0.1,0,0.2,0.1c0,0,0.1,0.1,0.1,0.2v0.1c0,0.1,0,0.2-0.1,0.2
				c0,0-0.1,0.1-0.2,0.1h-0.4V122.3z"/>
			<rect x="222" y="123" class="st3" width="0.7" height="0.2"/>
			<path class="st3" d="M223.6,122.2h-0.2c-0.1,0-0.2,0.1-0.3,0.2s-0.1,0.2-0.1,0.4v0.7c0,0.1,0,0.3,0.1,0.4
				c0.1,0.1,0.2,0.2,0.3,0.2h0.2c0.1,0,0.2-0.1,0.3-0.2c0.1-0.1,0.1-0.2,0.1-0.4v-0.7c0-0.1,0-0.3-0.1-0.4
				C223.9,122.2,223.8,122.2,223.6,122.2z M223.9,122.8v0.7c0,0.1,0,0.2-0.1,0.2c-0.1,0.1-0.1,0.1-0.2,0.1h-0.1
				c-0.1,0-0.1,0-0.2-0.1c-0.1-0.1-0.1-0.1-0.1-0.2v-0.7c0-0.1,0-0.2,0.1-0.2c0-0.1,0.1-0.1,0.2-0.1h0.1c0.1,0,0.1,0,0.2,0.1
				C223.8,122.5,223.9,122.7,223.9,122.8z"/>
			<path class="st3" d="M225.1,122.2h-0.2c-0.1,0-0.2,0.1-0.3,0.2s-0.1,0.2-0.1,0.4v0.7c0,0.1,0,0.3,0.1,0.4
				c0.1,0.1,0.2,0.2,0.3,0.2h0.2c0.1,0,0.2-0.1,0.3-0.2s0.1-0.2,0.1-0.4v-0.7c0-0.1,0-0.3-0.1-0.4
				C225.3,122.2,225.2,122.2,225.1,122.2z M225.3,122.8v0.7c0,0.1,0,0.2-0.1,0.2c-0.1,0.1-0.1,0.1-0.2,0.1h-0.1
				c-0.1,0-0.1,0-0.2-0.1c-0.1-0.1-0.1-0.1-0.1-0.2v-0.7c0-0.1,0-0.2,0.1-0.2c0-0.1,0.1-0.1,0.2-0.1h0.1c0.1,0,0.1,0,0.2,0.1
				C225.3,122.5,225.3,122.7,225.3,122.8z"/>
			<path class="st3" d="M226.8,123.1c0,0,0.1-0.1,0.1-0.1c0-0.1,0.1-0.2,0.1-0.3c0-0.1,0-0.3-0.1-0.4c-0.1-0.1-0.2-0.1-0.4-0.1
				c-0.1,0-0.3,0-0.4,0.1c-0.1,0.1-0.1,0.2-0.1,0.4c0,0.1,0,0.2,0.1,0.3c0,0.1,0.1,0.1,0.1,0.1c-0.1,0.1-0.2,0.2-0.2,0.4
				c0,0.2,0,0.3,0.1,0.4c0.1,0.1,0.2,0.1,0.4,0.1c0.2,0,0.3,0,0.4-0.1s0.1-0.2,0.1-0.4C227,123.3,226.9,123.2,226.8,123.1z
				 M226.4,123.8c-0.1,0-0.2,0-0.2-0.1c-0.1-0.1-0.1-0.1-0.1-0.2c0-0.1,0-0.2,0.1-0.2c0.1-0.1,0.1-0.1,0.2-0.1c0.1,0,0.2,0,0.2,0.1
				c0.1,0.1,0.1,0.1,0.1,0.2c0,0.1,0,0.2-0.1,0.2C226.6,123.8,226.5,123.8,226.4,123.8z M226.4,122.4c0.1,0,0.1,0,0.2,0.1
				c0,0,0.1,0.1,0.1,0.2c0,0.1,0,0.2-0.1,0.2c0,0-0.1,0.1-0.2,0.1c-0.1,0-0.1,0-0.2-0.1c0-0.1-0.1-0.1-0.1-0.2c0-0.1,0-0.2,0.1-0.2
				C226.3,122.4,226.4,122.4,226.4,122.4z"/>
			<path class="st3" d="M227.4,122.7l0.1,0.1h0.1l0,0c0.1-0.1,0.2-0.2,0.2-0.3v1.5h0.2v-1.8h-0.2L227.4,122.7z"/>
			<path class="st3" d="M229,122.2l-0.5,0.5l0.1,0.1h0.1l0,0c0.1-0.1,0.2-0.2,0.2-0.3v1.5h0.2v-1.8H229z"/>
		</g>
	</g>
</g>
</svg>
