<?xml version="1.0" encoding="utf-8"?>
<!-- Generator: Adobe Illustrator 25.4.1, SVG Export Plug-In . SVG Version: 6.00 Build 0)  -->
<svg version="1.1" id="Capa_1" xmlns="http://www.w3.org/2000/svg" xmlns:xlink="http://www.w3.org/1999/xlink" x="0px" y="0px"
	 viewBox="0 0 35.5 35.5" style="enable-background:new 0 0 35.5 35.5;" xml:space="preserve">
<style type="text/css">
	.st0{fill-rule:evenodd;clip-rule:evenodd;fill:#009CDE;}
	.st1{fill:#FFFFFF;}
	.st2{fill:#002554;}
</style>
<g>
	<path class="st0" d="M17.8,0c9.8,0,17.8,8,17.8,17.8s-8,17.8-17.8,17.8S0,27.6,0,17.8S8,0,17.8,0z"/>
	<path class="st1" d="M9.9,26.8l-1.1-1.1c-0.4-0.4-0.4-1.1,0-1.6l4.5-4.5c-0.6-1.1-1-2.3-1-3.7c0-4,3.5-7.5,7.5-7.5
		c4,0,7.3,3.2,7.3,7.3c0,4-3.5,7.5-7.5,7.5c-1.4,0-2.7-0.4-3.8-1l-4.5,4.4C10.9,27.1,10.3,27.2,9.9,26.8z M14.5,16
		c0,2.8,2.3,5.1,5,5.1c2.8,0,5.3-2.5,5.3-5.3c0-2.8-2.3-5-5-5C17,10.7,14.5,13.2,14.5,16z"/>
	<g>
		<path class="st2" d="M22.3,15.9c0,0.1,0,0.2,0,0.3s0,0.1-0.1,0.2s-0.1,0.1-0.1,0.1s-0.1,0-0.1,0h-1.8v2c0,0,0,0.1,0,0.1
			s-0.1,0.1-0.1,0.1s-0.1,0-0.2,0s-0.2,0-0.3,0s-0.2,0-0.3,0s-0.1,0-0.2,0s-0.1,0-0.1-0.1s0-0.1,0-0.1v-2h-1.8c0,0-0.1,0-0.1,0
			s-0.1-0.1-0.1-0.1s0-0.1-0.1-0.2s0-0.2,0-0.3c0-0.1,0-0.2,0-0.3s0-0.1,0-0.2s0-0.1,0.1-0.1s0.1,0,0.1,0H19v-2c0,0,0-0.1,0-0.1
			s0.1-0.1,0.1-0.1s0.1,0,0.2,0s0.2,0,0.3,0s0.2,0,0.3,0s0.1,0,0.2,0s0.1,0,0.1,0.1s0,0.1,0,0.1v2h1.8c0,0,0.1,0,0.1,0
			s0.1,0.1,0.1,0.1s0,0.1,0,0.2S22.3,15.8,22.3,15.9z"/>
	</g>
</g>
</svg>
