<?xml version="1.0" encoding="utf-8"?>
<!-- Generator: Adobe Illustrator 25.4.1, SVG Export Plug-In . SVG Version: 6.00 Build 0)  -->
<svg version="1.1" id="Capa_1" xmlns="http://www.w3.org/2000/svg" xmlns:xlink="http://www.w3.org/1999/xlink" x="0px" y="0px"
	 viewBox="0 0 15 14" style="enable-background:new 0 0 15 14;" xml:space="preserve">
<style type="text/css">
	.st0{fill:#002554;}
</style>
<path class="st0" d="M14.4,9c-0.3,0-0.6,0.3-0.6,0.6V12c0,0.4-0.4,0.8-0.8,0.8H2c-0.5,0-0.8-0.4-0.8-0.8V9.6C1.2,9.3,0.9,9,0.6,9
	S0,9.3,0,9.6V12c0,1.1,0.9,2,2,2h11c1.1,0,2-0.9,2-2V9.6C15,9.3,14.7,9,14.4,9z"/>
<path class="st0" d="M7.1,11.5C7.1,11.5,7.1,11.5,7.1,11.5C7.1,11.6,7.1,11.6,7.1,11.5c0.1,0.1,0.1,0.1,0.1,0.1c0,0,0,0,0.1,0
	c0,0,0,0,0,0c0,0,0.1,0,0.1,0c0,0,0,0,0,0c0,0,0.1,0,0.1,0c0,0,0.1,0,0.1,0c0,0,0,0,0,0c0,0,0.1,0,0.1,0c0,0,0,0,0,0c0,0,0,0,0.1,0
	c0,0,0,0,0,0c0,0,0,0,0.1,0c0,0,0,0,0,0l4.7-5.3c0.2-0.2,0.2-0.6,0-0.8c-0.2-0.2-0.6-0.2-0.8,0L8.1,9.6v-9C8.1,0.3,7.8,0,7.5,0
	C7.2,0,6.9,0.3,6.9,0.6v9L3.2,5.5C3,5.3,2.7,5.2,2.4,5.4C2.2,5.7,2.2,6,2.4,6.3L7.1,11.5z"/>
</svg>
