<?xml version="1.0" encoding="utf-8"?>
<!-- Generator: Adobe Illustrator 25.4.1, SVG Export Plug-In . SVG Version: 6.00 Build 0)  -->
<svg version="1.1" id="Capa_1" xmlns="http://www.w3.org/2000/svg" xmlns:xlink="http://www.w3.org/1999/xlink" x="0px" y="0px"
	 viewBox="0 0 18.4 21.6" style="enable-background:new 0 0 18.4 21.6;" xml:space="preserve">
<style type="text/css">
	.st0{fill:#009CDE;}
</style>
<g>
	<path class="st0" d="M16.7,20H1.6C0.7,20,0,19.3,0,18.4V3.2c0-0.9,0.7-1.6,1.6-1.6h15.1c0.9,0,1.6,0.7,1.6,1.6
		c0,0.2-0.1,0.3-0.3,0.3c-0.2,0-0.3-0.1-0.3-0.3c0-0.5-0.5-1-1-1H1.6c-0.6,0-1,0.4-1,1v15.2c0,0.5,0.5,1,1,1h15.1c0.6,0,1-0.4,1-1
		V6.1c0-0.2,0.1-0.3,0.3-0.3c0.2,0,0.3,0.1,0.3,0.3v12.2C18.4,19.3,17.6,20,16.7,20z"/>
	<path class="st0" d="M5.6,17.4H2.9c-0.2,0-0.3-0.1-0.3-0.3V8.6c0-0.2,0.1-0.3,0.3-0.3h2.6c0.2,0,0.3,0.1,0.3,0.3
		c0,0.2-0.1,0.3-0.3,0.3H3.2v7.9h2v-6.6c0-0.2,0.1-0.3,0.3-0.3c0.2,0,0.3,0.1,0.3,0.3V17C5.9,17.2,5.7,17.4,5.6,17.4z M4.3,7.7
		c-1,0-1.8-0.8-1.8-1.8c0-1,0.8-1.8,1.8-1.8s1.8,0.8,1.8,1.8C6.1,6.9,5.3,7.7,4.3,7.7z M4.3,4.7C3.6,4.7,3,5.2,3,5.9
		c0,0.7,0.5,1.2,1.2,1.2c0.7,0,1.2-0.5,1.2-1.2C5.5,5.2,4.9,4.7,4.3,4.7z"/>
	<path class="st0" d="M15.4,17.4h-2.6c-0.2,0-0.3-0.1-0.3-0.3v-2.5c0-0.2,0.1-0.3,0.3-0.3s0.3,0.1,0.3,0.3v2.2h2v-4.3
		c0-1.3-0.2-2.1-0.5-2.7c-0.4-0.7-1.2-1-2.3-1c-1.2,0-1.9,0.6-2.2,1.2C10,10,9.9,10,9.8,10h0c-0.2,0-0.3-0.1-0.3-0.3V8.9H7.5v7.9h2
		v-3.9c0-0.5,0-1.1,0.3-1.6c0.3-0.6,0.8-0.8,1.6-0.8c0.7,0,1.2,0.3,1.5,0.9c0.2,0.5,0.2,1.1,0.2,1.6c0,0.2-0.1,0.3-0.3,0.3
		s-0.3-0.1-0.3-0.3c0-1.3-0.2-1.9-1.1-1.9c-0.7,0-0.9,0.3-1,0.5c-0.2,0.4-0.2,1-0.2,1.4V17c0,0.2-0.1,0.3-0.3,0.3H7.2
		c-0.2,0-0.3-0.1-0.3-0.3V8.6c0-0.2,0.1-0.3,0.3-0.3h2.5c0.2,0,0.3,0.1,0.3,0.3v0.3c0.1-0.1,0.3-0.3,0.5-0.4
		c0.5-0.3,1.1-0.5,1.8-0.5c3.1,0,3.5,2.2,3.5,4.3V17C15.7,17.2,15.6,17.4,15.4,17.4z"/>
</g>
</svg>
