<?xml version="1.0" encoding="utf-8"?>
<!-- Generator: Adobe Illustrator 25.4.1, SVG Export Plug-In . SVG Version: 6.00 Build 0)  -->
<svg version="1.1" id="Capa_1" xmlns="http://www.w3.org/2000/svg" xmlns:xlink="http://www.w3.org/1999/xlink" x="0px" y="0px"
	 viewBox="0 0 28.1 21.6" style="enable-background:new 0 0 28.1 21.6;" xml:space="preserve">
<style type="text/css">
	.st0{fill:#009CDE;}
</style>
<g>
	<path class="st0" d="M27.7,4.1c-1.8,0-2.3,2-2.3,3v9.6c0,1.2-1,2.1-2.1,2.1H2.9c-1.2,0-2.1-1-2.1-2.1V4.9c0-1.2,1-2.1,2.1-2.1h20.4
		c0.2,0,0.4-0.2,0.4-0.4c0-0.2-0.2-0.4-0.4-0.4H2.9C1.3,2,0,3.3,0,4.9v11.8c0,1.6,1.3,2.9,2.9,2.9h20.4c1.6,0,2.9-1.3,2.9-2.9V7.1
		c0-0.1,0-2.3,1.6-2.3c0.2,0,0.4-0.2,0.4-0.4C28.1,4.3,27.9,4.1,27.7,4.1z"/>
	<path class="st0" d="M11.1,7.2c-0.2,0.1-0.3,0.3-0.3,0.6v6c0,0.2,0.1,0.4,0.3,0.6c0.1,0.1,0.2,0.1,0.3,0.1s0.2,0,0.3-0.1l5.2-3
		c0.2-0.1,0.3-0.3,0.3-0.6c0-0.2-0.1-0.4-0.3-0.6l-5.2-3C11.5,7.1,11.3,7.1,11.1,7.2z M11.5,13.7V7.9l4.9,2.9L11.5,13.7z"/>
</g>
</svg>
