<?xml version="1.0" encoding="utf-8"?>
<!-- Generator: Adobe Illustrator 25.4.1, SVG Export Plug-In . SVG Version: 6.00 Build 0)  -->
<svg version="1.1" id="Capa_1" xmlns="http://www.w3.org/2000/svg" xmlns:xlink="http://www.w3.org/1999/xlink" x="0px" y="0px"
	 viewBox="0 0 21.6 21.6" style="enable-background:new 0 0 21.6 21.6;" xml:space="preserve">
<style type="text/css">
	.st0{fill:#009CDE;}
</style>
<path class="st0" d="M6.9,19.7c-0.4,0-0.7,0-1.1,0c-1-0.1-2.1-0.3-3.1-0.7c-0.8-0.3-2.5-1.2-2.5-1.2C0,17.7,0,17.5,0,17.3
	c0-0.2,0.2-0.3,0.4-0.3c2,0.2,3.7-0.2,5.3-1.2C5,15.7,4.5,15.4,4,15c-0.7-0.5-1.3-1.3-1.7-2.3c0-0.1,0-0.2,0-0.3
	c0.1-0.1,0.2-0.2,0.3-0.1c0.1,0,0.2,0,0.3,0c0,0,0,0,0.1,0c-1.4-0.8-2.2-2.2-2.3-4c0-0.1,0.1-0.2,0.2-0.3C1,8,1.2,7.9,1.3,8
	c0.2,0.1,0.4,0.2,0.6,0.3C1.3,7.5,1,6.7,0.8,5.8c-0.1-1,0.1-2,0.6-2.9c0.1-0.1,0.2-0.2,0.3-0.2c0.1,0,0.2,0,0.3,0.1
	c1.5,1.8,3.3,3,5.4,3.7C7.6,6.6,7.7,6.8,7.6,7C7.5,7.2,7.3,7.3,7.1,7.2c-2-0.7-3.8-1.9-5.3-3.5C1.6,4.3,1.5,5,1.5,5.7
	c0.1,1.2,0.7,2.1,1.7,2.8c0.1,0.1,0.2,0.3,0.1,0.4c0,0.1-0.2,0.2-0.3,0.2c0,0,0,0,0,0C2.5,9.1,2,9,1.5,8.9c0.3,1.7,1.3,2.8,3,3.4
	c0.2,0,0.3,0.2,0.2,0.4c0,0.2-0.1,0.3-0.3,0.3C4.3,13,3.9,13,3.6,13c-0.1,0-0.3,0-0.4,0c0.3,0.6,0.7,1.1,1.2,1.4
	c0.6,0.5,1.4,0.7,2.3,0.8c0.1,0,0.3,0.1,0.3,0.3c0,0.1,0,0.3-0.1,0.4c-1,0.7-2,1.3-3.1,1.6c-0.6,0.2-1.3,0.3-1.9,0.3
	C2.2,18,2.7,18.2,3,18.3c1,0.3,2,0.6,2.9,0.6c1.9,0.1,3.6-0.1,5.2-0.7c1.5-0.5,2.8-1.3,3.9-2.4c0.8-0.8,1.6-1.7,2.2-2.8
	c0.6-1.1,1.1-2.3,1.3-3.5c0.2-0.9,0.3-1.9,0.3-2.8c0-0.2,0.1-0.4,0.3-0.6l0.1-0.1c0.3-0.2,0.5-0.4,0.8-0.7C20,5.3,20.1,5.2,20.3,5
	c0,0,0,0-0.1,0c-0.3,0.1-0.6,0.1-0.8,0.2c-0.1,0-0.2,0-0.3,0.1c-0.2,0-0.3-0.1-0.4-0.2l0-0.1c-0.1-0.2,0-0.3,0.1-0.4
	c0.5-0.3,0.9-0.8,1.2-1.2c-0.6,0.2-1.1,0.4-1.7,0.6c-0.2,0.1-0.4,0-0.6-0.2c-0.5-0.5-1.2-0.9-1.9-1c-1.4-0.3-2.5,0.1-3.5,1
	c-0.9,0.8-1.3,1.7-1.2,2.7c0.1,0.6-0.1,1-0.4,1.3C10.4,7.9,10.1,8.1,9.5,8C9.3,8,9.2,7.8,9.2,7.6c0-0.2,0.2-0.3,0.4-0.3
	c0.2,0,0.4,0,0.5-0.1c0.1-0.1,0.2-0.4,0.2-0.7c-0.1-1.2,0.3-2.3,1.4-3.3c1.1-1.1,2.5-1.4,4.1-1.1c0.9,0.2,1.7,0.6,2.3,1.2
	c0.8-0.2,1.6-0.5,2.3-0.9c0,0,0.1,0,0.1,0c0,0,0,0,0.1,0c0.1-0.1,0.3,0,0.4,0.1C21,2.4,21.1,2.6,21,2.7c-0.2,0.6-0.5,1.2-0.9,1.6
	c0.2-0.1,0.4-0.1,0.7-0.2C20.9,4.1,21,4,21.1,4c0.1,0,0.3,0,0.4,0.1c0.1,0.1,0.1,0.3,0,0.4c-0.4,0.5-0.7,1-1.2,1.4
	c-0.3,0.2-0.5,0.5-0.8,0.7l-0.1,0.1c0,1-0.1,2-0.3,3c-0.3,1.3-0.8,2.5-1.4,3.7c-0.6,1.1-1.4,2.1-2.3,3c-1.2,1.1-2.6,2-4.1,2.6
	C10,19.4,8.5,19.7,6.9,19.7z M18.1,3.3L18.1,3.3L18.1,3.3z"/>
</svg>
