<?xml version="1.0" encoding="utf-8"?>
<!-- Generator: Adobe Illustrator 25.4.1, SVG Export Plug-In . SVG Version: 6.00 Build 0)  -->
<svg version="1.1" id="Capa_1" xmlns="http://www.w3.org/2000/svg" xmlns:xlink="http://www.w3.org/1999/xlink" x="0px" y="0px"
	 viewBox="0 0 11 21.6" style="enable-background:new 0 0 11 21.6;" xml:space="preserve">
<style type="text/css">
	.st0{fill:#009CDE;}
</style>
<path class="st0" d="M4.9,21.6c-0.5,0-1.1,0-1.6,0c-0.1,0-0.3,0-0.5-0.1c-0.1-0.1-0.1-0.3-0.1-0.5l0-2.7c0-1.1,0-2.1,0-3.2
	c0-0.2,0.2-0.4,0.4-0.4l0,0c0.2,0,0.4,0.2,0.4,0.4c0,1.1,0,2.1,0,3.2l0,2.6c1,0,2.1,0,3.1,0v-2.7c0-2.4,0-5.5,0-6.5
	c0-0.2,0-0.3,0.1-0.4c0.1-0.1,0.3-0.1,0.4-0.1c1.1,0,2.1,0,3.2,0c0-0.2,0-0.5,0-0.8c0-0.7,0.1-1.5,0.1-2l-0.6,0c-0.9,0-1.8,0-2.7,0
	c-0.1,0-0.3,0-0.4-0.1C6.4,8,6.4,7.8,6.4,7.7c0-0.1,0-0.2,0-0.4c0-0.1,0-0.2,0-0.3c0-0.2,0-0.4,0-0.6c0-0.5,0-1.1,0-1.7
	c0-0.7,0.4-1.1,1.1-1.3c0.1,0,0.8,0,2.5-0.1c0.1,0,0.1,0,0.2,0c0-0.2,0-0.6,0-1.1c0-0.6,0-1.2,0-1.5c-0.5,0-1.9-0.1-2.5-0.1
	C7.2,0.7,6.6,0.8,6,1C4.8,1.5,4,2.2,3.6,3.3C3.4,3.8,3.3,4.3,3.3,5l0,0.6c0,0.7,0,1.4,0,2.2c0,0.1,0,0.3-0.1,0.4
	C3.1,8.2,2.9,8.2,2.8,8.2c-0.6,0-1.1,0-1.7,0c-0.1,0-0.3,0-0.4,0c0,1,0,1.9,0,2.9c0.2,0,0.4,0,0.6,0c0.3,0,0.6,0,1,0
	c0.6,0,1,0.5,1,1.3c0,0.2-0.2,0.4-0.4,0.4c-0.2,0-0.4-0.2-0.4-0.3c0-0.2,0-0.3-0.1-0.4c-0.1-0.1-0.1-0.1-0.2-0.1c-0.4,0-0.7,0-1,0
	c-0.2,0-0.4,0-0.7,0c-0.4,0-0.6-0.2-0.6-0.6c0-1,0-2,0-3.1C0,8,0,7.8,0.1,7.7c0.1-0.1,0.3-0.1,0.5-0.1c0.2,0,0.4,0,0.5,0
	c0.5,0,1,0,1.5,0c0-0.7,0-1.3,0-2l0-0.6c0-0.7,0.1-1.3,0.3-1.9c0.5-1.3,1.4-2.2,2.8-2.7C6.4,0.1,7.1,0,7.8,0c0.7,0,2.4,0.1,2.7,0.1
	c0.3,0,0.5,0.2,0.5,0.5c0,0.3,0,1,0,1.7c0,0.6,0,1.2,0,1.3c0,0.3-0.2,0.5-0.5,0.5c0,0,0,0-0.4,0c-0.5,0-2.1,0-2.3,0.1
	C7.4,4.3,7.2,4.5,7.2,4.8c0,0.5,0,1.1,0,1.6c0,0.2,0,0.4,0,0.6c0,0.1,0,0.2,0,0.3c0,0.1,0,0.1,0,0.2c0.8,0,1.7,0,2.5,0l0.8,0
	c0.2,0,0.3,0,0.5,0.1C11,7.8,11,8,11,8.2c0,0.5-0.1,1.4-0.1,2.1c0,0.5,0,0.8,0,0.9c0,0.4-0.2,0.6-0.6,0.6c-1,0-2.1,0-3.1,0
	c0,1.1,0,4.1,0,6.4l0,2.7c0,0.2,0,0.4-0.1,0.5c-0.1,0.1-0.3,0.1-0.5,0.1C6,21.6,5.4,21.6,4.9,21.6z M3.3,21.1L3.3,21.1L3.3,21.1z
	 M2.6,7.7L2.6,7.7L2.6,7.7z M7.8,4.2L7.8,4.2L7.8,4.2z"/>
</svg>
